<svg xmlns="http://www.w3.org/2000/svg" style="display: none;">
    <symbol id="search-button" xmlns="http://www.w3.org/2000/svg" viewBox="0 0 17 17">
        <path d="M13.1465 13.1465C13.3417 12.9512 13.6583 12.9512 13.8535 13.1465L16.8535 16.1465C17.0488 16.3417 17.0488 16.6583 16.8535 16.8535C16.6583 17.0488 16.3417 17.0488 16.1465 16.8535L13.1465 13.8535C12.9512 13.6583 12.9512 13.3417 13.1465 13.1465ZM14 7.5C14 3.91015 11.0899 1 7.5 1C3.91015 1 1 3.91015 1 7.5C1 11.0899 3.91015 14 7.5 14C11.0899 14 14 11.0899 14 7.5ZM15 7.5C15 11.6421 11.6421 15 7.5 15C3.35786 15 0 11.6421 0 7.5C0 3.35786 3.35786 0 7.5 0C11.6421 0 15 3.35786 15 7.5Z"></path>
    </symbol>
</svg>
