<svg width="761" height="755" viewBox="0 0 761 755" fill="none" xmlns="http://www.w3.org/2000/svg">
<g clip-path="url(#clip0_423_7722)">
<path d="M348.007 573.552C372.312 535.472 392.51 489.534 418.425 452.958C470.191 379.911 554.202 408.206 631.014 402.785C633.618 402.149 631.903 391.517 645.517 389.992C667.112 387.599 723.853 387.578 745.428 389.992C751.673 390.691 756.607 393.169 758.089 399.502L758.914 579.524C758.004 585.836 755.929 590.665 749.408 592.189L645.517 593.015C631.903 591.491 633.618 580.859 631.014 580.223C612.044 580.943 595.91 576.538 579.735 588.97C552.635 609.789 526.085 654.668 499.768 678.6L481.01 693.129C415.038 711.491 348.875 731.908 282.183 747.898C256.311 754.083 234.27 761.008 212.823 738.876C210.854 736.843 207.488 729.917 207.022 729.642C204.862 728.371 197.706 729.769 194.022 729.134C139.991 719.9 132.496 654.668 180.409 631.837L347.986 573.552H348.007ZM346.758 619.849C345.614 616.397 344.09 602.44 340.004 602.715L184.389 657.972C164.847 673.771 173.485 704.185 199.442 703.952C199.548 684.996 210.875 668.519 226.881 659.264L346.779 619.849H346.758ZM632.072 428.094H501.335C438.814 428.094 399.095 545.362 368.163 588.165C360.054 616.863 393.527 634.505 412.603 612.013C429.625 591.914 441.545 556.969 457.72 535.069C470 524.692 483.593 535.493 477.559 550.149C472.774 561.755 436.019 625.165 428.482 632.663C417.303 643.782 399.73 648.801 384.19 646.747C376.589 645.73 369.877 639.694 362.298 640.859L237.933 681.438C212.357 698.975 225.653 734.598 256.861 728.901L465.173 672.543C470.233 669.98 475.717 667.397 479.909 663.5C503.41 641.749 526.127 608.985 548.845 585.01C560.68 572.514 579.481 554.914 598.007 554.914H632.072V428.094ZM657.436 415.407V567.601H733.508V415.407H657.436Z" fill="#B6C8FF" fill-opacity="0.28"/>
<path d="M207.103 25.1607C207.484 24.9278 209.22 19.6965 211.253 17.4304C220.484 7.09494 238.501 -0.741295 252.475 0.0635118L471.944 57.9884C503.83 69.7428 544.416 129.997 570.225 156.26C591.164 177.566 601.412 175.321 631.01 174.516C632.746 174.092 633.953 163.079 645.492 161.724C677.208 164.392 714.365 158.272 745.403 161.724C755.184 162.804 758.085 167.442 758.932 176.74C754.994 232.483 763.865 294.75 758.932 349.71C758.085 359.05 755.163 363.646 745.403 364.726C723.765 367.119 667.109 367.14 645.492 364.726C631.878 363.201 633.593 352.569 630.989 351.933C590.317 349.752 546.364 355.068 506.074 351.976C413.975 344.923 392.655 245.042 347.982 181.187L180.405 122.902C133.234 101.512 139.839 34.882 192.664 25.8385C196.411 25.2031 205.579 26.135 207.061 25.1819L207.103 25.1607ZM199.418 50.7663C172.995 50.4275 164.907 82.3656 185.232 97.4663L338.836 151.6L342.879 150.689L346.754 134.847L233.441 98.3558C213.878 90.8796 199.587 71.9878 199.396 50.7451L199.418 50.7663ZM632.069 199.804H598.003C579.35 199.804 560.761 182.267 548.841 169.708C529.914 149.736 486.532 91.0914 465.169 82.1962L255.269 25.8385C224.909 20.7978 212.883 57.1412 237.908 73.3009C262.637 76.8166 349.358 117.057 367.778 113.901C372.796 113.033 379.084 108.776 385.795 108.035C400.997 106.34 418.612 111.677 429.198 122.924C437.667 131.904 472.135 191.798 477.534 204.569C483.801 219.458 470.081 229.836 457.696 219.67C443.066 197.559 431.739 171.085 417.193 149.207C412.451 142.091 407.137 134.678 398.16 133.365C376.226 130.188 363.438 145.31 368.138 166.553C397.99 207.725 439.784 326.624 499.722 326.624H632.048V199.804H632.069ZM657.433 187.117V339.311H733.504V187.117H657.433Z" fill="#B6C8FF" fill-opacity="0.28"/>
<path d="M339.537 433.515C300.262 473.12 259.612 518.804 218.454 555.74C197.43 574.59 171.79 590.114 142.954 592.761C21.5322 603.923 -45.1174 465.538 37.6442 377.941C32.584 370.571 26.0842 364.196 21.257 356.635C-57.4396 233.585 99.1067 93.1246 217.691 198.194C276.74 250.528 330.581 315.569 388.338 369.915C392.869 376.332 391.154 380.822 387.132 386.773C377.731 400.645 352.367 420.617 339.558 433.515H339.537ZM303.459 319.254C269.859 285.6 226.88 237.503 191.523 208.508C99.4243 132.962 -29.8947 255.06 50.4956 354.327C55.217 360.151 66.9251 368.051 67.8567 375.125C69.2964 386.328 57.3342 392.047 51.2366 399.544C-27.9892 496.778 91.5483 619.871 190.655 546.951L359.311 377.92C359.587 376.332 356.559 372.562 355.352 371.185C340.595 354.517 319.72 335.52 303.459 319.254Z" fill="#B6C8FF" fill-opacity="0.28"/>
<path d="M137.616 339.311V298.88C137.616 292.314 146.995 288.989 152.585 288.481C163.764 287.464 190.97 287.168 201.683 288.671C206.298 289.307 213.666 294.114 213.666 298.88V339.311H254.084C257.471 339.311 263.696 347.422 264.289 351.298C265.855 361.21 265.432 389.844 264.458 400.434C263.95 406.046 260.626 415.407 254.062 415.407H213.645V455.838C213.645 462.404 204.266 465.729 198.676 466.237C187.497 467.254 160.291 467.55 149.578 466.047C144.963 465.411 137.595 460.604 137.595 455.838V415.407H97.1774C90.614 415.407 87.29 406.025 86.7819 400.434C85.7656 389.315 85.4692 361.994 87.0148 351.362C87.7135 346.469 92.0961 339.311 97.1562 339.311H137.574H137.616ZM112.252 364.683V390.056H152.669C155.739 390.056 162.98 397.299 162.98 400.37V440.801H188.344V400.37C188.344 397.299 195.585 390.056 198.655 390.056H239.073V364.683H198.655C195.585 364.683 188.344 357.44 188.344 354.369V313.938H162.98V354.369C162.98 357.44 155.739 364.683 152.669 364.683H112.252Z" fill="#B6C8FF" fill-opacity="0.28"/>
</g>
<defs>
<clipPath id="clip0_423_7722">
<rect width="754.019" height="760.48" fill="white" transform="matrix(0 -1 1 0 0 754.019)"/>
</clipPath>
</defs>
</svg>
