<svg width="1067" height="905" viewBox="0 0 1067 905" fill="none" xmlns="http://www.w3.org/2000/svg">
<g clip-path="url(#clip0_71_353)">
<path d="M604.529 388.123H698.966C706.296 388.123 710.725 399.384 711.305 405.145C714.421 436.424 708.892 472.039 711.061 503.812C711.641 508.119 702.478 517.022 698.966 517.022H604.529V602.625C604.529 609.259 592.098 613.275 585.745 613.798C551.232 616.621 511.955 611.587 476.892 613.595C472.127 614.119 462.323 605.826 462.323 602.625V517.022H367.886C360.556 517.022 356.127 505.762 355.547 500.001C352.432 468.722 357.96 433.107 355.791 401.333C355.211 397.027 364.374 388.123 367.886 388.123H462.323V302.52C462.323 299.32 472.158 291.056 476.892 291.551C511.924 293.529 551.232 288.496 585.745 291.347C592.098 291.871 604.529 295.886 604.529 302.52V388.123ZM568.977 323.674H497.875V409.277C497.875 411.633 488.254 420.363 485.658 420.363H391.221V484.812H485.658C488.254 484.812 497.875 493.512 497.875 495.898V581.501H568.977V495.898C568.977 493.541 578.598 484.812 581.194 484.812H675.632V420.363H581.194C578.568 420.363 568.977 411.663 568.977 409.277V323.674Z" fill="#B6C8FF" fill-opacity="0.2"/>
<path d="M280.897 68.6106C286.212 63.4896 297.421 59.8525 304.629 56.8846C353.069 36.9241 404.197 21.561 452.851 1.92058C520.655 4.36472 593.988 -3.02589 661.151 1.45503C764.17 8.35099 850.544 91.5972 954.511 98.0858C984.442 99.948 1024.18 94.245 1052.12 98.2312C1071.79 101.025 1071.76 127.445 1052.12 130.209C1025.95 133.904 959.917 131.373 932.581 128.026C855.37 118.541 790.07 71.9859 719.364 47.399C641.665 20.3971 545.639 39.4265 463.388 33.6071L305.576 91.9754C303.041 140.596 354.596 133.206 391.247 125.291C407.404 121.8 442.986 105.389 455.6 115.282C486.387 139.432 412.688 153.952 397.508 157.152C358.933 165.27 308.63 171.497 282.73 137.046C269.841 119.908 264.191 84.6721 280.928 68.6106H280.897Z" fill="#B6C8FF" fill-opacity="0.2"/>
<path d="M712.979 741.127C765.176 739.119 802.896 768.856 795.413 817.884C793.672 829.348 786.678 837.117 776.08 842.646C729.258 867.058 660.018 882.275 610.081 903.662C543.927 900.577 473.404 907.735 407.799 903.749C303.741 897.406 216.756 813.549 112.362 807.031C82.3998 805.169 42.7252 810.843 14.7484 806.885C-4.89043 804.092 -4.92097 777.701 14.7484 774.908C40.8927 771.184 106.987 773.744 134.291 777.09C211.655 786.605 276.405 832.869 347.508 857.718C424.994 884.807 521.386 865.632 603.484 871.51L761.297 813.141C763.863 769.525 721.867 770.863 686.285 777.41C668.143 780.727 630.606 796.294 615.518 792.017C604.065 788.758 601.835 774.181 609.99 766.674C620.466 757.013 695.875 741.825 712.979 741.156V741.127Z" fill="#B6C8FF" fill-opacity="0.2"/>
<path d="M737.14 182.088C732.039 187.122 722.877 188.024 716.035 185.347L534.338 116.417C530.429 114.758 529.36 123.516 529.207 125.582C524.381 190.526 651.346 208.334 698.656 233.328C726.023 282.443 774.921 308.485 836.83 305.604C861.723 304.441 883.041 293.471 903.382 291.434C949.043 286.866 1003.44 294.897 1050.08 291.405C1072.28 293.442 1073.02 321.288 1050.08 323.703C1006.37 328.329 951.456 318.64 908.025 323.819C898.862 324.925 887.439 330.337 877.452 332.345C810.014 346.078 739.003 333.974 693.495 284.306C687.783 278.079 679.354 263.152 674.253 259.457C658.066 247.76 597.561 231.349 574.166 221.282C527.863 201.35 488.097 171.206 494.083 119.792C495.702 105.884 501.963 74.9827 522.854 78.3288L730.543 156.076C741.385 160.993 745.906 173.388 737.14 182.03V182.088Z" fill="#B6C8FF" fill-opacity="0.2"/>
<path d="M535.624 788.874C545.306 747.993 511.801 727.975 476.463 712.641C441.798 697.597 403.223 686.599 368.19 671.818C334.746 611.267 269.905 589.037 197.489 604.196C186.493 606.495 173.818 612.635 163.495 613.682C117.834 618.25 63.438 610.22 16.7997 613.711C-4.45783 612.664 -5.92387 584.498 14.7534 581.559C56.3522 575.682 113.528 585.749 156.837 581.443C169.848 580.163 185.883 572.626 200.024 570.24C263.644 559.591 331.265 574.78 373.383 620.753C378.941 626.834 387.768 642.168 392.624 645.601C408.812 657.007 466.995 672.72 489.78 682.409C542.893 704.93 583.087 736.82 570.534 795.305C567.663 808.718 563.143 829.755 543.626 827.079L329.982 744.705C318.498 733.241 331.265 715.027 347.361 718.838L535.655 788.874H535.624Z" fill="#B6C8FF" fill-opacity="0.2"/>
<path d="M246.291 243.483C257.072 242.231 267.884 251.921 266.418 261.726C254.018 282.589 238.136 301.327 227.141 322.975C204.478 367.494 192.719 420.566 195.743 469.682C196.69 485.161 204.722 510.185 202.249 523.947C199.439 539.66 173.905 539.892 167.919 523.074C154.144 484.23 159.886 415.503 169.751 375.641C178.395 340.695 207.349 274.907 234.715 249.244C238.044 246.101 241.496 244.035 246.321 243.483H246.291Z" fill="#B6C8FF" fill-opacity="0.2"/>
<path d="M879.467 370.432C887.5 369.734 894.983 374.389 897.976 380.936C902.313 390.364 905.948 420.275 906.681 431.448C911.109 497.44 892.57 566.283 855.98 623.08C847.215 636.698 828.034 672.778 806.776 658.928C787.779 646.562 813.984 624.448 821.864 612.285C856.408 558.951 875.008 497.906 871.16 435.464C870.305 421.73 859.096 383.962 868.869 374.942C871.252 372.731 876.169 370.694 879.498 370.432H879.467Z" fill="#B6C8FF" fill-opacity="0.2"/>
<path d="M303.806 193.349C330.561 192.068 327.507 229.662 301.576 228.44C278.303 227.334 281.235 194.425 303.806 193.349Z" fill="#B6C8FF" fill-opacity="0.2"/>
<path d="M779.351 682.787C796.271 696.841 771.196 721.37 753.237 707.432C733.751 692.331 761.728 668.181 779.351 682.787Z" fill="#B6C8FF" fill-opacity="0.2"/>
<path d="M568.976 323.674V409.277C568.976 411.633 578.566 420.362 581.193 420.362H675.63V484.812H581.193C578.597 484.812 568.976 493.512 568.976 495.898V581.501H497.873V495.898C497.873 493.541 488.252 484.812 485.656 484.812H391.219V420.362H485.656C488.252 420.362 497.873 411.663 497.873 409.277V323.674H568.976Z" fill="#B6C8FF" fill-opacity="0.2"/>
</g>
<defs>
<clipPath id="clip0_71_353">
<rect width="1067" height="905" fill="white"/>
</clipPath>
</defs>
</svg>
