<svg width="410" height="124" viewBox="0 0 410 124" fill="none" xmlns="http://www.w3.org/2000/svg">
<g clip-path="url(#clip0_75_870)">
<path d="M72.251 40.3882C74.4563 40.3096 76.6302 40.2432 78.6875 40.3569L79.5615 40.4175C79.9342 40.4485 80.5111 40.5886 80.9824 40.8198C81.2171 40.935 81.399 41.0598 81.5156 41.1821C81.6296 41.3019 81.6553 41.3903 81.6553 41.4507V53.6792H94.9893C95.2096 53.6792 95.4788 53.8586 95.7402 54.3032C95.9876 54.7239 96.1354 55.2363 96.168 55.5601V55.561C96.3756 57.6634 96.2965 59.9203 96.1982 62.2241C96.1006 64.5145 95.9842 66.8538 96.1338 69.064L96.1348 69.0806L96.1367 69.0972C96.1338 69.0751 96.1427 69.1399 96.043 69.314C95.9551 69.4672 95.8184 69.643 95.6572 69.812C95.4967 69.9803 95.3255 70.127 95.1777 70.2271C95.104 70.2769 95.0441 70.3099 95.001 70.3286C94.9856 70.3353 94.9748 70.3384 94.9688 70.3403H81.6553V82.5698C81.6552 82.6302 81.6295 82.7178 81.5156 82.8374C81.399 82.9598 81.2172 83.0845 80.9824 83.1997C80.511 83.4309 79.9342 83.5711 79.5615 83.6021C77.2505 83.7926 74.7726 83.7182 72.2529 83.6284C69.7444 83.539 67.192 83.4346 64.7812 83.5737L64.7686 83.5747L64.7549 83.5757H64.749C64.7448 83.5757 64.7385 83.5755 64.7305 83.5747C64.7141 83.5731 64.6917 83.5693 64.6631 83.562C64.6043 83.547 64.53 83.5204 64.4434 83.479C64.2694 83.3958 64.0745 83.2689 63.8896 83.1216C63.7045 82.974 63.5449 82.8179 63.4375 82.6851C63.3838 82.6186 63.3505 82.5674 63.333 82.5337C63.3322 82.5321 63.3318 82.5302 63.3311 82.5288V70.3403H49.9971C49.7767 70.3403 49.5075 70.1617 49.2461 69.7173C48.9984 69.296 48.8497 68.7822 48.8174 68.4585C48.6098 66.3562 48.6899 64.0992 48.7881 61.7954C48.8857 59.505 49.0021 57.1658 48.8525 54.9556L48.8516 54.939L48.8486 54.9233L48.8604 54.8882C48.8712 54.853 48.8937 54.7933 48.9434 54.7065C49.0311 54.5534 49.1672 54.3774 49.3281 54.2085C49.4886 54.0402 49.6598 53.8935 49.8076 53.7935C49.8816 53.7434 49.9421 53.7106 49.9854 53.6919C50.0018 53.6848 50.0127 53.681 50.0186 53.6792H63.3311V41.4917C63.3317 41.4905 63.3323 41.4892 63.333 41.4878C63.3504 41.4543 63.3836 41.4028 63.4375 41.3364C63.5451 41.2038 63.705 41.0474 63.8906 40.8999C64.0759 40.7527 64.272 40.6261 64.4463 40.5425C64.5329 40.501 64.6071 40.4737 64.666 40.4585C64.6946 40.4511 64.717 40.4475 64.7334 40.4458C64.7414 40.445 64.7478 40.4449 64.752 40.4448C64.7553 40.4448 64.7572 40.4448 64.7578 40.4448L64.7695 40.4458L64.7822 40.4468C67.1906 40.5839 69.7422 40.4776 72.251 40.3882ZM67.1621 55.9985C67.1428 56.0301 67.1125 56.0772 67.0645 56.1362C66.9562 56.2693 66.8001 56.4309 66.627 56.5894C66.4539 56.7477 66.2762 56.8915 66.1289 56.9917C66.0548 57.0421 65.997 57.0746 65.958 57.0933C65.956 57.0942 65.954 57.0953 65.9521 57.0962H52.668V66.9272H65.9521C65.9542 66.9282 65.9567 66.9291 65.959 66.9302C65.9979 66.9488 66.0549 66.9825 66.1289 67.0327C66.2761 67.1326 66.454 67.2751 66.627 67.4331C66.8001 67.5913 66.9554 67.7532 67.0635 67.8862C67.111 67.9447 67.1428 67.9905 67.1621 68.022V80.1753H77.8242V68.0239C77.8436 67.9925 77.8745 67.9465 77.9219 67.8882C78.0301 67.755 78.1861 67.5926 78.3594 67.4341C78.5323 67.2758 78.7102 67.1329 78.8574 67.0327C78.9316 66.9822 78.9894 66.9489 79.0283 66.9302C79.0307 66.929 79.0331 66.9282 79.0352 66.9272H92.3184V57.0962H79.0322C79.0302 57.0953 79.0277 57.0944 79.0254 57.0933C78.9864 57.0747 78.9293 57.0417 78.8555 56.9917C78.7083 56.8919 78.531 56.7483 78.3584 56.5903C78.1856 56.4322 78.0296 56.2712 77.9219 56.1382C77.8742 56.0793 77.8434 56.033 77.8242 56.0015V43.8481H67.1621V55.9985Z" fill="#01B0BF" stroke="white"/>
<path d="M75.7402 0.625977C80.5254 0.491394 85.2767 0.393064 89.8135 0.698242C96.7008 1.16318 103.048 4.20187 109.516 7.29102C115.95 10.3642 122.505 13.4869 129.682 13.9385C131.748 14.0681 134.149 13.9344 136.467 13.8398C138.66 13.7504 140.778 13.6959 142.556 13.9082L142.907 13.9541C145.008 14.2549 145.004 17.0481 142.908 17.3457H142.907C141.175 17.5922 138.081 17.6335 134.928 17.5527C131.783 17.4722 128.629 17.2713 126.794 17.0449C121.627 16.4048 116.842 14.5127 112.123 12.3398C107.719 10.3121 103.34 8.02324 98.8271 6.34863L97.9229 6.02246L97.418 5.85059C92.182 4.12505 86.3912 3.87389 80.5889 3.96094C74.5666 4.05129 68.5685 4.5021 63.0078 4.10547L62.8994 4.09766L62.7969 4.13574L41.3516 12.1338L41.0439 12.248L41.0264 12.5762C40.9358 14.3284 41.3269 15.6499 42.1152 16.5977C42.8999 17.541 44.0215 18.045 45.2568 18.2803C47.7017 18.7459 50.7938 18.1954 53.2744 17.6553C53.8532 17.5292 54.5942 17.2894 55.375 17.0352C56.1671 16.7772 57.0176 16.4984 57.8506 16.2764C58.6863 16.0536 59.4779 15.8957 60.1514 15.8701C60.8373 15.8441 61.3145 15.959 61.6035 16.1875C62.086 16.5691 62.3047 16.8873 62.3848 17.1299C62.4572 17.3496 62.4313 17.553 62.3027 17.7744C62.1639 18.0133 61.9046 18.2713 61.5166 18.5361C61.1331 18.7979 60.6526 19.0473 60.1104 19.2812C57.9267 20.2232 54.9613 20.8205 53.915 21.043C51.3028 21.5972 48.3433 22.0749 45.6162 21.8438C42.983 21.6205 40.6196 20.7425 38.9785 18.6816L38.8223 18.4785C38.0128 17.3933 37.4091 15.6948 37.2881 13.998C37.1665 12.2924 37.5389 10.7133 38.5244 9.75977L38.582 9.7041C38.8794 9.44008 39.3421 9.18652 39.8906 8.94336C40.4857 8.67957 41.0601 8.47536 41.5889 8.25586C44.8664 6.89416 48.2375 5.68832 51.625 4.4834C54.9753 3.29173 58.3427 2.09999 61.6299 0.765625C66.2238 0.927279 71.0004 0.759287 75.7402 0.625977Z" fill="#01B0BF" stroke="white"/>
<path d="M97.1172 102.042C100.479 101.952 103.317 102.875 105.198 104.556C107.103 106.258 108.083 108.783 107.598 111.989V111.99C107.391 113.362 106.572 114.309 105.231 115.014C102.093 116.664 98.1878 118.01 94.1885 119.317C90.2483 120.604 86.2133 121.855 82.8154 123.312C78.3338 123.107 73.71 123.247 69.1201 123.37C64.4834 123.494 59.8797 123.601 55.4473 123.33C48.4902 122.902 42.0874 119.861 35.5742 116.76C29.0951 113.676 22.5058 110.531 15.2998 110.078C13.2312 109.948 10.8314 110.081 8.51465 110.175C6.17673 110.27 3.92291 110.326 2.07422 110.062C0.040083 109.77 -0.0219577 107.142 1.88379 106.706L2.07422 106.67C3.80417 106.422 6.89941 106.38 10.0537 106.461C13.1991 106.542 16.3539 106.744 18.1865 106.97C23.3645 107.612 28.1359 109.497 32.8457 111.665C37.5339 113.822 42.1974 116.281 47.0576 117.994C52.4111 119.881 58.3943 120.148 64.3896 120.056C70.4183 119.963 76.4238 119.509 81.9736 119.91L82.082 119.918L82.1846 119.88L103.63 111.882L103.936 111.769L103.954 111.443C104.046 109.871 103.743 108.641 103.101 107.716C102.458 106.79 101.516 106.227 100.444 105.91C98.5956 105.362 96.2657 105.518 94.0908 105.867L93.1709 106.027C91.9098 106.259 89.9514 106.926 88.1621 107.428C87.2484 107.685 86.364 107.904 85.5889 108.024C84.898 108.131 84.342 108.151 83.9434 108.077L83.7822 108.039C82.6571 107.715 82.3665 106.218 83.2334 105.414H83.2344C83.3464 105.309 83.5952 105.16 84.0088 104.979C84.4082 104.805 84.9162 104.62 85.5059 104.431C86.6848 104.054 88.1579 103.672 89.666 103.325C92.6978 102.627 95.7992 102.094 96.9092 102.05L97.1172 102.042Z" fill="#01B0BF" stroke="white"/>
<path d="M69.5762 11.5581C69.9463 11.2802 70.3836 11.1418 70.9346 11.2212L99.082 21.8462C99.6952 22.1307 100.101 22.6131 100.244 23.1099C100.383 23.5923 100.287 24.1237 99.8213 24.5864L99.7324 24.6733C99.1941 25.1211 98.2424 25.2273 97.4893 24.9302L97.4844 24.9282L72.793 15.4839H72.792C72.65 15.4268 72.4917 15.4045 72.3291 15.439C72.1628 15.4742 72.0334 15.5599 71.9385 15.6509C71.7622 15.8199 71.6618 16.0495 71.6016 16.2251C71.4755 16.5926 71.4294 17.0139 71.418 17.1704C71.2402 19.5844 72.2886 21.5438 73.9912 23.1499C75.6815 24.7442 78.0421 26.0184 80.5771 27.1011C83.1167 28.1856 85.8775 29.0959 88.3818 29.9429C90.8376 30.7734 93.0268 31.5376 94.584 32.3462C98.4175 39.1696 105.216 42.7727 113.745 42.3726C115.5 42.2898 117.119 41.8586 118.614 41.4272C120.129 40.9903 121.49 40.5621 122.815 40.4282C125.877 40.1194 129.242 40.2363 132.663 40.3735C136.051 40.5095 139.497 40.6655 142.687 40.4292C143.934 40.5575 144.492 41.375 144.501 42.1265C144.51 42.8761 143.973 43.7142 142.648 43.855H142.647C139.725 44.1669 136.417 43.997 133.06 43.8325C129.723 43.669 126.338 43.5108 123.337 43.8716L123.336 43.8726C122.655 43.9554 121.908 44.1958 121.202 44.4321C120.475 44.6754 119.783 44.9165 119.143 45.0464H119.142C110.084 46.9061 100.64 45.2499 94.6133 38.6187L94.6123 38.6177C94.2537 38.2234 93.8005 37.5413 93.3154 36.8384C93.08 36.4972 92.8406 36.1561 92.6133 35.8667C92.3931 35.5864 92.1556 35.316 91.9229 35.146L91.6787 34.98C91.0712 34.5906 90.1993 34.1874 89.21 33.7866C88.0669 33.3235 86.7223 32.8455 85.3564 32.3774C82.6042 31.4342 79.791 30.54 78.2256 29.8608C75.107 28.5073 72.2583 26.8263 70.292 24.6489C68.341 22.4884 67.2522 19.8336 67.6406 16.4702C67.7487 15.5343 68.0089 14.0661 68.5674 12.9028C68.8461 12.3223 69.182 11.8541 69.5762 11.5581Z" fill="#01B0BF" stroke="white"/>
<path d="M27.2627 78.6255C35.6584 77.2086 44.5085 79.1873 50.1035 85.105L50.3672 85.3892C50.7162 85.7741 51.1777 86.4658 51.6699 87.1763C51.9087 87.521 52.1517 87.8648 52.3789 88.1538C52.5972 88.4315 52.8339 88.7018 53.0625 88.8647V88.8657C53.6648 89.2936 54.6209 89.7391 55.7217 90.1821C56.8336 90.6297 58.1349 91.0911 59.4561 91.5415C62.1188 92.4492 64.8337 93.3067 66.3584 93.9604L66.3594 93.9614C69.9439 95.4939 73.0258 97.3191 75.0039 99.7065C76.9596 102.067 77.8616 105.007 77.04 108.866C76.8412 109.802 76.6039 110.898 76.1191 111.719C75.8818 112.121 75.6002 112.43 75.2617 112.622C74.9402 112.804 74.5324 112.899 73.9912 112.833L45.1289 101.613C44.6114 101.034 44.6461 100.325 45.0293 99.7603C45.4321 99.1667 46.1991 98.7772 47.0635 98.9741L72.1982 108.401L72.1543 108.588H72.79L72.876 108.109L73.2725 108.203C73.9721 105.223 73.1016 102.968 71.4219 101.208C69.7731 99.4818 67.3517 98.2375 64.9463 97.1851C62.5723 96.1464 60.0677 95.2486 57.5752 94.3618C55.1317 93.4924 52.7008 92.6329 50.3838 91.6548C45.6842 83.2387 36.6732 80.1971 26.7314 82.2954C25.9477 82.4606 25.1064 82.7631 24.3311 83.0249C23.6327 83.2607 22.9853 83.4643 22.4072 83.5552L22.1641 83.5874C19.1025 83.8962 15.7385 83.7793 12.3174 83.6421C8.92521 83.506 5.47564 83.35 2.2832 83.5874C1.12048 83.5205 0.548465 82.7399 0.50293 81.9546C0.460133 81.2136 0.882669 80.4433 1.86816 80.2163L2.07227 80.1782C4.84265 79.7836 8.14916 79.9233 11.5439 80.0942C14.9143 80.2639 18.3717 80.4642 21.3604 80.1646L21.3594 80.1636C22.3045 80.0698 23.3414 79.7513 24.3389 79.4331C25.231 79.1485 26.0975 78.8634 26.915 78.6919L27.2627 78.6255Z" fill="#01B0BF" stroke="white"/>
<path d="M33.5322 33.8569C34.0983 33.7917 34.6916 34.0163 35.127 34.4126C35.5386 34.7874 35.7503 35.2618 35.7178 35.7026C34.9002 37.0777 33.9757 38.3858 33.0537 39.7339C32.2328 40.9342 31.4178 42.1614 30.7158 43.4644L30.4229 44.0278C27.3057 50.2017 25.687 57.561 26.1035 64.3843C26.1703 65.4844 26.4857 66.9252 26.7266 68.2495C26.9765 69.6238 27.1437 70.8624 26.9941 71.7017V71.7026C26.8586 72.4654 26.1753 72.91 25.3213 72.9009C24.5267 72.8923 23.7237 72.4788 23.3594 71.6704L23.293 71.5034C22.3882 68.9305 22.1123 65.3203 22.2402 61.6392C22.3678 57.9683 22.8943 54.2831 23.5557 51.5884C24.1325 49.237 25.3961 45.8202 26.9805 42.5513C28.5703 39.2712 30.4516 36.2072 32.2422 34.5142L32.2432 34.5132C32.6413 34.1342 33.0145 33.9178 33.5332 33.8579L33.5322 33.8569Z" fill="#01B0BF" stroke="white"/>
<path d="M119.561 51.2539C120.439 51.1769 121.257 51.6955 121.577 52.4014V52.4023C121.701 52.6746 121.834 53.1295 121.964 53.7139C122.091 54.2889 122.209 54.9585 122.312 55.6406C122.52 57.0064 122.667 58.3997 122.716 59.1484V59.1494C123.31 68.0801 120.821 77.4074 115.903 85.1035C115.283 86.0755 114.374 87.7099 113.255 88.8965C112.698 89.4867 112.132 89.9185 111.575 90.1064C111.113 90.2623 110.638 90.2582 110.132 89.9951L109.913 89.8662C109.386 89.5201 109.227 89.1559 109.219 88.7939C109.21 88.387 109.389 87.8961 109.724 87.334C110.053 86.7803 110.497 86.218 110.941 85.6729C111.372 85.1443 111.822 84.6114 112.109 84.1641C116.853 76.7798 119.417 68.3114 118.887 59.6357V59.6348C118.855 59.1291 118.732 58.4213 118.596 57.6621C118.456 56.8885 118.299 56.0386 118.187 55.21C118.073 54.3785 118.009 53.5958 118.048 52.957C118.089 52.2902 118.235 51.9083 118.417 51.7393L118.418 51.7383C118.521 51.6415 118.712 51.5243 118.946 51.4248C119.179 51.3261 119.405 51.2663 119.561 51.2539Z" fill="#01B0BF" stroke="white"/>
<path d="M41.3086 26.9917C42.0929 26.9539 42.5957 27.2013 42.8975 27.5308C43.2076 27.8693 43.3559 28.3492 43.3193 28.8569C43.2466 29.8664 42.4618 30.8695 41.0049 30.8003C40.342 30.7685 39.913 30.5156 39.6523 30.1919C39.3844 29.8591 39.2591 29.4077 39.2949 28.9321C39.3667 27.979 40.0654 27.0515 41.3086 26.9917Z" fill="#01B0BF" stroke="white"/>
<path d="M102.581 94.085C103.364 93.3726 104.63 93.1361 105.589 93.9365C106.051 94.3234 106.194 94.7446 106.17 95.1309C106.145 95.5371 105.931 95.9666 105.565 96.3203C104.876 96.9882 103.794 97.266 102.855 96.668L102.67 96.5361C102.113 96.1007 101.947 95.6503 101.962 95.2666C101.977 94.8623 102.195 94.4359 102.581 94.085Z" fill="#01B0BF" stroke="white"/>
<path d="M76.8203 44.8486V56.0781C76.8204 56.2564 76.8995 56.4066 76.9434 56.4834C76.9981 56.5792 77.0684 56.6764 77.1416 56.7666C77.2891 56.9485 77.4814 57.1464 77.6787 57.3271C77.8763 57.5082 78.0916 57.6841 78.2891 57.8184C78.3872 57.8851 78.4903 57.9481 78.5908 57.9961C78.6768 58.0372 78.8202 58.0967 78.9805 58.0967H91.3145V65.9277H78.9805C78.8202 65.9278 78.6769 65.9876 78.5918 66.0283C78.492 66.0761 78.3898 66.1387 78.292 66.2051C78.0949 66.3389 77.8786 66.5145 77.6807 66.6953C77.483 66.8759 77.2896 67.0736 77.1416 67.2559C77.0683 67.3461 76.9982 67.4429 76.9434 67.5391C76.899 67.6169 76.8203 67.7679 76.8203 67.9463V79.1748H68.1582V67.9463C68.1582 67.7677 68.0792 67.6169 68.0352 67.54C67.9803 67.4442 67.9093 67.347 67.8359 67.2568C67.6881 67.075 67.4954 66.877 67.2979 66.6963C67.1001 66.5154 66.8845 66.3401 66.6875 66.2061C66.5896 66.1394 66.4867 66.0763 66.3867 66.0283C66.3017 65.9876 66.1585 65.9278 65.998 65.9277H53.6641V58.0967H65.998C66.158 58.0966 66.3007 58.0367 66.3857 57.9961C66.4857 57.9483 66.5886 57.8858 66.6865 57.8193C66.8836 57.6856 67.099 57.5099 67.2969 57.3291C67.4945 57.1486 67.6879 56.9508 67.8359 56.7686C67.9094 56.6781 67.9802 56.5807 68.0352 56.4844C68.0795 56.4066 68.1581 56.2562 68.1582 56.0781V44.8486H76.8203Z" fill="#01B0BF" stroke="white"/>
</g>
<path d="M183.788 74.932C181.268 74.932 179.096 74.392 177.272 73.312C175.472 72.208 174.08 70.684 173.096 68.74C172.136 66.772 171.656 64.504 171.656 61.936C171.656 59.368 172.136 57.1 173.096 55.132C174.08 53.164 175.472 51.628 177.272 50.524C179.096 49.42 181.268 48.868 183.788 48.868C186.836 48.868 189.332 49.624 191.276 51.136C193.22 52.648 194.432 54.784 194.912 57.544H189.62C189.308 56.2 188.648 55.156 187.64 54.412C186.656 53.644 185.36 53.26 183.752 53.26C182.264 53.26 180.98 53.62 179.9 54.34C178.844 55.036 178.028 56.032 177.452 57.328C176.876 58.6 176.588 60.136 176.588 61.936C176.588 63.712 176.876 65.248 177.452 66.544C178.028 67.84 178.844 68.836 179.9 69.532C180.98 70.228 182.264 70.576 183.752 70.576C185.36 70.576 186.656 70.228 187.64 69.532C188.624 68.812 189.272 67.816 189.584 66.544H194.912C194.432 69.16 193.22 71.212 191.276 72.7C189.332 74.188 186.836 74.932 183.788 74.932ZM205.074 74.932C203.562 74.932 202.314 74.692 201.33 74.212C200.346 73.708 199.614 73.048 199.134 72.232C198.678 71.392 198.45 70.468 198.45 69.46C198.45 68.356 198.726 67.384 199.278 66.544C199.854 65.704 200.706 65.044 201.834 64.564C202.986 64.084 204.426 63.844 206.154 63.844H210.654C210.654 62.956 210.534 62.224 210.294 61.648C210.054 61.048 209.682 60.604 209.178 60.316C208.674 60.028 208.002 59.884 207.162 59.884C206.25 59.884 205.47 60.088 204.822 60.496C204.198 60.88 203.814 61.48 203.67 62.296H198.954C199.074 61 199.494 59.884 200.214 58.948C200.958 57.988 201.93 57.244 203.13 56.716C204.354 56.188 205.71 55.924 207.198 55.924C208.902 55.924 210.378 56.212 211.626 56.788C212.874 57.364 213.834 58.192 214.506 59.272C215.178 60.352 215.514 61.684 215.514 63.268V74.5H211.41L210.87 71.728C210.606 72.208 210.294 72.64 209.934 73.024C209.574 73.408 209.154 73.744 208.674 74.032C208.194 74.32 207.654 74.536 207.054 74.68C206.454 74.848 205.794 74.932 205.074 74.932ZM206.226 71.188C206.85 71.188 207.402 71.08 207.882 70.864C208.386 70.624 208.818 70.312 209.178 69.928C209.538 69.52 209.814 69.064 210.006 68.56C210.222 68.032 210.366 67.468 210.438 66.868V66.832H206.73C205.986 66.832 205.374 66.928 204.894 67.12C204.438 67.288 204.102 67.54 203.886 67.876C203.67 68.212 203.562 68.596 203.562 69.028C203.562 69.508 203.67 69.904 203.886 70.216C204.102 70.528 204.414 70.768 204.822 70.936C205.23 71.104 205.698 71.188 206.226 71.188ZM220.048 74.5V56.356H224.368L224.836 59.704C225.268 58.912 225.808 58.24 226.456 57.688C227.128 57.136 227.884 56.704 228.724 56.392C229.588 56.08 230.536 55.924 231.568 55.924V61.072H229.912C229.192 61.072 228.52 61.156 227.896 61.324C227.296 61.492 226.768 61.768 226.312 62.152C225.856 62.512 225.508 63.016 225.268 63.664C225.028 64.312 224.908 65.128 224.908 66.112V74.5H220.048ZM243.209 74.932C241.385 74.932 239.765 74.548 238.349 73.78C236.957 72.988 235.865 71.896 235.073 70.504C234.305 69.088 233.921 67.456 233.921 65.608C233.921 63.712 234.305 62.044 235.073 60.604C235.865 59.14 236.957 58 238.349 57.184C239.741 56.344 241.361 55.924 243.209 55.924C245.009 55.924 246.581 56.32 247.925 57.112C249.269 57.904 250.313 58.972 251.057 60.316C251.801 61.66 252.173 63.184 252.173 64.888C252.173 65.128 252.173 65.404 252.173 65.716C252.173 66.004 252.149 66.304 252.101 66.616H237.377V63.664H247.277C247.205 62.488 246.785 61.564 246.017 60.892C245.273 60.22 244.337 59.884 243.209 59.884C242.393 59.884 241.637 60.076 240.941 60.46C240.245 60.82 239.693 61.384 239.285 62.152C238.901 62.92 238.709 63.892 238.709 65.068V66.112C238.709 67.096 238.889 67.96 239.249 68.704C239.633 69.424 240.161 69.988 240.833 70.396C241.505 70.78 242.285 70.972 243.173 70.972C244.061 70.972 244.793 70.78 245.369 70.396C245.969 70.012 246.413 69.52 246.701 68.92H251.669C251.333 70.048 250.769 71.068 249.977 71.98C249.185 72.892 248.213 73.612 247.061 74.14C245.909 74.668 244.625 74.932 243.209 74.932ZM262.129 74.5V53.224H254.749V49.3H274.297V53.224H266.953V74.5H262.129ZM282.967 74.932C281.239 74.932 279.679 74.536 278.287 73.744C276.919 72.928 275.827 71.812 275.011 70.396C274.219 68.956 273.823 67.312 273.823 65.464C273.823 63.568 274.219 61.912 275.011 60.496C275.827 59.056 276.931 57.94 278.323 57.148C279.715 56.332 281.275 55.924 283.003 55.924C284.755 55.924 286.315 56.332 287.683 57.148C289.075 57.94 290.167 59.056 290.959 60.496C291.775 61.912 292.183 63.556 292.183 65.428C292.183 67.3 291.775 68.956 290.959 70.396C290.167 71.812 289.075 72.928 287.683 73.744C286.291 74.536 284.719 74.932 282.967 74.932ZM282.967 70.72C283.783 70.72 284.503 70.528 285.127 70.144C285.775 69.76 286.279 69.172 286.639 68.38C287.023 67.588 287.215 66.604 287.215 65.428C287.215 64.252 287.023 63.28 286.639 62.512C286.279 61.72 285.775 61.132 285.127 60.748C284.503 60.34 283.795 60.136 283.003 60.136C282.235 60.136 281.527 60.34 280.879 60.748C280.231 61.132 279.715 61.72 279.331 62.512C278.971 63.28 278.791 64.252 278.791 65.428C278.791 66.604 278.971 67.588 279.331 68.38C279.715 69.172 280.219 69.76 280.843 70.144C281.491 70.528 282.199 70.72 282.967 70.72ZM303.024 82.852C301.296 82.852 299.784 82.636 298.488 82.204C297.192 81.796 296.184 81.16 295.464 80.296C294.768 79.456 294.42 78.412 294.42 77.164C294.42 76.324 294.636 75.532 295.068 74.788C295.5 74.044 296.124 73.372 296.94 72.772C297.78 72.148 298.824 71.62 300.072 71.188L301.908 73.564C300.804 73.924 300 74.368 299.496 74.896C299.016 75.448 298.776 76.036 298.776 76.66C298.776 77.212 298.956 77.68 299.316 78.064C299.7 78.448 300.204 78.724 300.828 78.892C301.476 79.084 302.196 79.18 302.988 79.18C303.756 79.18 304.416 79.084 304.968 78.892C305.544 78.7 305.988 78.412 306.3 78.028C306.636 77.668 306.804 77.236 306.804 76.732C306.804 76.084 306.576 75.556 306.12 75.148C305.664 74.74 304.752 74.488 303.384 74.392C302.16 74.296 301.068 74.164 300.108 73.996C299.172 73.804 298.344 73.588 297.624 73.348C296.904 73.084 296.292 72.796 295.788 72.484C295.308 72.172 294.912 71.86 294.6 71.548V70.72L298.452 66.58L301.944 67.696L297.408 72.16L298.776 69.784C299.04 69.928 299.292 70.072 299.532 70.216C299.796 70.336 300.12 70.456 300.504 70.576C300.888 70.672 301.392 70.768 302.016 70.864C302.64 70.96 303.432 71.044 304.392 71.116C305.976 71.26 307.272 71.56 308.28 72.016C309.312 72.472 310.068 73.084 310.548 73.852C311.028 74.596 311.268 75.52 311.268 76.624C311.268 77.704 310.968 78.712 310.368 79.648C309.792 80.608 308.892 81.376 307.668 81.952C306.444 82.552 304.896 82.852 303.024 82.852ZM303.024 69.136C301.512 69.136 300.204 68.848 299.1 68.272C298.02 67.672 297.18 66.88 296.58 65.896C296.004 64.888 295.716 63.772 295.716 62.548C295.716 61.324 296.004 60.22 296.58 59.236C297.18 58.228 298.02 57.424 299.1 56.824C300.204 56.224 301.512 55.924 303.024 55.924C304.56 55.924 305.868 56.224 306.948 56.824C308.052 57.424 308.892 58.228 309.468 59.236C310.044 60.22 310.332 61.324 310.332 62.548C310.332 63.772 310.044 64.888 309.468 65.896C308.892 66.88 308.052 67.672 306.948 68.272C305.868 68.848 304.56 69.136 303.024 69.136ZM303.024 65.428C303.96 65.428 304.716 65.188 305.292 64.708C305.868 64.228 306.156 63.52 306.156 62.584C306.156 61.648 305.868 60.94 305.292 60.46C304.716 59.956 303.96 59.704 303.024 59.704C302.112 59.704 301.356 59.956 300.756 60.46C300.18 60.94 299.892 61.648 299.892 62.584C299.892 63.52 300.18 64.228 300.756 64.708C301.356 65.188 302.112 65.428 303.024 65.428ZM306.048 59.812L305.256 56.356H312.708V59.236L306.048 59.812ZM324.666 74.932C322.842 74.932 321.222 74.548 319.806 73.78C318.414 72.988 317.322 71.896 316.53 70.504C315.762 69.088 315.378 67.456 315.378 65.608C315.378 63.712 315.762 62.044 316.53 60.604C317.322 59.14 318.414 58 319.806 57.184C321.198 56.344 322.818 55.924 324.666 55.924C326.466 55.924 328.038 56.32 329.382 57.112C330.726 57.904 331.77 58.972 332.514 60.316C333.258 61.66 333.63 63.184 333.63 64.888C333.63 65.128 333.63 65.404 333.63 65.716C333.63 66.004 333.606 66.304 333.558 66.616H318.834V63.664H328.734C328.662 62.488 328.242 61.564 327.474 60.892C326.73 60.22 325.794 59.884 324.666 59.884C323.85 59.884 323.094 60.076 322.398 60.46C321.702 60.82 321.15 61.384 320.742 62.152C320.358 62.92 320.166 63.892 320.166 65.068V66.112C320.166 67.096 320.346 67.96 320.706 68.704C321.09 69.424 321.618 69.988 322.29 70.396C322.962 70.78 323.742 70.972 324.63 70.972C325.518 70.972 326.25 70.78 326.826 70.396C327.426 70.012 327.87 69.52 328.158 68.92H333.126C332.79 70.048 332.226 71.068 331.434 71.98C330.642 72.892 329.67 73.612 328.518 74.14C327.366 74.668 326.082 74.932 324.666 74.932ZM345.536 74.5C344.264 74.5 343.148 74.308 342.188 73.924C341.252 73.516 340.52 72.856 339.992 71.944C339.464 71.008 339.2 69.736 339.2 68.128V60.424H336.104V56.356H339.2L339.74 51.424H344.06V56.356H348.848V60.424H344.06V68.2C344.06 69.016 344.24 69.58 344.6 69.892C344.96 70.204 345.572 70.36 346.436 70.36H348.812V74.5H345.536ZM352.938 74.5V48.58H357.799V59.056C358.399 58.096 359.191 57.34 360.175 56.788C361.183 56.212 362.347 55.924 363.667 55.924C365.179 55.924 366.451 56.248 367.483 56.896C368.515 57.52 369.295 58.432 369.823 59.632C370.351 60.832 370.615 62.32 370.615 64.096V74.5H365.791V64.528C365.791 63.088 365.491 61.984 364.891 61.216C364.291 60.424 363.343 60.028 362.047 60.028C361.255 60.028 360.535 60.22 359.887 60.604C359.239 60.988 358.723 61.552 358.339 62.296C357.979 63.016 357.799 63.88 357.799 64.888V74.5H352.938ZM383.904 74.932C382.08 74.932 380.46 74.548 379.044 73.78C377.652 72.988 376.56 71.896 375.768 70.504C375 69.088 374.616 67.456 374.616 65.608C374.616 63.712 375 62.044 375.768 60.604C376.56 59.14 377.652 58 379.044 57.184C380.436 56.344 382.056 55.924 383.904 55.924C385.704 55.924 387.276 56.32 388.62 57.112C389.964 57.904 391.008 58.972 391.752 60.316C392.496 61.66 392.868 63.184 392.868 64.888C392.868 65.128 392.868 65.404 392.868 65.716C392.868 66.004 392.844 66.304 392.796 66.616H378.072V63.664H387.972C387.9 62.488 387.48 61.564 386.712 60.892C385.968 60.22 385.032 59.884 383.904 59.884C383.088 59.884 382.332 60.076 381.636 60.46C380.94 60.82 380.388 61.384 379.98 62.152C379.596 62.92 379.404 63.892 379.404 65.068V66.112C379.404 67.096 379.584 67.96 379.944 68.704C380.328 69.424 380.856 69.988 381.528 70.396C382.2 70.78 382.98 70.972 383.868 70.972C384.756 70.972 385.488 70.78 386.064 70.396C386.664 70.012 387.108 69.52 387.396 68.92H392.364C392.028 70.048 391.464 71.068 390.672 71.98C389.88 72.892 388.908 73.612 387.756 74.14C386.604 74.668 385.32 74.932 383.904 74.932ZM396.849 74.5V56.356H401.169L401.637 59.704C402.069 58.912 402.609 58.24 403.257 57.688C403.929 57.136 404.685 56.704 405.525 56.392C406.389 56.08 407.337 55.924 408.369 55.924V61.072H406.713C405.993 61.072 405.321 61.156 404.697 61.324C404.097 61.492 403.569 61.768 403.113 62.152C402.657 62.512 402.309 63.016 402.069 63.664C401.829 64.312 401.709 65.128 401.709 66.112V74.5H396.849Z" fill="#1E3A8A"/>
<defs>
<clipPath id="clip0_75_870">
<rect width="145" height="124" fill="white"/>
</clipPath>
</defs>
</svg>
