<svg width="336" height="80" viewBox="0 0 336 80" fill="none" xmlns="http://www.w3.org/2000/svg">
<g clip-path="url(#clip0_308_7532)">
<path d="M46.8408 26.2346C48.4755 26.1766 50.0725 26.129 51.5586 26.2522H51.5596C51.7808 26.2706 52.1331 26.3563 52.418 26.4954C52.5597 26.5646 52.6578 26.634 52.7139 26.6926C52.7409 26.7209 52.7514 26.7384 52.7549 26.7463V34.8088H61.5752C61.6219 34.8091 61.7508 34.854 61.9111 35.1252C62.0215 35.3122 62.0984 35.5312 62.1377 35.7063L62.1641 35.8635C62.2972 37.2053 62.2464 38.6491 62.1826 40.137C62.1197 41.6059 62.0444 43.1206 62.1406 44.554C62.137 44.5645 62.1285 44.5892 62.1055 44.6292C62.0576 44.7123 61.9793 44.8144 61.8818 44.9163C61.7848 45.0175 61.6832 45.1041 61.5996 45.1604C61.5673 45.1822 61.542 45.1951 61.5254 45.2034H52.7549V53.2668C52.7561 53.2518 52.7637 53.2684 52.7139 53.3206C52.6578 53.3791 52.5596 53.4487 52.418 53.5178C52.1332 53.6568 51.7807 53.7416 51.5596 53.76C50.0732 53.882 48.4765 53.8346 46.8418 53.7766C45.2182 53.719 43.5541 53.6511 41.9814 53.7415H41.9688C41.9619 53.7396 41.9233 53.7325 41.8477 53.6965C41.7496 53.6498 41.6344 53.5763 41.5225 53.4875C41.4101 53.3985 41.3166 53.3063 41.2568 53.2327C41.2435 53.2163 41.235 53.2015 41.2275 53.1907V45.2034H32.4072C32.3606 45.2032 32.2318 45.1596 32.0713 44.8879C31.9609 44.701 31.8841 44.482 31.8447 44.3069L31.8184 44.1487C31.6853 42.807 31.7361 41.3629 31.7998 39.8752C31.8628 38.4055 31.9373 36.8903 31.8408 35.4563C31.845 35.4449 31.8552 35.4208 31.877 35.3831C31.9249 35.2999 32.0031 35.1977 32.1006 35.0959C32.1976 34.9947 32.2992 34.9091 32.3828 34.8528C32.4165 34.8301 32.4424 34.817 32.459 34.8088H41.2275V26.8215C41.235 26.811 41.244 26.7972 41.2568 26.7815C41.3168 26.708 41.4098 26.6157 41.5225 26.5266C41.6349 26.4377 41.751 26.3637 41.8496 26.3167C41.941 26.2731 41.9783 26.2715 41.9717 26.2708L41.9824 26.2717C43.5535 26.3608 45.2171 26.2922 46.8408 26.2346ZM43.3594 36.0715C43.3525 36.0806 43.3456 36.0919 43.3359 36.1038C43.2729 36.181 43.1782 36.2789 43.0703 36.3772C42.9626 36.4753 42.8543 36.5626 42.7676 36.6213C42.7417 36.6389 42.7198 36.6504 42.7041 36.6594H33.9629V43.3567H42.7061C42.7215 43.3656 42.7425 43.3769 42.7676 43.3938C42.8542 43.4523 42.9626 43.5391 43.0703 43.637C43.1783 43.7351 43.273 43.8333 43.3359 43.9104C43.3454 43.922 43.3526 43.9328 43.3594 43.9417V51.9036H50.623V43.9426C50.6298 43.9338 50.6371 43.9228 50.6465 43.9114C50.7096 43.8341 50.8042 43.7362 50.9121 43.6379C51.0199 43.5398 51.1281 43.4525 51.2148 43.3938C51.2398 43.3769 51.2609 43.3657 51.2764 43.3567H60.0195V36.6594H51.2764C51.2607 36.6504 51.2389 36.6389 51.2129 36.6213C51.1264 36.5629 51.0185 36.476 50.9111 36.3782C50.8035 36.2802 50.7092 36.1828 50.6465 36.1057C50.6369 36.0939 50.6299 36.0825 50.623 36.0735V28.1116H43.3594V36.0715Z" fill="#01B0BF" stroke="white"/>
<path d="M49.1074 0.581299C52.2098 0.494464 55.2822 0.430936 58.2139 0.627197C62.6399 0.924534 66.7245 2.86852 70.9238 4.8645C75.0896 6.84453 79.3687 8.87537 84.0605 9.16919C85.4115 9.2535 86.9797 9.16747 88.4766 9.10669C89.9951 9.04504 91.4414 9.00929 92.6201 9.17798V9.17896C93.7804 9.34429 93.7776 10.8515 92.6211 11.0149C91.514 11.1717 89.5209 11.1998 87.4766 11.1477C85.4405 11.0958 83.4011 10.9657 82.2197 10.8206C78.8977 10.4109 75.816 9.19995 72.7607 7.80005C69.7271 6.41004 66.684 4.81501 63.54 3.71802C60.0299 2.49408 56.1295 2.32016 52.2432 2.37817C48.324 2.43669 44.4556 2.72715 40.8604 2.47192L40.752 2.46411L40.6504 2.5022L26.748 7.66138L26.4395 7.77661L26.4229 8.10474C26.3625 9.26632 26.6217 10.1675 27.1689 10.8225C27.7124 11.4728 28.4828 11.8116 29.3076 11.968C30.9322 12.276 32.9703 11.9115 34.5752 11.5637C34.9607 11.4801 35.4498 11.3225 35.9531 11.1594C36.4677 10.9926 37.0144 10.8149 37.5488 10.6731C38.0862 10.5305 38.5854 10.432 39.0029 10.4163C39.4326 10.4 39.6906 10.4745 39.8291 10.5833C40.1282 10.8186 40.2408 10.9983 40.2773 11.1086C40.3061 11.1957 40.3002 11.2739 40.2393 11.3782C40.1679 11.5001 40.0237 11.6484 39.7832 11.8118C39.547 11.9722 39.2467 12.1283 38.9014 12.2766C37.5049 12.8761 35.6005 13.258 34.917 13.4026C33.2267 13.7595 31.3289 14.0631 29.5879 13.9163C27.8554 13.77 26.3356 13.1841 25.3096 11.8147C24.8085 11.1462 24.426 10.0849 24.3496 9.0188C24.2726 7.94378 24.5128 6.98821 25.0977 6.42505L25.1143 6.40845C25.2827 6.25359 25.5674 6.09399 25.9326 5.93286C26.3188 5.76248 26.673 5.63769 27.0293 5.49048C29.1493 4.61392 31.3308 3.83737 33.5273 3.05981C35.6866 2.29549 37.8611 1.52905 39.9854 0.672119C42.9591 0.774489 46.0496 0.666887 49.1074 0.581299Z" fill="#01B0BF" stroke="white"/>
<path d="M62.9795 66.0104C65.1199 65.9569 66.9059 66.5434 68.0811 67.5885C69.1935 68.5779 69.8063 70.017 69.626 71.8522L69.5791 72.2242C69.4558 73.0389 68.9718 73.608 68.1377 74.0446C66.1176 75.1014 63.5997 75.9657 61.0059 76.8092C58.4705 77.6336 55.8597 78.4403 53.6553 79.3776C50.7548 79.2478 47.7639 79.3368 44.8037 79.4156C41.7972 79.4958 38.8205 79.5649 35.9561 79.3903C31.4853 79.1168 27.365 77.1719 23.1367 75.1686C18.9423 73.1813 14.6403 71.1356 9.92969 70.8405C8.57729 70.7561 7.00929 70.8425 5.5127 70.903C4.18445 70.9566 2.91152 70.9901 1.82324 70.8854L1.36914 70.8317C0.245114 70.6711 0.212759 69.2529 1.26367 69.0143L1.36914 68.9948C2.47442 68.8368 4.46766 68.8095 6.5127 68.8619C8.54906 68.9141 10.5884 69.044 11.7686 69.1891C15.098 69.6 18.1716 70.8061 21.2207 72.2028C24.2482 73.5895 27.2874 75.1842 30.4482 76.2926C33.9495 77.5208 37.8542 77.693 41.7441 77.6334C45.6674 77.5733 49.5408 77.2809 53.1289 77.5387L53.2373 77.5455L53.3389 77.5084L67.2412 72.3483L67.5479 72.235L67.5664 71.9088C67.6275 70.8663 67.4265 70.0304 66.9814 69.3922C66.5359 68.7533 65.8868 68.3707 65.165 68.1578C63.7521 67.7412 61.9386 67.9394 60.3691 68.2291C59.5417 68.3809 58.249 68.8179 57.1064 69.1373C56.5163 69.3023 55.9511 69.4414 55.459 69.5172C54.9528 69.5952 54.5864 69.5954 54.3623 69.5319C53.8194 69.3769 53.6263 68.6738 53.9961 68.2252L54.0771 68.1393C54.1265 68.0937 54.2646 68.0067 54.5303 67.8912C54.7817 67.782 55.1051 67.6652 55.4844 67.5446C56.2423 67.3035 57.1918 67.0569 58.167 66.8336C60.1325 66.3836 62.1282 66.0439 62.8301 66.0162L62.9795 66.0104Z" fill="#01B0BF" stroke="white"/>
<path d="M45.2109 7.6001C45.4111 7.45055 45.6428 7.37385 45.9434 7.4126L64.166 14.2583C64.5203 14.4235 64.7422 14.696 64.8184 14.9595C64.8901 15.2078 64.8463 15.4831 64.5908 15.7358L64.5479 15.7778C64.2604 16.0188 63.7129 16.094 63.2656 15.9185L63.2607 15.9165L47.2539 9.82373H47.2529C47.134 9.7767 46.997 9.75658 46.8545 9.78662C46.7081 9.81753 46.596 9.89253 46.5166 9.96826C46.3711 10.1071 46.2948 10.2883 46.2529 10.4097C46.2083 10.5392 46.178 10.6763 46.1582 10.7944L46.125 11.064C46.0046 12.6898 46.7177 14.0032 47.8486 15.0649C48.9672 16.115 50.5204 16.9469 52.1699 17.6479C53.8237 18.3508 55.6204 18.9413 57.2412 19.4868C58.8139 20.0161 60.2013 20.4995 61.1934 21.0054C63.7195 25.4395 68.1802 27.7741 73.748 27.5142C74.9075 27.4597 75.9739 27.1765 76.9443 26.8979C77.9343 26.6137 78.798 26.3436 79.6377 26.2593C81.6084 26.0615 83.7772 26.1365 85.9971 26.2251C88.1836 26.3124 90.4209 26.4125 92.4951 26.2612C93.2143 26.3391 93.4971 26.7952 93.502 27.1802C93.5066 27.5623 93.2371 28.0353 92.459 28.1177H92.458C90.5794 28.3172 88.4496 28.2084 86.2695 28.1021C84.11 27.9967 81.8999 27.8936 79.9375 28.1284H79.9365C79.475 28.1843 78.9748 28.3459 78.5195 28.4976C78.0432 28.6562 77.6065 28.807 77.2041 28.8882H77.2031C71.3683 30.0805 65.317 29.0119 61.4658 24.7944C61.2438 24.5515 60.9595 24.1259 60.6396 23.6646C60.4869 23.4443 60.3287 23.2201 60.1777 23.0288C60.0339 22.8466 59.868 22.6556 59.6963 22.5308H59.6953C59.2844 22.2328 58.6326 21.9289 57.8994 21.6333C57.1538 21.3327 56.2786 21.0234 55.3926 20.7212C53.5998 20.1097 51.7886 19.5366 50.7822 19.1021C48.77 18.2329 46.9493 17.1604 45.6992 15.7827C44.4647 14.4221 43.7812 12.7595 44.0264 10.647C44.0957 10.0492 44.2613 9.12531 44.6104 8.40186C44.7842 8.04155 44.9867 7.76775 45.2109 7.6001Z" fill="#01B0BF" stroke="white"/>
<path d="M17.7021 50.9C23.1909 49.9781 28.9577 51.3058 32.5225 55.2096C32.7385 55.4468 33.028 55.8791 33.3525 56.3453C33.5074 56.5678 33.6676 56.7931 33.8184 56.984C33.9604 57.1638 34.1272 57.3561 34.2979 57.4772L34.2988 57.4781C34.7077 57.7671 35.3437 58.0613 36.0576 58.3473C36.783 58.6379 37.6311 58.9364 38.4883 59.2272C40.006 59.742 41.5331 60.2273 42.5479 60.6207L42.9502 60.7838C45.2658 61.769 47.2329 62.9332 48.4883 64.441C49.6438 65.8291 50.2186 67.5333 49.8564 69.7487L49.7715 70.1989C49.6412 70.8095 49.492 71.4857 49.1953 71.986C49.0521 72.2274 48.89 72.4002 48.7051 72.5045C48.5366 72.5995 48.3166 72.6548 48.0107 72.6217L29.3633 65.4078C29.1157 65.1096 29.1337 64.7595 29.3359 64.4625C29.5582 64.1364 29.9813 63.9205 30.4629 64.026L46.5977 70.0475L46.5537 70.235H47.1875L47.2734 69.7555L47.6719 69.8492C48.1407 67.8624 47.5534 66.3467 46.4268 65.1725C45.3316 64.0311 43.7336 63.2173 42.1729 62.5377C40.6273 61.8647 38.9979 61.2835 37.3828 60.7115C35.8157 60.1567 34.2631 59.6095 32.7822 58.9899C29.7782 53.692 24.1416 51.6864 17.9043 52.8014L17.293 52.9205C16.7723 53.0298 16.2142 53.2293 15.7178 53.3961C15.1986 53.5705 14.7419 53.7108 14.3506 53.7506C12.3802 53.9483 10.2118 53.8744 7.99219 53.7858C5.80198 53.6983 3.56051 53.5973 1.4834 53.7496C0.825612 53.7092 0.526191 53.2806 0.501953 52.8629C0.479197 52.4677 0.69883 52.0501 1.25293 51.9244L1.36816 51.9039C3.14456 51.6521 5.27054 51.7398 7.47461 51.8502C9.51848 51.9526 11.6295 52.0742 13.4951 51.9283L13.8643 51.8961C14.4981 51.8335 15.1875 51.621 15.8311 51.4166C16.4968 51.2053 17.1221 50.9983 17.7021 50.9Z" fill="#01B0BF" stroke="white"/>
<path d="M21.7529 22.0186C22.0628 21.9828 22.3987 22.1069 22.6494 22.334C22.8703 22.5341 22.9769 22.7681 22.9785 22.9736C22.4571 23.8425 21.872 24.6717 21.2793 25.5342C20.7467 26.3092 20.214 27.1072 19.7539 27.957L19.5615 28.3242C17.5908 32.2087 16.5372 36.8157 16.7207 41.1328L16.7422 41.5498C16.7864 42.2737 16.9946 43.2223 17.1484 44.0645C17.3115 44.9569 17.4125 45.7234 17.3223 46.2275V46.2285C17.2544 46.6082 16.9106 46.8608 16.4121 46.8555C15.9212 46.8501 15.4425 46.5805 15.2617 46.0723C14.6862 44.4439 14.5072 42.1409 14.5898 39.7734C14.6722 37.4164 15.0109 35.0507 15.4365 33.3252C15.8067 31.8235 16.6204 29.6311 17.6436 27.5303C18.6722 25.4182 19.8812 23.4658 21.0176 22.3965L21.0186 22.3955C21.2573 22.1694 21.4654 22.0537 21.7539 22.0205L21.7529 22.0186Z" fill="#01B0BF" stroke="white"/>
<path d="M77.5205 33.2432C78.0158 33.2001 78.4759 33.4941 78.6523 33.8809V33.8818C78.7246 34.0394 78.808 34.3183 78.8916 34.6934C78.973 35.0589 79.0483 35.4863 79.1152 35.9238C79.2493 36.8008 79.3438 37.6948 79.375 38.1719V38.1729C79.7576 43.8944 78.1553 49.874 74.9873 54.8086H74.9863C74.5752 55.4495 74.0001 56.48 73.29 57.2295C72.9379 57.6012 72.5942 57.8568 72.2725 57.9648C72.0159 58.0509 71.7565 58.0508 71.4707 57.9023L71.3467 57.8291L71.2441 57.7559C71.0305 57.5869 70.9799 57.4277 70.9766 57.2822C70.9717 57.0706 71.067 56.7896 71.2783 56.4365C71.4847 56.0918 71.7646 55.7376 72.0527 55.3857C72.3274 55.0504 72.6289 54.695 72.8223 54.3955C75.8181 49.7541 77.4842 44.4472 77.2705 38.9922L77.2441 38.4629L77.2178 38.1865C77.1816 37.8889 77.1187 37.534 77.0527 37.1689C76.9622 36.6683 76.8606 36.1246 76.7881 35.5947C76.7152 35.062 76.676 34.571 76.7002 34.1768C76.7262 33.7546 76.8185 33.5703 76.8828 33.5107L76.8838 33.5098C76.9302 33.4666 77.0333 33.4006 77.1748 33.3408C77.3143 33.2819 77.4418 33.2502 77.5186 33.2441L77.5166 33.2021L77.5205 33.2432Z" fill="#01B0BF" stroke="white"/>
<path d="M26.79 17.5907C27.2556 17.5684 27.5278 17.7145 27.6826 17.8827C27.8455 18.0597 27.9299 18.3181 27.9092 18.6044C27.8682 19.1698 27.4328 19.7336 26.5938 19.6942C26.208 19.6758 25.9787 19.5317 25.8447 19.3661C25.7037 19.1918 25.6311 18.9478 25.6514 18.6796C25.6921 18.1416 26.0844 17.6245 26.79 17.5907Z" fill="#01B0BF" stroke="white"/>
<path d="M66.6172 60.8322C67.0487 60.4416 67.7109 60.3102 68.2354 60.6642L68.3379 60.7413C68.5972 60.9576 68.6619 61.1755 68.6504 61.3634C68.6375 61.5716 68.5247 61.8093 68.3125 62.0138C67.8828 62.4279 67.2131 62.5683 66.6641 62.1407C66.3397 61.8885 66.2666 61.6493 66.2734 61.4689C66.2812 61.2676 66.393 61.0351 66.6172 60.8322Z" fill="#01B0BF" stroke="white"/>
<path d="M49.6289 29.1121V36.1794C49.629 36.344 49.7003 36.4758 49.7314 36.53C49.7735 36.6033 49.8262 36.6738 49.877 36.7361C49.9797 36.8621 50.1108 36.9963 50.2432 37.1169C50.3757 37.2378 50.5223 37.3574 50.6592 37.45C50.727 37.4958 50.8021 37.5409 50.8779 37.5769C50.9394 37.6061 51.0611 37.6589 51.2051 37.6589H59.0244V42.3562H51.2051C51.0608 42.3562 50.9386 42.4094 50.8779 42.4382C50.8025 42.4742 50.7278 42.5195 50.6602 42.5652C50.5237 42.6574 50.3778 42.7766 50.2451 42.8972C50.1126 43.0177 49.9801 43.1517 49.877 43.2781C49.826 43.3405 49.7737 43.4115 49.7314 43.4851C49.6998 43.5403 49.6289 43.6724 49.6289 43.8367V50.9031H44.3643V43.8367C44.3643 43.6715 44.2919 43.5392 44.2607 43.4851C44.2186 43.4119 44.167 43.3412 44.1162 43.2791C44.0133 43.1531 43.8815 43.0188 43.749 42.8982C43.6164 42.7774 43.4695 42.6586 43.333 42.5662C43.2654 42.5204 43.1907 42.4742 43.1152 42.4382C43.0544 42.4092 42.9323 42.3562 42.7881 42.3562H34.9688V37.6589H42.7881C42.9323 37.6589 43.0545 37.6058 43.1152 37.5769C43.1907 37.541 43.2653 37.4957 43.333 37.45C43.4696 37.3577 43.6163 37.2386 43.749 37.1179C43.8814 36.9975 44.0132 36.8633 44.1162 36.7371C44.1671 36.6747 44.2195 36.6036 44.2617 36.53C44.2934 36.4748 44.3642 36.3435 44.3643 36.1794V29.1121H49.6289Z" fill="#01B0BF" stroke="white"/>
</g>
<path d="M135.256 51.384C133.016 51.384 131.085 50.904 129.464 49.944C127.864 48.9627 126.627 47.608 125.752 45.88C124.899 44.1307 124.472 42.1147 124.472 39.832C124.472 37.5493 124.899 35.5333 125.752 33.784C126.627 32.0347 127.864 30.6693 129.464 29.688C131.085 28.7067 133.016 28.216 135.256 28.216C137.965 28.216 140.184 28.888 141.912 30.232C143.64 31.576 144.717 33.4747 145.144 35.928H140.44C140.163 34.7333 139.576 33.8053 138.68 33.144C137.805 32.4613 136.653 32.12 135.224 32.12C133.901 32.12 132.76 32.44 131.8 33.08C130.861 33.6987 130.136 34.584 129.624 35.736C129.112 36.8667 128.856 38.232 128.856 39.832C128.856 41.4107 129.112 42.776 129.624 43.928C130.136 45.08 130.861 45.9653 131.8 46.584C132.76 47.2027 133.901 47.512 135.224 47.512C136.653 47.512 137.805 47.2027 138.68 46.584C139.555 45.944 140.131 45.0587 140.408 43.928H145.144C144.717 46.2533 143.64 48.0773 141.912 49.4C140.184 50.7227 137.965 51.384 135.256 51.384ZM154.177 51.384C152.833 51.384 151.724 51.1707 150.849 50.744C149.974 50.296 149.324 49.7093 148.897 48.984C148.492 48.2373 148.289 47.416 148.289 46.52C148.289 45.5387 148.534 44.6747 149.025 43.928C149.537 43.1813 150.294 42.5947 151.297 42.168C152.321 41.7413 153.601 41.528 155.137 41.528H159.137C159.137 40.7387 159.03 40.088 158.817 39.576C158.604 39.0427 158.273 38.648 157.825 38.392C157.377 38.136 156.78 38.008 156.033 38.008C155.222 38.008 154.529 38.1893 153.953 38.552C153.398 38.8933 153.057 39.4267 152.929 40.152H148.737C148.844 39 149.217 38.008 149.857 37.176C150.518 36.3227 151.382 35.6613 152.449 35.192C153.537 34.7227 154.742 34.488 156.065 34.488C157.58 34.488 158.892 34.744 160.001 35.256C161.11 35.768 161.964 36.504 162.561 37.464C163.158 38.424 163.457 39.608 163.457 41.016V51H159.809L159.329 48.536C159.094 48.9627 158.817 49.3467 158.497 49.688C158.177 50.0293 157.804 50.328 157.377 50.584C156.95 50.84 156.47 51.032 155.937 51.16C155.404 51.3093 154.817 51.384 154.177 51.384ZM155.201 48.056C155.756 48.056 156.246 47.96 156.673 47.768C157.121 47.5547 157.505 47.2773 157.825 46.936C158.145 46.5733 158.39 46.168 158.561 45.72C158.753 45.2507 158.881 44.7493 158.945 44.216V44.184H155.649C154.988 44.184 154.444 44.2693 154.017 44.44C153.612 44.5893 153.313 44.8133 153.121 45.112C152.929 45.4107 152.833 45.752 152.833 46.136C152.833 46.5627 152.929 46.9147 153.121 47.192C153.313 47.4693 153.59 47.6827 153.953 47.832C154.316 47.9813 154.732 48.056 155.201 48.056ZM167.487 51V34.872H171.327L171.743 37.848C172.127 37.144 172.607 36.5467 173.183 36.056C173.78 35.5653 174.452 35.1813 175.199 34.904C175.967 34.6267 176.81 34.488 177.727 34.488V39.064H176.255C175.615 39.064 175.018 39.1387 174.463 39.288C173.93 39.4373 173.46 39.6827 173.055 40.024C172.65 40.344 172.34 40.792 172.127 41.368C171.914 41.944 171.807 42.6693 171.807 43.544V51H167.487ZM188.075 51.384C186.453 51.384 185.013 51.0427 183.755 50.36C182.517 49.656 181.547 48.6853 180.843 47.448C180.16 46.1893 179.819 44.7387 179.819 43.096C179.819 41.4107 180.16 39.928 180.843 38.648C181.547 37.3467 182.517 36.3333 183.755 35.608C184.992 34.8613 186.432 34.488 188.075 34.488C189.675 34.488 191.072 34.84 192.267 35.544C193.461 36.248 194.389 37.1973 195.051 38.392C195.712 39.5867 196.043 40.9413 196.043 42.456C196.043 42.6693 196.043 42.9147 196.043 43.192C196.043 43.448 196.021 43.7147 195.979 43.992H182.891V41.368H191.691C191.627 40.3227 191.253 39.5013 190.571 38.904C189.909 38.3067 189.077 38.008 188.075 38.008C187.349 38.008 186.677 38.1787 186.059 38.52C185.44 38.84 184.949 39.3413 184.587 40.024C184.245 40.7067 184.075 41.5707 184.075 42.616V43.544C184.075 44.4187 184.235 45.1867 184.555 45.848C184.896 46.488 185.365 46.9893 185.963 47.352C186.56 47.6933 187.253 47.864 188.043 47.864C188.832 47.864 189.483 47.6933 189.995 47.352C190.528 47.0107 190.923 46.5733 191.179 46.04H195.595C195.296 47.0427 194.795 47.9493 194.091 48.76C193.387 49.5707 192.523 50.2107 191.499 50.68C190.475 51.1493 189.333 51.384 188.075 51.384ZM204.893 51V32.088H198.333V28.6H215.709V32.088H209.181V51H204.893ZM223.416 51.384C221.88 51.384 220.493 51.032 219.256 50.328C218.04 49.6027 217.069 48.6107 216.344 47.352C215.64 46.072 215.288 44.6107 215.288 42.968C215.288 41.2827 215.64 39.8107 216.344 38.552C217.069 37.272 218.05 36.28 219.288 35.576C220.525 34.8507 221.912 34.488 223.448 34.488C225.005 34.488 226.392 34.8507 227.608 35.576C228.845 36.28 229.816 37.272 230.52 38.552C231.245 39.8107 231.608 41.272 231.608 42.936C231.608 44.6 231.245 46.072 230.52 47.352C229.816 48.6107 228.845 49.6027 227.608 50.328C226.37 51.032 224.973 51.384 223.416 51.384ZM223.416 47.64C224.141 47.64 224.781 47.4693 225.336 47.128C225.912 46.7867 226.36 46.264 226.68 45.56C227.021 44.856 227.192 43.9813 227.192 42.936C227.192 41.8907 227.021 41.0267 226.68 40.344C226.36 39.64 225.912 39.1173 225.336 38.776C224.781 38.4133 224.152 38.232 223.448 38.232C222.765 38.232 222.136 38.4133 221.56 38.776C220.984 39.1173 220.525 39.64 220.184 40.344C219.864 41.0267 219.704 41.8907 219.704 42.936C219.704 43.9813 219.864 44.856 220.184 45.56C220.525 46.264 220.973 46.7867 221.528 47.128C222.104 47.4693 222.733 47.64 223.416 47.64ZM241.244 58.424C239.708 58.424 238.364 58.232 237.212 57.848C236.06 57.4853 235.164 56.92 234.524 56.152C233.905 55.4053 233.596 54.4773 233.596 53.368C233.596 52.6213 233.788 51.9173 234.172 51.256C234.556 50.5947 235.11 49.9973 235.836 49.464C236.582 48.9093 237.51 48.44 238.62 48.056L240.252 50.168C239.27 50.488 238.556 50.8827 238.108 51.352C237.681 51.8427 237.468 52.3653 237.468 52.92C237.468 53.4107 237.628 53.8267 237.948 54.168C238.289 54.5093 238.737 54.7547 239.292 54.904C239.868 55.0747 240.508 55.16 241.212 55.16C241.894 55.16 242.481 55.0747 242.972 54.904C243.484 54.7333 243.878 54.4773 244.156 54.136C244.454 53.816 244.604 53.432 244.604 52.984C244.604 52.408 244.401 51.9387 243.996 51.576C243.59 51.2133 242.78 50.9893 241.564 50.904C240.476 50.8187 239.505 50.7013 238.652 50.552C237.82 50.3813 237.084 50.1893 236.444 49.976C235.804 49.7413 235.26 49.4853 234.812 49.208C234.385 48.9307 234.033 48.6533 233.756 48.376V47.64L237.18 43.96L240.284 44.952L236.252 48.92L237.468 46.808C237.702 46.936 237.926 47.064 238.14 47.192C238.374 47.2987 238.662 47.4053 239.004 47.512C239.345 47.5973 239.793 47.6827 240.348 47.768C240.902 47.8533 241.606 47.928 242.46 47.992C243.868 48.12 245.02 48.3867 245.916 48.792C246.833 49.1973 247.505 49.7413 247.932 50.424C248.358 51.0853 248.572 51.9067 248.572 52.888C248.572 53.848 248.305 54.744 247.772 55.576C247.26 56.4293 246.46 57.112 245.372 57.624C244.284 58.1573 242.908 58.424 241.244 58.424ZM241.244 46.232C239.9 46.232 238.737 45.976 237.756 45.464C236.796 44.9307 236.049 44.2267 235.516 43.352C235.004 42.456 234.748 41.464 234.748 40.376C234.748 39.288 235.004 38.3067 235.516 37.432C236.049 36.536 236.796 35.8213 237.756 35.288C238.737 34.7547 239.9 34.488 241.244 34.488C242.609 34.488 243.772 34.7547 244.732 35.288C245.713 35.8213 246.46 36.536 246.972 37.432C247.484 38.3067 247.74 39.288 247.74 40.376C247.74 41.464 247.484 42.456 246.972 43.352C246.46 44.2267 245.713 44.9307 244.732 45.464C243.772 45.976 242.609 46.232 241.244 46.232ZM241.244 42.936C242.076 42.936 242.748 42.7227 243.26 42.296C243.772 41.8693 244.028 41.24 244.028 40.408C244.028 39.576 243.772 38.9467 243.26 38.52C242.748 38.072 242.076 37.848 241.244 37.848C240.433 37.848 239.761 38.072 239.228 38.52C238.716 38.9467 238.46 39.576 238.46 40.408C238.46 41.24 238.716 41.8693 239.228 42.296C239.761 42.7227 240.433 42.936 241.244 42.936ZM243.932 37.944L243.228 34.872H249.852V37.432L243.932 37.944ZM260.481 51.384C258.86 51.384 257.42 51.0427 256.161 50.36C254.924 49.656 253.953 48.6853 253.249 47.448C252.566 46.1893 252.225 44.7387 252.225 43.096C252.225 41.4107 252.566 39.928 253.249 38.648C253.953 37.3467 254.924 36.3333 256.161 35.608C257.398 34.8613 258.838 34.488 260.481 34.488C262.081 34.488 263.478 34.84 264.673 35.544C265.868 36.248 266.796 37.1973 267.457 38.392C268.118 39.5867 268.449 40.9413 268.449 42.456C268.449 42.6693 268.449 42.9147 268.449 43.192C268.449 43.448 268.428 43.7147 268.385 43.992H255.297V41.368H264.097C264.033 40.3227 263.66 39.5013 262.977 38.904C262.316 38.3067 261.484 38.008 260.481 38.008C259.756 38.008 259.084 38.1787 258.465 38.52C257.846 38.84 257.356 39.3413 256.993 40.024C256.652 40.7067 256.481 41.5707 256.481 42.616V43.544C256.481 44.4187 256.641 45.1867 256.961 45.848C257.302 46.488 257.772 46.9893 258.369 47.352C258.966 47.6933 259.66 47.864 260.449 47.864C261.238 47.864 261.889 47.6933 262.401 47.352C262.934 47.0107 263.329 46.5733 263.585 46.04H268.001C267.702 47.0427 267.201 47.9493 266.497 48.76C265.793 49.5707 264.929 50.2107 263.905 50.68C262.881 51.1493 261.74 51.384 260.481 51.384ZM279.032 51C277.902 51 276.91 50.8293 276.056 50.488C275.224 50.1253 274.574 49.5387 274.104 48.728C273.635 47.896 273.4 46.7653 273.4 45.336V38.488H270.648V34.872H273.4L273.88 30.488H277.72V34.872H281.976V38.488H277.72V45.4C277.72 46.1253 277.88 46.6267 278.2 46.904C278.52 47.1813 279.064 47.32 279.832 47.32H281.944V51H279.032ZM285.612 51V27.96H289.932V37.272C290.465 36.4187 291.169 35.7467 292.044 35.256C292.94 34.744 293.975 34.488 295.148 34.488C296.492 34.488 297.623 34.776 298.54 35.352C299.457 35.9067 300.151 36.7173 300.62 37.784C301.089 38.8507 301.324 40.1733 301.324 41.752V51H297.036V42.136C297.036 40.856 296.769 39.8747 296.236 39.192C295.703 38.488 294.86 38.136 293.708 38.136C293.004 38.136 292.364 38.3067 291.788 38.648C291.212 38.9893 290.753 39.4907 290.412 40.152C290.092 40.792 289.932 41.56 289.932 42.456V51H285.612ZM313.137 51.384C311.516 51.384 310.076 51.0427 308.817 50.36C307.58 49.656 306.609 48.6853 305.905 47.448C305.223 46.1893 304.881 44.7387 304.881 43.096C304.881 41.4107 305.223 39.928 305.905 38.648C306.609 37.3467 307.58 36.3333 308.817 35.608C310.055 34.8613 311.495 34.488 313.137 34.488C314.737 34.488 316.135 34.84 317.329 35.544C318.524 36.248 319.452 37.1973 320.113 38.392C320.775 39.5867 321.105 40.9413 321.105 42.456C321.105 42.6693 321.105 42.9147 321.105 43.192C321.105 43.448 321.084 43.7147 321.041 43.992H307.953V41.368H316.753C316.689 40.3227 316.316 39.5013 315.633 38.904C314.972 38.3067 314.14 38.008 313.137 38.008C312.412 38.008 311.74 38.1787 311.121 38.52C310.503 38.84 310.012 39.3413 309.649 40.024C309.308 40.7067 309.137 41.5707 309.137 42.616V43.544C309.137 44.4187 309.297 45.1867 309.617 45.848C309.959 46.488 310.428 46.9893 311.025 47.352C311.623 47.6933 312.316 47.864 313.105 47.864C313.895 47.864 314.545 47.6933 315.057 47.352C315.591 47.0107 315.985 46.5733 316.241 46.04H320.657C320.359 47.0427 319.857 47.9493 319.153 48.76C318.449 49.5707 317.585 50.2107 316.561 50.68C315.537 51.1493 314.396 51.384 313.137 51.384ZM324.643 51V34.872H328.483L328.899 37.848C329.283 37.144 329.763 36.5467 330.339 36.056C330.937 35.5653 331.609 35.1813 332.355 34.904C333.123 34.6267 333.966 34.488 334.883 34.488V39.064H333.411C332.771 39.064 332.174 39.1387 331.619 39.288C331.086 39.4373 330.617 39.6827 330.211 40.024C329.806 40.344 329.497 40.792 329.283 41.368C329.07 41.944 328.963 42.6693 328.963 43.544V51H324.643Z" fill="white"/>
<defs>
<clipPath id="clip0_308_7532">
<rect width="94" height="80" fill="white"/>
</clipPath>
</defs>
</svg>
