<svg xmlns="http://www.w3.org/2000/svg" style="display: none;">
    <symbol id="search-button" xmlns="http://www.w3.org/2000/svg" viewBox="0 0 17 17">
        <path d="M13.1465 13.1465C13.3417 12.9512 13.6583 12.9512 13.8535 13.1465L16.8535 16.1465C17.0488 16.3417 17.0488 16.6583 16.8535 16.8535C16.6583 17.0488 16.3417 17.0488 16.1465 16.8535L13.1465 13.8535C12.9512 13.6583 12.9512 13.3417 13.1465 13.1465ZM14 7.5C14 3.91015 11.0899 1 7.5 1C3.91015 1 1 3.91015 1 7.5C1 11.0899 3.91015 14 7.5 14C11.0899 14 14 11.0899 14 7.5ZM15 7.5C15 11.6421 11.6421 15 7.5 15C3.35786 15 0 11.6421 0 7.5C0 3.35786 3.35786 0 7.5 0C11.6421 0 15 3.35786 15 7.5Z"></path>
    </symbol>

    <symbol id="arrow-button" xmlns="http://www.w3.org/2000/svg" viewBox="0 0 24 19">
        <path d="M23.6641 9.20703L14.457 18.4141L13.043 17L19.8359 10.207H1C0.447715 10.207 0 9.75932 0 9.20703C0 8.65475 0.447715 8.20703 1 8.20703H19.8359L13.043 1.41406L14.457 0L23.6641 9.20703Z"></path>
    </symbol>

    <symbol id="home-steps-deco" xmlns="http://www.w3.org/2000/svg" viewBox="0 0 80 72">
        <path d="M79.6807 0C79.6807 0 53.2105 4.9846 54.5586 26.2969C55.9066 47.6088 32.2483 53.2712 27.2793 52.5938C20.433 51.6655 0 59.5838 0 71.6416V0H79.6807Z"></path>
    </symbol>

    <symbol id="home-stats-annonces" xmlns="http://www.w3.org/2000/svg" viewBox="0 0 49 43">
        <path d="M48.435 21.8401C48.3971 20.6189 47.8814 19.4614 46.9988 18.6166L28.8643 0.950305C28.5922 0.678963 28.2693 0.463974 27.9141 0.317661C27.5588 0.171349 27.1782 0.0965893 26.7939 0.0976678H23.5574L44.8225 20.8594L44.8314 20.868C45.1279 21.149 45.3017 21.5355 45.3153 21.9438C45.3288 22.3521 45.181 22.7493 44.9038 23.0493L29.6304 39.9785L31.7742 42.0641L47.2116 25.1564C48.0388 24.2543 48.4782 23.0632 48.435 21.8401Z"></path>
        <path d="M40.127 22.9406C40.276 22.5304 40.3072 22.0866 40.2169 21.6595C40.1266 21.2325 39.9185 20.8392 39.6161 20.5244C39.6058 20.5136 39.5966 20.5019 39.5862 20.4912L20.3425 0.924523L20.3333 0.915344C20.0438 0.624239 19.6994 0.393448 19.3201 0.236331C18.9408 0.0792135 18.5341 -0.00110923 18.1235 1.15696e-05H4.31582C3.17159 0.00130393 2.0746 0.45642 1.2655 1.26551C0.456409 2.07461 0.00129236 3.1716 0 4.31583V18.0951C0.000697226 18.5208 0.0880269 18.9419 0.256671 19.3327C0.425316 19.7236 0.671746 20.076 0.980957 20.3686L21.52 39.9193L21.5275 39.9265C21.9606 40.3358 22.5341 40.5632 23.13 40.562C23.1591 40.562 23.1884 40.5615 23.2179 40.5604C23.4418 40.5523 23.6635 40.5123 23.8762 40.4415C24.252 40.3163 24.5897 40.0972 24.8573 39.8051L39.6468 23.7288C39.8574 23.5005 40.0206 23.2326 40.127 22.9406ZM23.0957 37.1046L3.13252 18.1019L3.125 18.0948V4.31583C3.12536 4.00012 3.25094 3.69744 3.47418 3.47419C3.69743 3.25095 4.00011 3.12537 4.31582 3.12501H18.1234L36.8441 22.16L23.0957 37.1046Z"></path>
        <path d="M12.1094 6.22569C11.105 6.22569 10.1232 6.52352 9.28812 7.08151C8.45303 7.6395 7.80215 8.4326 7.4178 9.3605C7.03345 10.2884 6.93288 11.3095 7.12883 12.2945C7.32477 13.2796 7.80841 14.1844 8.5186 14.8946C9.22879 15.6048 10.1336 16.0884 11.1187 16.2844C12.1037 16.4803 13.1248 16.3797 14.0527 15.9954C14.9806 15.611 15.7737 14.9602 16.3317 14.1251C16.8897 13.29 17.1875 12.3082 17.1875 11.3038C17.186 9.95748 16.6505 8.66673 15.6985 7.71473C14.7465 6.76272 13.4557 6.22722 12.1094 6.22569ZM12.1094 13.2569C11.7231 13.2569 11.3455 13.1424 11.0243 12.9278C10.7031 12.7132 10.4527 12.4081 10.3049 12.0512C10.1571 11.6944 10.1184 11.3017 10.1938 10.9228C10.2691 10.5439 10.4552 10.1959 10.7283 9.92275C11.0015 9.6496 11.3495 9.46358 11.7283 9.38822C12.1072 9.31286 12.4999 9.35154 12.8568 9.49937C13.2137 9.64719 13.5187 9.89753 13.7333 10.2187C13.948 10.5399 14.0625 10.9175 14.0625 11.3038C14.0619 11.8216 13.8559 12.3181 13.4898 12.6842C13.1236 13.0504 12.6272 13.2563 12.1094 13.2569Z"></path>
    </symbol>

    <symbol id="home-stats-users" xmlns="http://www.w3.org/2000/svg" viewBox="0 0 41 35">
        <path d="M20.0579 20.833C22.3604 20.8331 24.2446 21.2996 25.7767 22.0586C27.0535 21.3042 28.6095 20.834 30.4739 20.834C33.8021 20.834 36.0889 22.3295 37.5804 24.1445C38.8494 25.6887 39.5371 27.4489 39.8997 28.6914L40.0364 29.1904L40.0706 29.3438C40.3715 30.9149 39.0903 32.167 37.6741 32.167H31.8899C31.7389 33.3956 30.6465 34.25 29.4739 34.25H10.6409C9.46834 34.25 8.37594 33.3956 8.22491 32.167H2.44073C0.97875 32.167 -0.339289 30.8325 0.0784247 29.1904L0.215143 28.6914C0.577748 27.4489 1.26551 25.6888 2.53448 24.1445C4.02601 22.3295 6.31279 20.834 9.64092 20.834C11.5053 20.834 13.0608 21.3045 14.3372 22.0586C15.8696 21.2993 17.7547 20.833 20.0579 20.833ZM20.0579 23.833C17.7003 23.833 16.0093 24.4221 14.7776 25.2705C14.6896 25.3312 14.6037 25.3934 14.5198 25.457C14.4897 25.4798 14.4595 25.5023 14.43 25.5254C14.3461 25.5912 14.2646 25.6589 14.1849 25.7275C14.1509 25.7567 14.1174 25.7859 14.0843 25.8154C14.0058 25.8855 13.9292 25.9567 13.8548 26.0293C13.8292 26.0543 13.8047 26.0803 13.7796 26.1055C13.4511 26.4355 13.1625 26.7882 12.9095 27.1543C12.8442 27.2489 12.7816 27.3444 12.721 27.4404C12.705 27.4658 12.6889 27.4911 12.6732 27.5166C12.6167 27.6082 12.5625 27.7005 12.5101 27.793C11.8992 28.87 11.5527 30.0048 11.3597 30.9629L11.3577 30.9707C11.3386 31.0661 11.323 31.1595 11.3069 31.25H28.8089C28.7924 31.1569 28.775 31.0611 28.7552 30.9629C28.5638 30.0126 28.2213 28.8885 27.6194 27.8193C27.5624 27.718 27.5035 27.6169 27.4417 27.5166C27.4259 27.491 27.409 27.466 27.3929 27.4404C27.33 27.3409 27.2655 27.2415 27.1976 27.1436C26.9552 26.7941 26.6807 26.4565 26.3694 26.1396C26.329 26.0985 26.2883 26.0572 26.2464 26.0166C26.1777 25.9499 26.1067 25.8849 26.0345 25.8203C25.9953 25.7853 25.9557 25.7503 25.9153 25.7158C25.8399 25.6513 25.763 25.5875 25.6839 25.5254C25.6504 25.4991 25.6157 25.4741 25.5814 25.4482C25.5045 25.3902 25.4263 25.3329 25.346 25.2773C24.1137 24.4256 22.4211 23.8331 20.0579 23.833ZM30.4739 23.834C29.7582 23.834 29.127 23.9288 28.5677 24.0938C28.6061 24.1334 28.6434 24.1738 28.681 24.2139C28.7089 24.2437 28.7365 24.2737 28.764 24.3037C28.803 24.3464 28.8411 24.3896 28.8792 24.4326C28.9097 24.4671 28.9401 24.5014 28.97 24.5361C29.0088 24.5811 29.0466 24.6266 29.0843 24.6719C29.1061 24.698 29.1272 24.7247 29.1487 24.751C29.2568 24.8834 29.3614 25.0165 29.4612 25.1514C29.468 25.1605 29.476 25.1695 29.4827 25.1787C29.4948 25.1951 29.5059 25.2121 29.5179 25.2285C29.6009 25.3427 29.6807 25.4578 29.7581 25.5732C29.7713 25.5929 29.7851 25.6121 29.7982 25.6318C29.8802 25.7559 29.9586 25.8809 30.0345 26.0059C30.0562 26.0416 30.0777 26.0774 30.0989 26.1133C30.1671 26.2284 30.233 26.3436 30.2962 26.459C30.5776 26.972 30.811 27.4868 31.0052 27.9883C31.0125 28.0072 31.0195 28.0261 31.0267 28.0449C31.1737 28.4296 31.2983 28.8057 31.4026 29.167H36.9056C36.5933 28.2116 36.0807 27.0439 35.263 26.0488C34.251 24.8173 32.7713 23.834 30.4739 23.834ZM9.64092 23.834C7.34385 23.834 5.86485 24.8175 4.85284 26.0488C4.03509 27.0439 3.52152 28.2116 3.20928 29.167H8.71221C8.81655 28.8058 8.94026 28.4295 9.08721 28.0449C9.0944 28.0261 9.1014 28.0072 9.1087 27.9883C9.30288 27.4868 9.53631 26.9719 9.81768 26.459C9.88033 26.3446 9.94547 26.2303 10.013 26.1162C10.0373 26.0751 10.0622 26.0342 10.0872 25.9932C10.3892 25.4969 10.7396 25.0066 11.1448 24.5361C11.1633 24.5147 11.1818 24.4931 11.2005 24.4717C11.3119 24.3444 11.4264 24.2176 11.5462 24.0938C10.9871 23.9288 10.3562 23.834 9.64092 23.834ZM20.0579 0C24.0643 0.000155895 27.508 2.39762 29.0403 5.83496C30.5875 5.47014 32.2181 5.70679 33.5989 6.50391C35.0344 7.33266 36.082 8.69781 36.511 10.2988C36.9401 11.9 36.7158 13.6065 35.887 15.042C35.0582 16.4774 33.6931 17.5251 32.0921 17.9541C30.491 18.3831 28.7845 18.1579 27.3489 17.3291C27.1621 17.2212 26.9821 17.1039 26.8089 16.9785C25.0475 18.6434 22.673 19.6669 20.0579 19.667C17.4419 19.667 15.0657 18.6435 13.304 16.9775C12.6925 17.4201 12.0013 17.755 11.2581 17.9541C9.65712 18.383 7.95132 18.1578 6.51592 17.3291C5.08042 16.5003 4.03283 15.1353 3.60382 13.5342C3.17487 11.9332 3.39924 10.2274 4.22784 8.79199C5.05655 7.35662 6.42186 6.30899 8.02276 5.87988C9.02948 5.61013 10.0782 5.59825 11.0745 5.83301C12.6072 2.39639 16.052 0 20.0579 0ZM20.0579 3C17.2149 3 14.7769 4.73612 13.7474 7.20605C14.6771 8.01654 15.3541 9.09012 15.678 10.2988C16.0718 11.7684 15.9128 13.3256 15.2435 14.6816C16.4787 15.9082 18.1797 16.667 20.0579 16.667C21.9352 16.6669 23.6344 15.9082 24.8694 14.6826C24.6893 14.3176 24.5437 13.9331 24.4368 13.5342C24.0079 11.9332 24.2331 10.2274 25.0618 8.79199C25.4096 8.1896 25.852 7.65574 26.3665 7.20703C25.3371 4.73699 22.9009 3.00016 20.0579 3ZM10.2864 8.73145C9.79862 8.63259 9.28994 8.64616 8.8001 8.77734C7.96752 9.00043 7.25745 9.54552 6.82647 10.292C6.39559 11.0384 6.27824 11.9253 6.50128 12.7578C6.72437 13.5904 7.26945 14.3005 8.01592 14.7314C8.76231 15.1623 9.64927 15.2787 10.4817 15.0557C10.8344 14.9612 11.1645 14.8082 11.4612 14.6074C10.6743 13.1935 10.2239 11.566 10.2239 9.83301C10.2239 9.46058 10.2461 9.09311 10.2864 8.73145ZM32.0989 9.10254C31.4103 8.70496 30.6022 8.5741 29.8274 8.73145C29.8678 9.09316 29.8909 9.46053 29.8909 9.83301C29.8909 11.566 29.4406 13.1935 28.6536 14.6074C28.7173 14.6505 28.7819 14.6927 28.8489 14.7314C29.5954 15.1624 30.4831 15.2788 31.3157 15.0557C32.148 14.8325 32.8575 14.2881 33.2884 13.542C33.7194 12.7955 33.8367 11.9078 33.6136 11.0752C33.3904 10.2427 32.8453 9.53347 32.0989 9.10254Z"></path>
    </symbol>

    <symbol id="mobilite" xmlns="http://www.w3.org/2000/svg" viewBox="0 0 25 35">
        <path d="M6.67338 34.2857C6.4076 34.0185 5.09909 33.7537 4.67594 33.528C4.16795 33.257 3.76174 32.929 3.30177 32.6042C0.025136 30.2909 -0.815768 25.9067 0.846788 22.3632C1.04105 21.9491 1.74582 21.44 1.08471 21.0813C-0.672632 20.0169 0.130806 18.385 0.568116 16.8256L1.22202 14.4739C1.32408 14.1188 1.37283 13.7444 1.49761 13.3931C2.17653 11.482 4.60466 11.1972 6.20768 10.3515C6.46941 10.2135 6.71972 10.0713 6.97774 9.92672C8.3716 9.3072 9.49037 8.73379 11.062 8.88971C11.859 8.96877 12.747 8.75756 13.5415 9.20093C14.0321 9.42014 14.1772 9.42995 14.5978 9.83143C15.3678 10.5575 15.8095 11.5655 15.8213 12.6238C15.831 13.093 15.8298 13.9429 15.7263 14.3717C15.5012 15.3032 15.4013 16.1405 15.3661 17.0988C15.3552 17.3965 15.1619 17.8589 15.1367 18.1734C15.089 18.5379 15.09 18.8312 14.9873 19.1867C15.8346 19.2053 16.6822 19.2127 17.5297 19.2087C18.15 19.2083 18.7854 19.2095 19.4037 19.2135C21.3561 19.2141 21.7836 21.0604 22.2947 22.5542C22.3459 22.7039 22.5043 22.889 22.5675 23.0677C22.7438 23.5664 22.9708 24.0493 23.1288 24.5546C23.4125 25.4624 23.8305 26.3193 24.1252 27.2244C24.3449 27.9083 24.7247 28.5073 24.6696 29.2375C24.6593 30.5407 23.5752 31.5338 22.2948 31.5737C21.5769 31.596 21.0107 31.2775 20.5136 30.7692C20.1213 30.3679 19.9887 29.9051 19.755 29.4106C19.0368 28.0397 18.6601 26.5287 17.9233 25.1749C17.7748 24.9035 17.8816 24.722 17.47 24.7303C17.1156 24.7236 16.7624 24.7348 16.4079 24.7427C16.4735 25.3526 16.4724 25.9665 16.4534 26.5791C16.4443 26.8705 16.3617 27.3678 16.4167 27.6355C16.4471 27.7837 20.3238 31.6798 20.7202 31.9992C20.7988 32.0626 20.8886 32.1432 20.9889 32.1664C21.2587 32.2289 21.6069 32.1876 21.8864 32.1873C22.6559 32.1865 23.459 32.1507 24.2249 32.2173C24.3905 32.3287 24.6388 32.4604 24.6555 32.6647C24.6996 33.2643 24.6739 33.596 24.0013 33.6077C22.9483 33.6265 21.9017 33.6305 20.8494 33.6144C20.4172 33.6077 20.2778 33.5561 19.9595 33.2724C19.3212 32.7035 18.7413 32.0774 18.1348 31.4743L16.7727 30.1C16.4592 29.7827 16.1534 29.5831 15.9377 29.1918C15.4344 29.8995 15.0935 30.8134 14.4614 31.4485C13.5878 32.3263 12.478 33.264 11.3098 33.7152C10.8815 33.8756 9.99585 34.0105 9.73512 34.2857H6.67338ZM2.72915 19.4058C2.96557 18.6898 3.10693 18.1543 3.29688 17.4294C3.50668 16.6289 3.79335 15.9647 3.90274 15.1182C4.09308 14.8965 4.17083 14.7722 4.42181 14.6033C4.73741 14.391 6.77236 13.5593 7.00214 13.5206C7.59036 13.2042 8.36296 13.0037 8.98258 12.7421C9.48441 12.5302 9.55516 12.8728 9.85904 13.1213C10.0518 14.0175 9.61238 14.8167 9.55884 15.7159C9.5346 16.1229 9.06719 17.5041 9.32805 17.8345C9.59915 17.963 9.94924 17.9778 10.2383 18.0489C11.2368 18.2942 12.1503 18.714 12.9554 19.3555C13.0635 19.4415 13.1605 19.5173 13.3009 19.4853C13.649 19.1831 13.7042 17.3846 13.9014 16.8415C14.1297 16.213 14.0726 15.2211 14.2659 14.5638C14.3961 14.0027 14.5487 12.8789 14.444 12.3158C14.0331 10.1069 11.786 10.264 10.0553 10.3272C9.58141 10.3263 8.86697 10.699 8.42654 10.8923L6.7448 11.629C5.68047 12.1005 4.1502 12.6424 3.20276 13.3408C3.00994 13.5049 2.9499 13.8185 2.85046 14.0144C2.57678 14.5534 2.54966 15.2935 2.36175 15.8219C2.13803 16.4511 2.04143 16.4992 1.9375 17.2107C1.8546 17.7779 1.36469 18.5547 1.38896 19.1893C1.36566 19.5258 1.69268 19.9371 2.04809 19.9224C2.36808 19.9093 2.50134 19.5649 2.72915 19.4058ZM7.60787 19.2479C3.84692 19.5949 1.08113 22.9277 1.43353 26.6881C1.78593 30.4485 5.12279 33.2094 8.8827 32.8516C12.6348 32.4944 15.3889 29.1659 15.0372 25.4132C14.6855 21.6606 11.3611 18.9017 7.60787 19.2479ZM14.4754 20.6317C15.0592 21.1882 15.6347 22.592 16.0126 23.278C16.3147 23.3011 17.2366 23.3135 17.5721 23.2838C19.2041 23.1391 18.8048 24.0202 19.3346 24.827C20.0793 25.9611 20.8251 28.8926 21.5574 29.7925C21.6842 29.9481 21.8624 30.0532 22.0598 30.0889C23.0153 30.248 23.4698 29.4591 23.1622 28.6105C22.728 27.4128 22.2488 26.2638 21.764 25.0871C21.2569 23.7375 20.8204 22.2624 20.1551 20.9853C19.8891 20.4746 18.4421 20.5669 17.9639 20.5681L15.8648 20.5739C15.4011 20.5773 14.9377 20.5965 14.4754 20.6317ZM4.59002 18.627C4.92294 18.4794 5.29007 18.3178 5.64146 18.2164C6.2868 18.0303 6.96511 17.9223 7.61939 17.7712C7.68337 17.7565 7.68203 17.7035 7.70637 17.653C7.87449 17.0458 8.29713 15.2471 8.23449 14.6806C8.18644 14.6081 8.20921 14.6182 8.14278 14.5998C7.72074 14.7122 5.36423 15.5782 5.20469 15.9349L5.19508 15.9561C5.09604 16.1792 5.0411 16.5663 4.97018 16.8046C4.88735 17.0829 4.43232 18.3769 4.52353 18.6293C4.53977 18.6294 4.57737 18.632 4.59002 18.627Z"></path>
        <path d="M8.05382 24.7077C8.49883 24.6438 8.94682 24.8025 9.25238 25.1322C9.55794 25.462 9.68206 25.9208 9.58446 26.3596C9.46131 26.9133 9.00944 27.3337 8.44831 27.4165C7.69948 27.5271 7.00308 27.0088 6.894 26.2597C6.78492 25.5107 7.30456 24.8153 8.05382 24.7077Z"></path>
        <path d="M12.056 0H14.0434C14.252 0.203773 14.71 0.309205 15.0014 0.440273C15.3919 0.615971 15.7957 1.03684 16.1137 1.33212C16.1865 1.40911 16.2369 1.58035 16.3003 1.65285C17.204 2.68578 17.3801 4.07843 17.0443 5.36966C16.9972 5.55084 16.2265 6.68488 16.0712 6.87402C15.4048 7.68539 14.4396 8.14336 13.3972 8.23021C12.3386 8.3322 11.1407 7.91849 10.3242 7.24768C9.99525 6.96368 9.75257 6.56792 9.50725 6.21094C9.17872 5.73281 9.02166 4.96634 8.94917 4.39919C8.87929 3.85249 9.05541 3.1045 9.22265 2.59524C9.40489 2.04042 9.89313 1.49159 10.292 1.06978C10.8405 0.426727 11.3922 0.436925 12.0439 0.0167184C12.048 0.0111456 12.052 0.0055728 12.056 0ZM13.3109 6.79142C14.8031 6.63291 15.8806 5.28951 15.7116 3.79852C15.5425 2.30751 14.1915 1.23949 12.7017 1.41913C11.2268 1.59699 10.1718 2.9316 10.3391 4.40772C10.5065 5.88382 11.8336 6.94831 13.3109 6.79142Z"></path>
    </symbol>

    <symbol id="state" xmlns="http://www.w3.org/2000/svg" viewBox="0 0 49 43">
        <path d="M48.435 21.8401C48.3971 20.6189 47.8814 19.4614 46.9988 18.6166L28.8643 0.950305C28.5922 0.678963 28.2693 0.463974 27.9141 0.317661C27.5588 0.171349 27.1782 0.0965893 26.7939 0.0976678H23.5574L44.8225 20.8594L44.8314 20.868C45.1279 21.149 45.3017 21.5355 45.3153 21.9438C45.3288 22.3521 45.181 22.7493 44.9038 23.0493L29.6304 39.9785L31.7742 42.0641L47.2116 25.1564C48.0388 24.2543 48.4782 23.0632 48.435 21.8401Z"></path>
        <path d="M40.127 22.9406C40.276 22.5304 40.3072 22.0866 40.2169 21.6595C40.1266 21.2325 39.9185 20.8392 39.6161 20.5244C39.6058 20.5136 39.5966 20.5019 39.5862 20.4912L20.3425 0.924523L20.3333 0.915344C20.0438 0.624239 19.6994 0.393448 19.3201 0.236331C18.9408 0.0792135 18.5341 -0.00110923 18.1235 1.15696e-05H4.31582C3.17159 0.00130393 2.0746 0.45642 1.2655 1.26551C0.456409 2.07461 0.00129236 3.1716 0 4.31583V18.0951C0.000697226 18.5208 0.0880269 18.9419 0.256671 19.3327C0.425316 19.7236 0.671746 20.076 0.980957 20.3686L21.52 39.9193L21.5275 39.9265C21.9606 40.3358 22.5341 40.5632 23.13 40.562C23.1591 40.562 23.1884 40.5615 23.2179 40.5604C23.4418 40.5523 23.6635 40.5123 23.8762 40.4415C24.252 40.3163 24.5897 40.0972 24.8573 39.8051L39.6468 23.7288C39.8574 23.5005 40.0206 23.2326 40.127 22.9406ZM23.0957 37.1046L3.13252 18.1019L3.125 18.0948V4.31583C3.12536 4.00012 3.25094 3.69744 3.47418 3.47419C3.69743 3.25095 4.00011 3.12537 4.31582 3.12501H18.1234L36.8441 22.16L23.0957 37.1046Z"></path>
        <path d="M12.1094 6.22569C11.105 6.22569 10.1232 6.52352 9.28812 7.08151C8.45303 7.6395 7.80215 8.4326 7.4178 9.3605C7.03345 10.2884 6.93288 11.3095 7.12883 12.2945C7.32477 13.2796 7.80841 14.1844 8.5186 14.8946C9.22879 15.6048 10.1336 16.0884 11.1187 16.2844C12.1037 16.4803 13.1248 16.3797 14.0527 15.9954C14.9806 15.611 15.7737 14.9602 16.3317 14.1251C16.8897 13.29 17.1875 12.3082 17.1875 11.3038C17.186 9.95748 16.6505 8.66673 15.6985 7.71473C14.7465 6.76272 13.4557 6.22722 12.1094 6.22569ZM12.1094 13.2569C11.7231 13.2569 11.3455 13.1424 11.0243 12.9278C10.7031 12.7132 10.4527 12.4081 10.3049 12.0512C10.1571 11.6944 10.1184 11.3017 10.1938 10.9228C10.2691 10.5439 10.4552 10.1959 10.7283 9.92275C11.0015 9.6496 11.3495 9.46358 11.7283 9.38822C12.1072 9.31286 12.4999 9.35154 12.8568 9.49937C13.2137 9.64719 13.5187 9.89753 13.7333 10.2187C13.948 10.5399 14.0625 10.9175 14.0625 11.3038C14.0619 11.8216 13.8559 12.3181 13.4898 12.6842C13.1236 13.0504 12.6272 13.2563 12.1094 13.2569Z"></path>
    </symbol>

    <symbol id="map-pin" xmlns="http://www.w3.org/2000/svg" viewBox="0 0 21 23">
        <path d="M0 18.709C-3.57605e-07 17.5992 0.854685 16.8006 1.75586 16.2803C2.23415 16.0041 2.84593 16.1682 3.12207 16.6465C3.39799 17.1247 3.234 17.7356 2.75586 18.0117C2.41265 18.2099 2.20836 18.3899 2.09863 18.5264C2.04596 18.5919 2.02187 18.6399 2.01074 18.668C2.00039 18.6941 2 18.7064 2 18.709C2.00001 18.7121 2.00085 18.724 2.01074 18.749C2.02184 18.7771 2.04601 18.8251 2.09863 18.8906C2.20835 19.0271 2.41268 19.2071 2.75586 19.4053C3.44538 19.8034 4.50971 20.1695 5.87695 20.4326C7.23214 20.6934 8.78465 20.834 10.375 20.834C11.9653 20.834 13.5179 20.6934 14.873 20.4326C16.2403 20.1695 17.3046 19.8034 17.9941 19.4053C18.3373 19.2071 18.5416 19.0271 18.6514 18.8906C18.704 18.8251 18.7282 18.777 18.7393 18.749C18.7492 18.724 18.75 18.7121 18.75 18.709C18.75 18.7064 18.7496 18.6941 18.7393 18.668C18.7281 18.6399 18.704 18.5919 18.6514 18.5264C18.5416 18.3899 18.3373 18.2099 17.9941 18.0117C17.516 17.7356 17.352 17.1247 17.6279 16.6465C17.9041 16.1682 18.5158 16.0041 18.9941 16.2803C19.8953 16.8006 20.75 17.5992 20.75 18.709C20.7498 19.8185 19.8952 20.6164 18.9941 21.1367C18.0381 21.6887 16.7348 22.1111 15.252 22.3965C13.7569 22.6842 12.0758 22.834 10.375 22.834C8.67419 22.834 6.99313 22.6842 5.49805 22.3965C4.01516 22.1111 2.71188 21.6887 1.75586 21.1367C0.854825 20.6164 0.000167723 19.8185 0 18.709ZM16.667 8.29199C16.667 4.8172 13.8498 2 10.375 2C6.90021 2 4.08301 4.8172 4.08301 8.29199C4.08301 10.5503 5.23692 12.4093 6.66797 13.8477C8.05801 15.2446 9.63014 16.1595 10.375 16.5498C11.1199 16.1595 12.692 15.2446 14.082 13.8477C15.5131 12.4093 16.667 10.5503 16.667 8.29199ZM12.5 8.29199C12.5 7.11839 11.5486 6.16699 10.375 6.16699C9.2014 6.16699 8.25 7.11839 8.25 8.29199C8.25 9.4656 9.2014 10.417 10.375 10.417C11.5486 10.417 12.5 9.4656 12.5 8.29199ZM14.5 8.29199C14.5 10.5702 12.6532 12.417 10.375 12.417C8.09683 12.417 6.25 10.5702 6.25 8.29199C6.25 6.01382 8.09683 4.16699 10.375 4.16699C12.6532 4.16699 14.5 6.01382 14.5 8.29199ZM18.667 8.29199C18.667 11.278 17.1345 13.6152 15.499 15.2588C14.067 16.6979 12.4907 17.6743 11.5791 18.1748L11.2314 18.3604C10.7584 18.6046 10.2159 18.6353 9.72559 18.4521L9.51855 18.3604C8.71268 17.9438 6.8875 16.9034 5.25098 15.2588C3.61552 13.6152 2.08301 11.278 2.08301 8.29199C2.08301 3.71263 5.79564 0 10.375 0C14.9544 1.78814e-07 18.667 3.71263 18.667 8.29199Z"></path>
    </symbol>

    <symbol id="arrow-simple" xmlns="http://www.w3.org/2000/svg" viewBox="0 0 8 12">
        <path d="M4.6 6L4.02157e-07 1.4L1.4 0L7.4 6L1.4 12L0 10.6L4.6 6Z"></path>
    </symbol>

    <symbol id="register" xmlns="http://www.w3.org/2000/svg" viewBox="0 0 20 27">
        <path d="M0.625096 0C0.258514 0.0527215 -0.00590732 0.300297 0.000100328 0.586838V26.4077C-0.00290734 26.6186 0.14433 26.8135 0.381705 26.9189C0.61908 27.0266 0.913555 27.0266 1.15394 26.9212L10 22.9784L18.8461 26.9212C19.0865 27.0266 19.381 27.0266 19.6183 26.9189C19.8557 26.8135 20.003 26.6186 20 26.4077V0.586838C20 0.263619 19.6544 0 19.2307 0H0.769325C0.745287 0 0.721249 0 0.697211 0C0.673172 0 0.649134 0 0.625096 0ZM1.53855 1.17368H18.4615V25.3807L10.3846 21.7864C10.1473 21.6809 9.85279 21.6809 9.61542 21.7864L1.53855 25.3807V1.17368Z"></path>
    </symbol>

    <symbol id="share" xmlns="http://www.w3.org/2000/svg" viewBox="0 0 25 25">
        <path d="M19.4719 0.0288168C20.2098 -0.0267887 20.6696 -0.0222476 21.358 0.228973C22.3948 0.597938 23.2364 1.37363 23.6885 2.37702C25.3021 5.87404 21.5111 9.35844 18.1545 7.57452C17.78 7.37551 17.35 7.00054 16.9703 6.86167L16.9556 6.85639C16.3922 6.96769 15.3212 7.55193 14.7919 7.82609L12.6824 8.8937C11.8022 9.34393 10.8887 9.71466 10.0172 10.2242C9.4936 10.5303 8.55581 10.8253 8.0962 11.2251C8.02855 11.2839 7.9733 12.8471 8.17823 12.9415C8.75596 13.2703 9.46477 13.5519 10.0738 13.8736C12.3423 15.0637 14.6322 16.2127 16.9422 17.3201C17.1359 17.201 17.3553 17.021 17.5348 16.8791C18.9429 15.7663 20.7992 15.6778 22.2931 16.7091C25.2414 18.7444 24.3147 23.3214 20.7942 23.9733C19.008 24.2467 17.4084 23.5647 16.5071 21.9661C15.9309 20.9441 16.0154 20.395 16.0318 19.2673C15.6924 18.9609 14.5011 18.4309 14.018 18.1672C13.4123 17.8367 12.6821 17.6033 12.0698 17.2168C11.6691 16.9638 11.0497 16.7792 10.6364 16.5071C9.61334 15.9646 8.47905 15.4519 7.45 14.933C6.90247 14.6569 6.23992 15.5037 5.7245 15.7154C4.84972 16.0913 3.41104 16.101 2.51122 15.7945C1.59654 15.483 0.765651 14.5541 0.377321 13.6912C-0.0395792 12.7648 -0.130605 11.7385 0.203034 10.7743C0.59444 9.69635 1.24647 8.88227 2.30933 8.35894C3.2127 7.91413 4.90211 7.93338 5.82616 8.39483C6.28785 8.6254 6.60915 9.09848 7.11241 9.27591C7.70886 9.11431 8.61305 8.53935 9.22337 8.24088L12.9961 6.36778C13.5889 6.07367 14.2462 5.78744 14.8245 5.47024C15.01 5.36849 15.9602 4.97565 15.9801 4.92898C16.1243 4.59201 15.9628 3.57948 16.0859 3.12602C16.2561 2.49936 16.4673 2.09972 16.8202 1.58946C17.3784 0.782215 18.5206 0.18037 19.4719 0.0288168Z"></path>
    </symbol>
</svg>
