<svg xmlns="http://www.w3.org/2000/svg" style="display: none;">
    <symbol id="search-button" xmlns="http://www.w3.org/2000/svg" viewBox="0 0 17 17">
        <path d="M13.1465 13.1465C13.3417 12.9512 13.6583 12.9512 13.8535 13.1465L16.8535 16.1465C17.0488 16.3417 17.0488 16.6583 16.8535 16.8535C16.6583 17.0488 16.3417 17.0488 16.1465 16.8535L13.1465 13.8535C12.9512 13.6583 12.9512 13.3417 13.1465 13.1465ZM14 7.5C14 3.91015 11.0899 1 7.5 1C3.91015 1 1 3.91015 1 7.5C1 11.0899 3.91015 14 7.5 14C11.0899 14 14 11.0899 14 7.5ZM15 7.5C15 11.6421 11.6421 15 7.5 15C3.35786 15 0 11.6421 0 7.5C0 3.35786 3.35786 0 7.5 0C11.6421 0 15 3.35786 15 7.5Z"></path>
    </symbol>

    <symbol id="arrow-button" xmlns="http://www.w3.org/2000/svg" viewBox="0 0 24 19">
        <path d="M23.6641 9.20703L14.457 18.4141L13.043 17L19.8359 10.207H1C0.447715 10.207 0 9.75932 0 9.20703C0 8.65475 0.447715 8.20703 1 8.20703H19.8359L13.043 1.41406L14.457 0L23.6641 9.20703Z"></path>
    </symbol>

    <symbol id="home-steps-deco" xmlns="http://www.w3.org/2000/svg" viewBox="0 0 80 72">
        <path d="M79.6807 0C79.6807 0 53.2105 4.9846 54.5586 26.2969C55.9066 47.6088 32.2483 53.2712 27.2793 52.5938C20.433 51.6655 0 59.5838 0 71.6416V0H79.6807Z"></path>
    </symbol>

    <symbol id="home-stats-annonces" xmlns="http://www.w3.org/2000/svg" viewBox="0 0 49 43">
        <path d="M48.435 21.8401C48.3971 20.6189 47.8814 19.4614 46.9988 18.6166L28.8643 0.950305C28.5922 0.678963 28.2693 0.463974 27.9141 0.317661C27.5588 0.171349 27.1782 0.0965893 26.7939 0.0976678H23.5574L44.8225 20.8594L44.8314 20.868C45.1279 21.149 45.3017 21.5355 45.3153 21.9438C45.3288 22.3521 45.181 22.7493 44.9038 23.0493L29.6304 39.9785L31.7742 42.0641L47.2116 25.1564C48.0388 24.2543 48.4782 23.0632 48.435 21.8401Z"></path>
        <path d="M40.127 22.9406C40.276 22.5304 40.3072 22.0866 40.2169 21.6595C40.1266 21.2325 39.9185 20.8392 39.6161 20.5244C39.6058 20.5136 39.5966 20.5019 39.5862 20.4912L20.3425 0.924523L20.3333 0.915344C20.0438 0.624239 19.6994 0.393448 19.3201 0.236331C18.9408 0.0792135 18.5341 -0.00110923 18.1235 1.15696e-05H4.31582C3.17159 0.00130393 2.0746 0.45642 1.2655 1.26551C0.456409 2.07461 0.00129236 3.1716 0 4.31583V18.0951C0.000697226 18.5208 0.0880269 18.9419 0.256671 19.3327C0.425316 19.7236 0.671746 20.076 0.980957 20.3686L21.52 39.9193L21.5275 39.9265C21.9606 40.3358 22.5341 40.5632 23.13 40.562C23.1591 40.562 23.1884 40.5615 23.2179 40.5604C23.4418 40.5523 23.6635 40.5123 23.8762 40.4415C24.252 40.3163 24.5897 40.0972 24.8573 39.8051L39.6468 23.7288C39.8574 23.5005 40.0206 23.2326 40.127 22.9406ZM23.0957 37.1046L3.13252 18.1019L3.125 18.0948V4.31583C3.12536 4.00012 3.25094 3.69744 3.47418 3.47419C3.69743 3.25095 4.00011 3.12537 4.31582 3.12501H18.1234L36.8441 22.16L23.0957 37.1046Z"></path>
        <path d="M12.1094 6.22569C11.105 6.22569 10.1232 6.52352 9.28812 7.08151C8.45303 7.6395 7.80215 8.4326 7.4178 9.3605C7.03345 10.2884 6.93288 11.3095 7.12883 12.2945C7.32477 13.2796 7.80841 14.1844 8.5186 14.8946C9.22879 15.6048 10.1336 16.0884 11.1187 16.2844C12.1037 16.4803 13.1248 16.3797 14.0527 15.9954C14.9806 15.611 15.7737 14.9602 16.3317 14.1251C16.8897 13.29 17.1875 12.3082 17.1875 11.3038C17.186 9.95748 16.6505 8.66673 15.6985 7.71473C14.7465 6.76272 13.4557 6.22722 12.1094 6.22569ZM12.1094 13.2569C11.7231 13.2569 11.3455 13.1424 11.0243 12.9278C10.7031 12.7132 10.4527 12.4081 10.3049 12.0512C10.1571 11.6944 10.1184 11.3017 10.1938 10.9228C10.2691 10.5439 10.4552 10.1959 10.7283 9.92275C11.0015 9.6496 11.3495 9.46358 11.7283 9.38822C12.1072 9.31286 12.4999 9.35154 12.8568 9.49937C13.2137 9.64719 13.5187 9.89753 13.7333 10.2187C13.948 10.5399 14.0625 10.9175 14.0625 11.3038C14.0619 11.8216 13.8559 12.3181 13.4898 12.6842C13.1236 13.0504 12.6272 13.2563 12.1094 13.2569Z"></path>
    </symbol>

    <symbol id="home-stats-users" xmlns="http://www.w3.org/2000/svg" viewBox="0 0 41 35">
        <path d="M20.0579 20.833C22.3604 20.8331 24.2446 21.2996 25.7767 22.0586C27.0535 21.3042 28.6095 20.834 30.4739 20.834C33.8021 20.834 36.0889 22.3295 37.5804 24.1445C38.8494 25.6887 39.5371 27.4489 39.8997 28.6914L40.0364 29.1904L40.0706 29.3438C40.3715 30.9149 39.0903 32.167 37.6741 32.167H31.8899C31.7389 33.3956 30.6465 34.25 29.4739 34.25H10.6409C9.46834 34.25 8.37594 33.3956 8.22491 32.167H2.44073C0.97875 32.167 -0.339289 30.8325 0.0784247 29.1904L0.215143 28.6914C0.577748 27.4489 1.26551 25.6888 2.53448 24.1445C4.02601 22.3295 6.31279 20.834 9.64092 20.834C11.5053 20.834 13.0608 21.3045 14.3372 22.0586C15.8696 21.2993 17.7547 20.833 20.0579 20.833ZM20.0579 23.833C17.7003 23.833 16.0093 24.4221 14.7776 25.2705C14.6896 25.3312 14.6037 25.3934 14.5198 25.457C14.4897 25.4798 14.4595 25.5023 14.43 25.5254C14.3461 25.5912 14.2646 25.6589 14.1849 25.7275C14.1509 25.7567 14.1174 25.7859 14.0843 25.8154C14.0058 25.8855 13.9292 25.9567 13.8548 26.0293C13.8292 26.0543 13.8047 26.0803 13.7796 26.1055C13.4511 26.4355 13.1625 26.7882 12.9095 27.1543C12.8442 27.2489 12.7816 27.3444 12.721 27.4404C12.705 27.4658 12.6889 27.4911 12.6732 27.5166C12.6167 27.6082 12.5625 27.7005 12.5101 27.793C11.8992 28.87 11.5527 30.0048 11.3597 30.9629L11.3577 30.9707C11.3386 31.0661 11.323 31.1595 11.3069 31.25H28.8089C28.7924 31.1569 28.775 31.0611 28.7552 30.9629C28.5638 30.0126 28.2213 28.8885 27.6194 27.8193C27.5624 27.718 27.5035 27.6169 27.4417 27.5166C27.4259 27.491 27.409 27.466 27.3929 27.4404C27.33 27.3409 27.2655 27.2415 27.1976 27.1436C26.9552 26.7941 26.6807 26.4565 26.3694 26.1396C26.329 26.0985 26.2883 26.0572 26.2464 26.0166C26.1777 25.9499 26.1067 25.8849 26.0345 25.8203C25.9953 25.7853 25.9557 25.7503 25.9153 25.7158C25.8399 25.6513 25.763 25.5875 25.6839 25.5254C25.6504 25.4991 25.6157 25.4741 25.5814 25.4482C25.5045 25.3902 25.4263 25.3329 25.346 25.2773C24.1137 24.4256 22.4211 23.8331 20.0579 23.833ZM30.4739 23.834C29.7582 23.834 29.127 23.9288 28.5677 24.0938C28.6061 24.1334 28.6434 24.1738 28.681 24.2139C28.7089 24.2437 28.7365 24.2737 28.764 24.3037C28.803 24.3464 28.8411 24.3896 28.8792 24.4326C28.9097 24.4671 28.9401 24.5014 28.97 24.5361C29.0088 24.5811 29.0466 24.6266 29.0843 24.6719C29.1061 24.698 29.1272 24.7247 29.1487 24.751C29.2568 24.8834 29.3614 25.0165 29.4612 25.1514C29.468 25.1605 29.476 25.1695 29.4827 25.1787C29.4948 25.1951 29.5059 25.2121 29.5179 25.2285C29.6009 25.3427 29.6807 25.4578 29.7581 25.5732C29.7713 25.5929 29.7851 25.6121 29.7982 25.6318C29.8802 25.7559 29.9586 25.8809 30.0345 26.0059C30.0562 26.0416 30.0777 26.0774 30.0989 26.1133C30.1671 26.2284 30.233 26.3436 30.2962 26.459C30.5776 26.972 30.811 27.4868 31.0052 27.9883C31.0125 28.0072 31.0195 28.0261 31.0267 28.0449C31.1737 28.4296 31.2983 28.8057 31.4026 29.167H36.9056C36.5933 28.2116 36.0807 27.0439 35.263 26.0488C34.251 24.8173 32.7713 23.834 30.4739 23.834ZM9.64092 23.834C7.34385 23.834 5.86485 24.8175 4.85284 26.0488C4.03509 27.0439 3.52152 28.2116 3.20928 29.167H8.71221C8.81655 28.8058 8.94026 28.4295 9.08721 28.0449C9.0944 28.0261 9.1014 28.0072 9.1087 27.9883C9.30288 27.4868 9.53631 26.9719 9.81768 26.459C9.88033 26.3446 9.94547 26.2303 10.013 26.1162C10.0373 26.0751 10.0622 26.0342 10.0872 25.9932C10.3892 25.4969 10.7396 25.0066 11.1448 24.5361C11.1633 24.5147 11.1818 24.4931 11.2005 24.4717C11.3119 24.3444 11.4264 24.2176 11.5462 24.0938C10.9871 23.9288 10.3562 23.834 9.64092 23.834ZM20.0579 0C24.0643 0.000155895 27.508 2.39762 29.0403 5.83496C30.5875 5.47014 32.2181 5.70679 33.5989 6.50391C35.0344 7.33266 36.082 8.69781 36.511 10.2988C36.9401 11.9 36.7158 13.6065 35.887 15.042C35.0582 16.4774 33.6931 17.5251 32.0921 17.9541C30.491 18.3831 28.7845 18.1579 27.3489 17.3291C27.1621 17.2212 26.9821 17.1039 26.8089 16.9785C25.0475 18.6434 22.673 19.6669 20.0579 19.667C17.4419 19.667 15.0657 18.6435 13.304 16.9775C12.6925 17.4201 12.0013 17.755 11.2581 17.9541C9.65712 18.383 7.95132 18.1578 6.51592 17.3291C5.08042 16.5003 4.03283 15.1353 3.60382 13.5342C3.17487 11.9332 3.39924 10.2274 4.22784 8.79199C5.05655 7.35662 6.42186 6.30899 8.02276 5.87988C9.02948 5.61013 10.0782 5.59825 11.0745 5.83301C12.6072 2.39639 16.052 0 20.0579 0ZM20.0579 3C17.2149 3 14.7769 4.73612 13.7474 7.20605C14.6771 8.01654 15.3541 9.09012 15.678 10.2988C16.0718 11.7684 15.9128 13.3256 15.2435 14.6816C16.4787 15.9082 18.1797 16.667 20.0579 16.667C21.9352 16.6669 23.6344 15.9082 24.8694 14.6826C24.6893 14.3176 24.5437 13.9331 24.4368 13.5342C24.0079 11.9332 24.2331 10.2274 25.0618 8.79199C25.4096 8.1896 25.852 7.65574 26.3665 7.20703C25.3371 4.73699 22.9009 3.00016 20.0579 3ZM10.2864 8.73145C9.79862 8.63259 9.28994 8.64616 8.8001 8.77734C7.96752 9.00043 7.25745 9.54552 6.82647 10.292C6.39559 11.0384 6.27824 11.9253 6.50128 12.7578C6.72437 13.5904 7.26945 14.3005 8.01592 14.7314C8.76231 15.1623 9.64927 15.2787 10.4817 15.0557C10.8344 14.9612 11.1645 14.8082 11.4612 14.6074C10.6743 13.1935 10.2239 11.566 10.2239 9.83301C10.2239 9.46058 10.2461 9.09311 10.2864 8.73145ZM32.0989 9.10254C31.4103 8.70496 30.6022 8.5741 29.8274 8.73145C29.8678 9.09316 29.8909 9.46053 29.8909 9.83301C29.8909 11.566 29.4406 13.1935 28.6536 14.6074C28.7173 14.6505 28.7819 14.6927 28.8489 14.7314C29.5954 15.1624 30.4831 15.2788 31.3157 15.0557C32.148 14.8325 32.8575 14.2881 33.2884 13.542C33.7194 12.7955 33.8367 11.9078 33.6136 11.0752C33.3904 10.2427 32.8453 9.53347 32.0989 9.10254Z"></path>
    </symbol>

    <symbol id="mobilite" xmlns="http://www.w3.org/2000/svg" viewBox="0 0 25 35">
        <path d="M6.67338 34.2857C6.4076 34.0185 5.09909 33.7537 4.67594 33.528C4.16795 33.257 3.76174 32.929 3.30177 32.6042C0.025136 30.2909 -0.815768 25.9067 0.846788 22.3632C1.04105 21.9491 1.74582 21.44 1.08471 21.0813C-0.672632 20.0169 0.130806 18.385 0.568116 16.8256L1.22202 14.4739C1.32408 14.1188 1.37283 13.7444 1.49761 13.3931C2.17653 11.482 4.60466 11.1972 6.20768 10.3515C6.46941 10.2135 6.71972 10.0713 6.97774 9.92672C8.3716 9.3072 9.49037 8.73379 11.062 8.88971C11.859 8.96877 12.747 8.75756 13.5415 9.20093C14.0321 9.42014 14.1772 9.42995 14.5978 9.83143C15.3678 10.5575 15.8095 11.5655 15.8213 12.6238C15.831 13.093 15.8298 13.9429 15.7263 14.3717C15.5012 15.3032 15.4013 16.1405 15.3661 17.0988C15.3552 17.3965 15.1619 17.8589 15.1367 18.1734C15.089 18.5379 15.09 18.8312 14.9873 19.1867C15.8346 19.2053 16.6822 19.2127 17.5297 19.2087C18.15 19.2083 18.7854 19.2095 19.4037 19.2135C21.3561 19.2141 21.7836 21.0604 22.2947 22.5542C22.3459 22.7039 22.5043 22.889 22.5675 23.0677C22.7438 23.5664 22.9708 24.0493 23.1288 24.5546C23.4125 25.4624 23.8305 26.3193 24.1252 27.2244C24.3449 27.9083 24.7247 28.5073 24.6696 29.2375C24.6593 30.5407 23.5752 31.5338 22.2948 31.5737C21.5769 31.596 21.0107 31.2775 20.5136 30.7692C20.1213 30.3679 19.9887 29.9051 19.755 29.4106C19.0368 28.0397 18.6601 26.5287 17.9233 25.1749C17.7748 24.9035 17.8816 24.722 17.47 24.7303C17.1156 24.7236 16.7624 24.7348 16.4079 24.7427C16.4735 25.3526 16.4724 25.9665 16.4534 26.5791C16.4443 26.8705 16.3617 27.3678 16.4167 27.6355C16.4471 27.7837 20.3238 31.6798 20.7202 31.9992C20.7988 32.0626 20.8886 32.1432 20.9889 32.1664C21.2587 32.2289 21.6069 32.1876 21.8864 32.1873C22.6559 32.1865 23.459 32.1507 24.2249 32.2173C24.3905 32.3287 24.6388 32.4604 24.6555 32.6647C24.6996 33.2643 24.6739 33.596 24.0013 33.6077C22.9483 33.6265 21.9017 33.6305 20.8494 33.6144C20.4172 33.6077 20.2778 33.5561 19.9595 33.2724C19.3212 32.7035 18.7413 32.0774 18.1348 31.4743L16.7727 30.1C16.4592 29.7827 16.1534 29.5831 15.9377 29.1918C15.4344 29.8995 15.0935 30.8134 14.4614 31.4485C13.5878 32.3263 12.478 33.264 11.3098 33.7152C10.8815 33.8756 9.99585 34.0105 9.73512 34.2857H6.67338ZM2.72915 19.4058C2.96557 18.6898 3.10693 18.1543 3.29688 17.4294C3.50668 16.6289 3.79335 15.9647 3.90274 15.1182C4.09308 14.8965 4.17083 14.7722 4.42181 14.6033C4.73741 14.391 6.77236 13.5593 7.00214 13.5206C7.59036 13.2042 8.36296 13.0037 8.98258 12.7421C9.48441 12.5302 9.55516 12.8728 9.85904 13.1213C10.0518 14.0175 9.61238 14.8167 9.55884 15.7159C9.5346 16.1229 9.06719 17.5041 9.32805 17.8345C9.59915 17.963 9.94924 17.9778 10.2383 18.0489C11.2368 18.2942 12.1503 18.714 12.9554 19.3555C13.0635 19.4415 13.1605 19.5173 13.3009 19.4853C13.649 19.1831 13.7042 17.3846 13.9014 16.8415C14.1297 16.213 14.0726 15.2211 14.2659 14.5638C14.3961 14.0027 14.5487 12.8789 14.444 12.3158C14.0331 10.1069 11.786 10.264 10.0553 10.3272C9.58141 10.3263 8.86697 10.699 8.42654 10.8923L6.7448 11.629C5.68047 12.1005 4.1502 12.6424 3.20276 13.3408C3.00994 13.5049 2.9499 13.8185 2.85046 14.0144C2.57678 14.5534 2.54966 15.2935 2.36175 15.8219C2.13803 16.4511 2.04143 16.4992 1.9375 17.2107C1.8546 17.7779 1.36469 18.5547 1.38896 19.1893C1.36566 19.5258 1.69268 19.9371 2.04809 19.9224C2.36808 19.9093 2.50134 19.5649 2.72915 19.4058ZM7.60787 19.2479C3.84692 19.5949 1.08113 22.9277 1.43353 26.6881C1.78593 30.4485 5.12279 33.2094 8.8827 32.8516C12.6348 32.4944 15.3889 29.1659 15.0372 25.4132C14.6855 21.6606 11.3611 18.9017 7.60787 19.2479ZM14.4754 20.6317C15.0592 21.1882 15.6347 22.592 16.0126 23.278C16.3147 23.3011 17.2366 23.3135 17.5721 23.2838C19.2041 23.1391 18.8048 24.0202 19.3346 24.827C20.0793 25.9611 20.8251 28.8926 21.5574 29.7925C21.6842 29.9481 21.8624 30.0532 22.0598 30.0889C23.0153 30.248 23.4698 29.4591 23.1622 28.6105C22.728 27.4128 22.2488 26.2638 21.764 25.0871C21.2569 23.7375 20.8204 22.2624 20.1551 20.9853C19.8891 20.4746 18.4421 20.5669 17.9639 20.5681L15.8648 20.5739C15.4011 20.5773 14.9377 20.5965 14.4754 20.6317ZM4.59002 18.627C4.92294 18.4794 5.29007 18.3178 5.64146 18.2164C6.2868 18.0303 6.96511 17.9223 7.61939 17.7712C7.68337 17.7565 7.68203 17.7035 7.70637 17.653C7.87449 17.0458 8.29713 15.2471 8.23449 14.6806C8.18644 14.6081 8.20921 14.6182 8.14278 14.5998C7.72074 14.7122 5.36423 15.5782 5.20469 15.9349L5.19508 15.9561C5.09604 16.1792 5.0411 16.5663 4.97018 16.8046C4.88735 17.0829 4.43232 18.3769 4.52353 18.6293C4.53977 18.6294 4.57737 18.632 4.59002 18.627Z"></path>
        <path d="M8.05382 24.7077C8.49883 24.6438 8.94682 24.8025 9.25238 25.1322C9.55794 25.462 9.68206 25.9208 9.58446 26.3596C9.46131 26.9133 9.00944 27.3337 8.44831 27.4165C7.69948 27.5271 7.00308 27.0088 6.894 26.2597C6.78492 25.5107 7.30456 24.8153 8.05382 24.7077Z"></path>
        <path d="M12.056 0H14.0434C14.252 0.203773 14.71 0.309205 15.0014 0.440273C15.3919 0.615971 15.7957 1.03684 16.1137 1.33212C16.1865 1.40911 16.2369 1.58035 16.3003 1.65285C17.204 2.68578 17.3801 4.07843 17.0443 5.36966C16.9972 5.55084 16.2265 6.68488 16.0712 6.87402C15.4048 7.68539 14.4396 8.14336 13.3972 8.23021C12.3386 8.3322 11.1407 7.91849 10.3242 7.24768C9.99525 6.96368 9.75257 6.56792 9.50725 6.21094C9.17872 5.73281 9.02166 4.96634 8.94917 4.39919C8.87929 3.85249 9.05541 3.1045 9.22265 2.59524C9.40489 2.04042 9.89313 1.49159 10.292 1.06978C10.8405 0.426727 11.3922 0.436925 12.0439 0.0167184C12.048 0.0111456 12.052 0.0055728 12.056 0ZM13.3109 6.79142C14.8031 6.63291 15.8806 5.28951 15.7116 3.79852C15.5425 2.30751 14.1915 1.23949 12.7017 1.41913C11.2268 1.59699 10.1718 2.9316 10.3391 4.40772C10.5065 5.88382 11.8336 6.94831 13.3109 6.79142Z"></path>
    </symbol>

    <symbol id="state" xmlns="http://www.w3.org/2000/svg" viewBox="0 0 49 43">
        <path d="M48.435 21.8401C48.3971 20.6189 47.8814 19.4614 46.9988 18.6166L28.8643 0.950305C28.5922 0.678963 28.2693 0.463974 27.9141 0.317661C27.5588 0.171349 27.1782 0.0965893 26.7939 0.0976678H23.5574L44.8225 20.8594L44.8314 20.868C45.1279 21.149 45.3017 21.5355 45.3153 21.9438C45.3288 22.3521 45.181 22.7493 44.9038 23.0493L29.6304 39.9785L31.7742 42.0641L47.2116 25.1564C48.0388 24.2543 48.4782 23.0632 48.435 21.8401Z"></path>
        <path d="M40.127 22.9406C40.276 22.5304 40.3072 22.0866 40.2169 21.6595C40.1266 21.2325 39.9185 20.8392 39.6161 20.5244C39.6058 20.5136 39.5966 20.5019 39.5862 20.4912L20.3425 0.924523L20.3333 0.915344C20.0438 0.624239 19.6994 0.393448 19.3201 0.236331C18.9408 0.0792135 18.5341 -0.00110923 18.1235 1.15696e-05H4.31582C3.17159 0.00130393 2.0746 0.45642 1.2655 1.26551C0.456409 2.07461 0.00129236 3.1716 0 4.31583V18.0951C0.000697226 18.5208 0.0880269 18.9419 0.256671 19.3327C0.425316 19.7236 0.671746 20.076 0.980957 20.3686L21.52 39.9193L21.5275 39.9265C21.9606 40.3358 22.5341 40.5632 23.13 40.562C23.1591 40.562 23.1884 40.5615 23.2179 40.5604C23.4418 40.5523 23.6635 40.5123 23.8762 40.4415C24.252 40.3163 24.5897 40.0972 24.8573 39.8051L39.6468 23.7288C39.8574 23.5005 40.0206 23.2326 40.127 22.9406ZM23.0957 37.1046L3.13252 18.1019L3.125 18.0948V4.31583C3.12536 4.00012 3.25094 3.69744 3.47418 3.47419C3.69743 3.25095 4.00011 3.12537 4.31582 3.12501H18.1234L36.8441 22.16L23.0957 37.1046Z"></path>
        <path d="M12.1094 6.22569C11.105 6.22569 10.1232 6.52352 9.28812 7.08151C8.45303 7.6395 7.80215 8.4326 7.4178 9.3605C7.03345 10.2884 6.93288 11.3095 7.12883 12.2945C7.32477 13.2796 7.80841 14.1844 8.5186 14.8946C9.22879 15.6048 10.1336 16.0884 11.1187 16.2844C12.1037 16.4803 13.1248 16.3797 14.0527 15.9954C14.9806 15.611 15.7737 14.9602 16.3317 14.1251C16.8897 13.29 17.1875 12.3082 17.1875 11.3038C17.186 9.95748 16.6505 8.66673 15.6985 7.71473C14.7465 6.76272 13.4557 6.22722 12.1094 6.22569ZM12.1094 13.2569C11.7231 13.2569 11.3455 13.1424 11.0243 12.9278C10.7031 12.7132 10.4527 12.4081 10.3049 12.0512C10.1571 11.6944 10.1184 11.3017 10.1938 10.9228C10.2691 10.5439 10.4552 10.1959 10.7283 9.92275C11.0015 9.6496 11.3495 9.46358 11.7283 9.38822C12.1072 9.31286 12.4999 9.35154 12.8568 9.49937C13.2137 9.64719 13.5187 9.89753 13.7333 10.2187C13.948 10.5399 14.0625 10.9175 14.0625 11.3038C14.0619 11.8216 13.8559 12.3181 13.4898 12.6842C13.1236 13.0504 12.6272 13.2563 12.1094 13.2569Z"></path>
    </symbol>

    <symbol id="map-pin" xmlns="http://www.w3.org/2000/svg" viewBox="0 0 21 23">
        <path d="M0 18.709C-3.57605e-07 17.5992 0.854685 16.8006 1.75586 16.2803C2.23415 16.0041 2.84593 16.1682 3.12207 16.6465C3.39799 17.1247 3.234 17.7356 2.75586 18.0117C2.41265 18.2099 2.20836 18.3899 2.09863 18.5264C2.04596 18.5919 2.02187 18.6399 2.01074 18.668C2.00039 18.6941 2 18.7064 2 18.709C2.00001 18.7121 2.00085 18.724 2.01074 18.749C2.02184 18.7771 2.04601 18.8251 2.09863 18.8906C2.20835 19.0271 2.41268 19.2071 2.75586 19.4053C3.44538 19.8034 4.50971 20.1695 5.87695 20.4326C7.23214 20.6934 8.78465 20.834 10.375 20.834C11.9653 20.834 13.5179 20.6934 14.873 20.4326C16.2403 20.1695 17.3046 19.8034 17.9941 19.4053C18.3373 19.2071 18.5416 19.0271 18.6514 18.8906C18.704 18.8251 18.7282 18.777 18.7393 18.749C18.7492 18.724 18.75 18.7121 18.75 18.709C18.75 18.7064 18.7496 18.6941 18.7393 18.668C18.7281 18.6399 18.704 18.5919 18.6514 18.5264C18.5416 18.3899 18.3373 18.2099 17.9941 18.0117C17.516 17.7356 17.352 17.1247 17.6279 16.6465C17.9041 16.1682 18.5158 16.0041 18.9941 16.2803C19.8953 16.8006 20.75 17.5992 20.75 18.709C20.7498 19.8185 19.8952 20.6164 18.9941 21.1367C18.0381 21.6887 16.7348 22.1111 15.252 22.3965C13.7569 22.6842 12.0758 22.834 10.375 22.834C8.67419 22.834 6.99313 22.6842 5.49805 22.3965C4.01516 22.1111 2.71188 21.6887 1.75586 21.1367C0.854825 20.6164 0.000167723 19.8185 0 18.709ZM16.667 8.29199C16.667 4.8172 13.8498 2 10.375 2C6.90021 2 4.08301 4.8172 4.08301 8.29199C4.08301 10.5503 5.23692 12.4093 6.66797 13.8477C8.05801 15.2446 9.63014 16.1595 10.375 16.5498C11.1199 16.1595 12.692 15.2446 14.082 13.8477C15.5131 12.4093 16.667 10.5503 16.667 8.29199ZM12.5 8.29199C12.5 7.11839 11.5486 6.16699 10.375 6.16699C9.2014 6.16699 8.25 7.11839 8.25 8.29199C8.25 9.4656 9.2014 10.417 10.375 10.417C11.5486 10.417 12.5 9.4656 12.5 8.29199ZM14.5 8.29199C14.5 10.5702 12.6532 12.417 10.375 12.417C8.09683 12.417 6.25 10.5702 6.25 8.29199C6.25 6.01382 8.09683 4.16699 10.375 4.16699C12.6532 4.16699 14.5 6.01382 14.5 8.29199ZM18.667 8.29199C18.667 11.278 17.1345 13.6152 15.499 15.2588C14.067 16.6979 12.4907 17.6743 11.5791 18.1748L11.2314 18.3604C10.7584 18.6046 10.2159 18.6353 9.72559 18.4521L9.51855 18.3604C8.71268 17.9438 6.8875 16.9034 5.25098 15.2588C3.61552 13.6152 2.08301 11.278 2.08301 8.29199C2.08301 3.71263 5.79564 0 10.375 0C14.9544 1.78814e-07 18.667 3.71263 18.667 8.29199Z"></path>
    </symbol>

    <symbol id="arrow-simple" xmlns="http://www.w3.org/2000/svg" viewBox="0 0 8 12">
        <path d="M4.6 6L4.02157e-07 1.4L1.4 0L7.4 6L1.4 12L0 10.6L4.6 6Z"></path>
    </symbol>

    <symbol id="register" xmlns="http://www.w3.org/2000/svg" viewBox="0 0 20 27">
        <path d="M0.625096 0C0.258514 0.0527215 -0.00590732 0.300297 0.000100328 0.586838V26.4077C-0.00290734 26.6186 0.14433 26.8135 0.381705 26.9189C0.61908 27.0266 0.913555 27.0266 1.15394 26.9212L10 22.9784L18.8461 26.9212C19.0865 27.0266 19.381 27.0266 19.6183 26.9189C19.8557 26.8135 20.003 26.6186 20 26.4077V0.586838C20 0.263619 19.6544 0 19.2307 0H0.769325C0.745287 0 0.721249 0 0.697211 0C0.673172 0 0.649134 0 0.625096 0ZM1.53855 1.17368H18.4615V25.3807L10.3846 21.7864C10.1473 21.6809 9.85279 21.6809 9.61542 21.7864L1.53855 25.3807V1.17368Z"></path>
    </symbol>

    <symbol id="share" xmlns="http://www.w3.org/2000/svg" viewBox="0 0 25 25">
        <path d="M19.4719 0.0288168C20.2098 -0.0267887 20.6696 -0.0222476 21.358 0.228973C22.3948 0.597938 23.2364 1.37363 23.6885 2.37702C25.3021 5.87404 21.5111 9.35844 18.1545 7.57452C17.78 7.37551 17.35 7.00054 16.9703 6.86167L16.9556 6.85639C16.3922 6.96769 15.3212 7.55193 14.7919 7.82609L12.6824 8.8937C11.8022 9.34393 10.8887 9.71466 10.0172 10.2242C9.4936 10.5303 8.55581 10.8253 8.0962 11.2251C8.02855 11.2839 7.9733 12.8471 8.17823 12.9415C8.75596 13.2703 9.46477 13.5519 10.0738 13.8736C12.3423 15.0637 14.6322 16.2127 16.9422 17.3201C17.1359 17.201 17.3553 17.021 17.5348 16.8791C18.9429 15.7663 20.7992 15.6778 22.2931 16.7091C25.2414 18.7444 24.3147 23.3214 20.7942 23.9733C19.008 24.2467 17.4084 23.5647 16.5071 21.9661C15.9309 20.9441 16.0154 20.395 16.0318 19.2673C15.6924 18.9609 14.5011 18.4309 14.018 18.1672C13.4123 17.8367 12.6821 17.6033 12.0698 17.2168C11.6691 16.9638 11.0497 16.7792 10.6364 16.5071C9.61334 15.9646 8.47905 15.4519 7.45 14.933C6.90247 14.6569 6.23992 15.5037 5.7245 15.7154C4.84972 16.0913 3.41104 16.101 2.51122 15.7945C1.59654 15.483 0.765651 14.5541 0.377321 13.6912C-0.0395792 12.7648 -0.130605 11.7385 0.203034 10.7743C0.59444 9.69635 1.24647 8.88227 2.30933 8.35894C3.2127 7.91413 4.90211 7.93338 5.82616 8.39483C6.28785 8.6254 6.60915 9.09848 7.11241 9.27591C7.70886 9.11431 8.61305 8.53935 9.22337 8.24088L12.9961 6.36778C13.5889 6.07367 14.2462 5.78744 14.8245 5.47024C15.01 5.36849 15.9602 4.97565 15.9801 4.92898C16.1243 4.59201 15.9628 3.57948 16.0859 3.12602C16.2561 2.49936 16.4673 2.09972 16.8202 1.58946C17.3784 0.782215 18.5206 0.18037 19.4719 0.0288168Z"></path>
    </symbol>

    <symbol id="securite" xmlns="http://www.w3.org/2000/svg" viewBox="0 0 42 42">
        <path d="M32.1072 21.4064C32.338 21.3914 32.5693 21.3851 32.8006 21.3877C35.4113 21.4177 37.6432 23.3507 38.1923 25.9329C38.2623 26.262 38.4555 26.7614 38.1921 27.0125C37.831 27.1337 37.3082 27.0286 36.9255 26.9783C36.7249 25.935 36.6119 25.2248 35.9383 24.3195C35.3097 23.4578 34.3579 22.8887 33.3013 22.7427C30.7278 22.3713 28.2908 24.2957 28.2958 26.9306C28.2969 27.5515 28.3557 28.1989 28.2696 28.8113C29.3514 28.7553 30.6949 28.795 31.7993 28.7943L37.8511 28.7891C39.1121 28.7929 39.5585 28.8827 40.5132 29.8053C41.3841 30.6469 41.3354 32.0501 41.3349 33.1741L41.3308 35.0851C41.3333 36.1834 41.3488 37.287 41.3265 38.3836C41.2937 39.2857 41.0636 40.022 40.345 40.6024C39.2386 41.4962 37.827 41.3218 36.4526 41.3227L29.2878 41.3242C27.7266 41.3236 25.4032 41.5741 24.4071 40.1791C23.5171 38.9327 23.8323 36.9845 23.7947 35.5059C23.7612 34.1914 23.7811 32.8109 23.8553 31.5044C23.8805 31.0622 24.3596 29.9114 24.7038 29.6585L24.7307 29.639C25.3431 29.1885 26.341 28.9855 26.8679 28.5981C26.9879 28.5098 26.9175 26.7025 26.9753 26.3147C27.1238 25.3185 27.4186 24.3285 28.0534 23.5137C28.6714 22.7203 29.9224 21.9086 30.8865 21.6213C31.2648 21.5085 31.7169 21.4556 32.1072 21.4064ZM38.3022 40.0347C39.2868 39.8911 39.9238 39.3359 40 38.3275C40.0746 37.3403 40.0217 36.3691 40.0235 35.3804C39.9975 34.1189 40.0906 32.842 39.9233 31.5881C39.8597 31.1111 39.4535 30.6879 39.0855 30.4101C38.8504 30.2326 38.5801 30.2027 38.2905 30.1887C37.5242 30.1516 36.749 30.1657 35.981 30.1656L28.7246 30.1663C28.3229 30.1666 27.4004 30.1481 27.0376 30.1956C26.4058 30.2496 26.0697 30.4413 25.6452 30.9371C25.4994 31.1146 25.2171 31.5108 25.2055 31.7292C25.0993 33.7306 25.2001 35.7388 25.1616 37.7447C25.1416 38.7847 25.624 39.8734 26.7882 39.9974C28.1075 40.138 29.5199 39.9841 30.8508 40.0381C33.3213 40.0084 35.8309 40.0868 38.3022 40.0347Z"></path>
        <path d="M32.2782 32.5263C32.6819 32.4726 33.1022 32.567 33.4147 32.8384C33.6824 33.0721 33.8476 33.4016 33.8747 33.7559C33.9122 34.2987 33.6408 34.6208 33.314 34.9972C33.275 35.739 33.319 36.5213 33.2315 37.2576L32.8003 37.5656C31.7388 38.1064 31.9198 35.9226 31.8288 35.4292C31.6887 34.6693 31.0432 33.7152 31.5648 32.9827C31.7307 32.7497 32.0246 32.641 32.2782 32.5263Z"></path>
        <path d="M1.03931 0.0204354L33.9862 0.00690994C34.9806 0.0054451 36.1232 -0.0212148 37.1159 0.0410899C37.3492 0.0557383 37.5146 0.300123 37.6399 0.477662C37.7355 1.17097 37.6744 2.6759 37.6694 3.43684L37.6641 17.9926C37.6636 19.2532 37.7396 20.7993 37.6898 22.0186C37.4809 22.2639 36.5693 21.6124 36.3604 21.4457C36.227 20.53 36.2987 18.3786 36.2991 17.3479L36.2963 4.06223C36.2945 3.47483 36.2546 1.86213 36.3407 1.37556L5.42579 1.37874C4.15401 1.37903 2.60757 1.42932 1.36656 1.36643C1.42281 1.89866 1.40972 2.37297 1.4083 2.90735L1.40913 33.0888C1.41031 33.7634 1.45274 35.7917 1.3732 36.3337C2.89292 36.2636 4.7919 36.3123 6.34063 36.3119L20.0362 36.3093C20.7707 36.3088 21.6277 36.2161 22.3438 36.36C22.4499 36.3813 22.6125 36.3899 22.6708 36.4833C22.7982 36.688 22.7885 36.9692 22.7283 37.194C22.6725 37.4023 22.5723 37.5975 22.3705 37.6957C22.28 37.7397 2.4562 37.7375 0.852738 37.7028C0.617142 37.6977 0.377347 37.6827 0.152005 37.6094C0.127103 37.5772 0.11099 37.5564 0.0973178 37.5177C-0.0695279 37.0449 0.0287632 28.5787 0.0287144 27.2879L0.0278352 10.5245C0.0276887 9.32444 -0.0746062 0.829273 0.15596 0.273316C0.384232 0.0277592 0.692777 0.0542244 1.03931 0.0204354Z"></path>
        <path d="M13.9085 5.09685C14.4573 5.05222 15.3158 5.07649 15.8881 5.07698L19.4042 5.07903L22.3584 5.07395C23.2795 5.07287 24.3219 4.95232 25.0962 5.53508C25.6925 6.00627 25.8153 6.64778 25.7616 7.35476C25.6878 8.32751 24.7135 8.77946 23.8459 8.87927C20.9246 8.98196 17.9499 8.85061 15.0242 8.90149C13.5358 8.92742 13.213 8.9196 12.0921 7.92825C11.5486 6.25901 12.224 5.324 13.9085 5.09685ZM23.2599 7.53215C23.5548 7.52834 24.0568 7.55608 24.2176 7.30554C24.9714 6.13142 22.5499 6.35798 22.1453 6.35798L16.3286 6.36223C15.8025 6.36257 15.0765 6.34231 14.5628 6.37185C14.3026 6.38122 13.6439 6.3488 13.4946 6.56638C12.9859 7.3072 13.5697 7.47937 14.2129 7.52751C15.276 7.55945 16.342 7.54226 17.4044 7.54104L23.2599 7.53215Z"></path>
        <path d="M12.4302 33.2111C12.7804 33.1954 12.9469 33.2749 13.2611 33.4076C13.2886 33.665 13.291 34.0325 13.2996 34.3L12.7831 34.4967C12.4179 34.5345 12.2623 34.4332 11.9268 34.2922L11.9232 33.3988C12.0915 33.3342 12.2605 33.2717 12.4302 33.2111Z"></path>
        <path d="M7.30872 33.2011C7.66555 33.1821 7.85832 33.2798 8.18035 33.4141C8.23645 34.0154 8.38381 34.2436 7.76907 34.466C7.41204 34.5519 7.27209 34.421 6.94885 34.2424C7.03098 33.725 6.80188 33.4809 7.30872 33.2011Z"></path>
        <path d="M9.84729 33.2005C10.1823 33.1782 10.4155 33.2915 10.7191 33.4143C10.761 33.9764 10.9256 34.2429 10.3264 34.4584C9.96038 34.5519 9.83972 34.4335 9.50012 34.2571C9.55911 33.7225 9.34065 33.4802 9.84729 33.2005Z"></path>
        <path d="M19.8053 33.2017C20.1784 33.1827 20.338 33.2689 20.6706 33.4182C20.7273 33.9771 20.8674 34.2373 20.2864 34.4637C19.9066 34.5482 19.7903 34.4317 19.4504 34.2419C19.5352 33.7263 19.301 33.4829 19.8053 33.2017Z"></path>
        <path d="M14.9738 33.2081C15.8506 33.1867 16.0166 34.2418 15.1593 34.5303C14.9507 34.5243 14.6674 34.3677 14.4685 34.2751L14.4653 33.4094C14.6347 33.3341 14.8004 33.2731 14.9738 33.2081Z"></path>
        <path d="M17.45 33.2162C18.3369 33.1176 18.5548 34.1503 17.7591 34.5269C17.4598 34.5236 17.2747 34.4013 17.0072 34.276L17.0044 33.4097L17.45 33.2162Z"></path>
        <path d="M4.94934 33.2171C5.83459 33.1185 6.05564 34.1543 5.25945 34.5233C4.99783 34.5341 4.74841 34.3845 4.51091 34.2676L4.50134 33.4088L4.94934 33.2171Z"></path>
    </symbol>
    <symbol id="gaspi" xmlns="http://www.w3.org/2000/svg" viewBox="0 0 32 43">
        <path d="M17.9597 6.4222C18.1816 6.6431 18.38 6.86175 18.6941 6.67894C18.8612 6.44496 18.9605 5.46219 19.0184 5.11663C19.4245 2.69027 20.8744 0.428939 23.4729 0.0823328C24.9019 -0.108258 25.8682 0.0815856 27.2729 0.156908C27.7667 0.544398 28.1027 0.789784 28.6696 1.05437C28.9609 1.69865 29.2966 1.93548 29.6562 2.48866C29.858 2.7992 30.2755 3.71439 30.354 4.07132C30.5023 4.74613 30.5469 6.51986 30.3048 7.1556C30.1407 7.58631 29.7861 8.22489 29.5993 8.70672C29.3896 8.85897 28.1724 9.98582 28.026 10.1757C27.2796 10.4084 26.448 10.9558 25.92 11.0282C25.0288 11.1505 23.6675 11.0664 22.7559 11.0584C22.5056 11.0561 21.528 10.9202 21.4212 10.9543C21.1328 11.609 21.6399 12.0943 21.7451 12.6288C21.8528 13.1762 21.8291 14.0097 21.8331 14.5798L21.8416 17.3565C21.8477 19.3115 21.7889 20.3912 23.0683 22.103C23.4442 22.606 23.8752 22.7547 24.3749 23.1144C24.9144 23.5027 25.2949 23.8397 25.7475 24.3255C27.5582 24.3244 29.4282 24.3745 31.231 24.3612C31.2295 24.9864 31.2681 26.6015 31.1459 27.1421C30.9586 27.9712 30.625 28.8856 30.4945 29.7876C30.3701 30.6999 30.5268 31.6875 30.366 32.5897C30.2264 33.373 29.821 34.318 29.7379 35.0991C29.5801 36.581 29.7967 37.6891 29.3 39.1395C29.0358 39.9109 28.823 41.5011 28.8612 42.3158C28.3764 42.2675 27.2098 42.3342 26.6353 42.3366L21.6293 42.3399C20.1977 42.34 18.7625 42.3543 17.3318 42.3084C17.0242 42.2985 16.7502 42.2725 16.4425 42.3154C16.3703 41.2843 16.2598 40.2634 16.0695 39.2466C16.0158 38.9598 15.7352 38.8949 15.7137 38.6705C15.5551 37.0246 15.6854 35.352 15.2754 33.7357C15.2188 33.5125 14.9596 33.5067 14.932 33.2189C14.773 31.5593 14.9101 29.8654 14.48 28.2385C14.4309 28.0528 14.173 27.9615 14.1581 27.7602C14.0472 26.8312 14.0513 25.8917 14.048 24.9576C14.0474 24.7592 14.0484 24.5672 14.0311 24.372C16.6238 24.3222 19.2694 24.4006 21.8264 24.3462C21.8257 24.8461 21.8214 25.4328 21.8627 25.9266C21.1906 25.8819 15.8803 25.9048 15.6723 26.0623C15.6687 26.2378 15.6792 26.2871 15.7115 26.4566C15.8236 27.038 15.8574 27.5474 16.2563 27.9984C16.3211 28.4312 16.31 28.9569 16.3703 29.3022C16.3594 29.7969 16.3697 30.6291 16.4253 31.1078C16.4146 31.8071 16.5472 32.5011 16.8149 33.1471C16.9348 33.4359 17.0529 33.5199 17.0924 33.8199C17.1242 34.601 17.1271 35.9237 17.2064 36.6368C17.2158 37.0353 17.2657 37.4319 17.3555 37.8203C17.4777 38.5509 17.8401 39.3146 17.887 39.8565C17.8798 40.0492 17.9177 40.5219 17.9205 40.7641C19.1381 40.7241 20.4555 40.7464 21.6807 40.7463L27.3422 40.751C27.4364 39.172 27.7449 37.9093 28.0599 36.3702C28.2013 35.6794 28.0702 34.7016 28.1925 33.9933C28.3657 32.9908 28.6651 31.995 28.8334 30.9884C28.9518 30.197 28.8765 29.1844 28.984 28.3881C29.0708 27.7449 29.436 26.868 29.4863 26.1883C29.4881 26.1646 29.4708 26.0616 29.4665 26.0603C28.6751 25.8239 26.588 25.9695 25.8446 25.9356C24.4299 25.871 24.4899 25.232 23.5317 24.4771C23.283 24.2811 22.8181 24.218 22.4754 23.8868C21.4709 22.9161 21.088 22.3728 20.6636 21.0422C20.6082 20.8684 20.4002 20.6392 20.3846 20.4984C20.2785 19.5455 20.2704 18.4904 20.2372 17.5352C20.3 16.8488 20.2998 13.3242 20.0457 12.5503C20.0153 12.4579 19.7587 12.416 19.646 12.3976C19.5918 12.23 19.5963 11.7136 19.555 11.4471C19.5044 9.99608 19.5033 9.8014 18.3961 8.7825C17.7382 8.11649 17.0782 7.78748 16.12 7.88333C15.5632 7.93905 14.8287 7.89534 14.3029 8.1326C11.3601 9.46068 8.73374 11.5422 6.01787 13.2685C4.64951 14.1383 2.95054 14.9752 2.24863 16.5367C1.78018 17.0304 1.57183 18.2664 1.57827 18.9675L1.5728 36.5801C1.57285 37.1184 1.54531 38.2596 1.60498 38.7589C1.721 39.2695 1.72563 39.6225 2.20791 39.8923C2.55166 40.254 2.4335 40.6065 3.23281 40.6625C3.53022 40.6833 4.15947 40.6122 4.34746 40.3616C5.1147 39.3391 5.11289 37.6347 5.41611 36.3987C5.53096 35.7901 5.40952 34.6708 5.56167 34.1154C6.0521 32.3253 6.27217 30.755 6.33833 28.9098C6.38472 28.1828 7.00464 26.5402 6.98042 25.8747C6.90254 23.7362 7.65977 21.9264 7.86221 19.8729C9.15981 19.0393 10.4337 18.1487 11.7463 17.3372C11.9007 17.2418 12.582 16.6904 12.6528 16.664C13.6075 16.308 14.2796 15.5135 15.1987 15.0812C15.4583 14.9598 16.0879 14.9846 16.352 14.9846C16.3488 15.1572 16.349 15.338 16.3592 15.5119C16.4889 16.8976 16.1692 18.8836 16.614 20.1857C17.0349 21.4178 17.1438 21.382 17.1534 22.7752C16.671 22.7696 16.1076 22.794 15.6159 22.8014C15.5437 22.1468 15.3536 21.3789 14.9269 20.8643C14.852 20.0098 14.8241 19.1955 14.8106 18.3383C14.8069 18.1031 14.7305 17.8245 14.5449 17.6615C14.1714 17.5778 14.2064 17.8481 13.9656 17.9807C12.4763 18.8007 11.1216 19.8439 9.6602 20.7173C9.19985 20.9925 9.32505 21.8171 9.22656 22.3121C9.048 23.2098 8.75254 24.0997 8.60977 25.0034C8.50098 25.7701 8.62642 26.639 8.51084 27.4151C8.34585 28.3212 8.02109 29.2058 7.85347 30.1134C7.67739 30.806 7.88613 32.0241 7.72969 32.66C7.2874 34.4577 6.90664 35.8343 6.9606 37.7219C6.97812 38.3362 6.34565 40.4977 5.97349 41.0116C5.6251 41.4927 4.65977 42.3002 4.02803 42.3151C2.35664 42.4676 2.06016 42.0199 0.874414 41.1229C0.755322 40.7939 0.438574 40.0381 0.268555 39.7498C0.3146 39.2886 0.660108 39.3741 0.653955 38.5455L0.646973 38.4991C0.729443 37.8341 0.698731 36.487 0.698877 35.7878L0.698486 23.2774C0.714209 21.483 0.701123 19.6885 0.659277 17.8945C0.656055 17.208 0.591113 17.5071 0.302246 16.9417C0.313086 16.8013 0.322314 16.6815 0.32998 16.5823C0.749365 15.741 1.06919 14.9417 1.74512 14.2538C3.06748 12.9079 4.95698 11.8965 6.5373 10.8538C7.27964 10.364 8.03433 9.88822 8.77207 9.39276C10.3042 8.3638 12.1066 7.07752 13.86 6.49124C15.0066 6.10785 16.7934 6.18397 17.9597 6.4222ZM25.2133 9.45716C25.9779 9.25931 26.5508 8.92508 27.2901 8.59002C27.4055 8.42069 27.5203 8.2473 27.6444 8.0846L28.0914 7.9596C28.169 7.28133 28.3273 7.14364 28.564 6.50443C29.1048 5.04315 28.7167 3.9703 27.8121 2.77279C27.3868 2.2098 26.8111 1.71005 26.0982 1.66432C25.578 1.63096 24.9353 1.62313 24.4101 1.67204C24.0696 1.69719 23.2589 1.71961 23.0011 1.89215C21.5883 2.83778 20.7808 3.94242 20.8311 5.70628C20.8491 6.04437 20.9418 6.40096 20.941 6.73768C20.9357 7.35135 20.5914 8.19193 21.0668 8.70374C21.1436 8.78636 21.5609 8.7742 21.7814 8.94168C22.616 9.57523 24.3219 9.60306 25.2133 9.45716Z"></path>
        <path d="M1.57827 18.9675C1.57183 18.2664 1.78018 17.0304 2.24863 16.5367C1.89478 17.2906 2.15364 17.4804 2.24104 18.2718C2.27693 18.5968 2.28362 18.9833 2.28586 19.3126L2.27908 33.6091L2.28274 37.6631C2.28166 38.1277 2.28916 39.4891 2.20791 39.8923C1.72563 39.6225 1.721 39.2695 1.60498 38.7589C1.70181 38.7392 1.65852 38.7591 1.73635 38.6934C1.80598 38.0776 1.78117 37.0812 1.78127 36.4283L1.78098 32.6328L1.69411 18.7746L1.65461 18.7355L1.57827 18.9675Z"></path>
        <path d="M0.32998 16.5823C0.322314 16.6815 0.313086 16.8013 0.302246 16.9417C0.591113 17.5071 0.656055 17.208 0.659277 17.8945L0.577076 17.8084C0.480298 17.943 0.52854 20.9903 0.528736 21.4333L0.531421 36.4352C0.529517 37.0024 0.499292 37.8781 0.541333 38.4189C0.608325 38.5026 0.56958 38.4891 0.646973 38.4991L0.653955 38.5455L0.57063 38.7574L0.479322 38.7668C0.356568 38.6253 0.327222 38.4168 0.26272 38.2312C0.266968 38.4735 0.299292 39.013 0.2219 39.2123L0.177955 39.2249C0.135181 39.1068 0.125122 39.0773 0.111206 38.9529C0.0979252 39.3078 0.166431 39.4055 0.163941 39.6389C-0.0641352 39.329 0.0123784 35.679 0.012183 35.0017L0.0120363 20.4632C0.0124269 19.4196 0.00529791 18.3485 0.0420167 17.3046C0.0517335 17.0288 0.201806 16.8314 0.32998 16.5823Z"></path>
        <path d="M19.555 11.4471C19.5963 11.7136 19.5918 12.23 19.646 12.3976C19.7587 12.416 20.0153 12.4579 20.0457 12.5503C20.2998 13.3242 20.3 16.8488 20.2372 17.5352C20.1957 17.3813 20.1729 16.7387 20.1529 16.5164C20.0882 16.6753 20.1875 18.2901 20.1717 18.6335C20.0264 18.8071 19.7837 18.7665 19.6052 18.6622C19.6486 17.509 19.5549 17.059 19.5242 15.9783C19.4889 14.4679 19.4989 12.9568 19.555 11.4471Z"></path>
        <path d="M1.57827 18.9675L1.65461 18.7355L1.69411 18.7746L1.78098 32.6328L1.78127 36.4283C1.78117 37.0812 1.80598 38.0776 1.73635 38.6934C1.65852 38.7591 1.70181 38.7392 1.60498 38.7589C1.54531 38.2596 1.57285 37.1184 1.5728 36.5801L1.57827 18.9675Z"></path>
        <path d="M0.646973 38.4991C0.56958 38.4891 0.608325 38.5026 0.541333 38.4189C0.499292 37.8781 0.529517 37.0024 0.531421 36.4352L0.528736 21.4333C0.52854 20.9903 0.480298 17.943 0.577076 17.8084L0.659277 17.8945C0.701123 19.6885 0.714209 21.483 0.698486 23.2774L0.698877 35.7878C0.698731 36.487 0.729443 37.8341 0.646973 38.4991Z"></path>
        <path d="M16.4253 31.1078C16.4772 30.8656 16.438 30.85 16.5882 30.7128C16.758 30.6926 16.8892 30.6999 17.0593 30.7049C17.0179 31.7 17.4389 32.727 17.0924 33.8199C17.0529 33.5199 16.9348 33.4359 16.8149 33.1471C16.5472 32.5011 16.4146 31.8071 16.4253 31.1078Z"></path>
        <path d="M17.2064 36.6368C17.4492 36.3773 16.9521 36.1237 17.8401 36.1788C17.8163 37.1128 18.0549 38.3618 17.9036 39.1704C17.9034 38.852 17.9822 37.9464 17.6134 37.8836L17.5866 37.9567L17.5175 37.9702L17.3555 37.8203C17.2657 37.4319 17.2158 37.0353 17.2064 36.6368Z"></path>
        <path d="M15.7115 26.4566C15.8992 26.2805 15.7494 26.1504 16.0761 26.0483C16.1306 26.0651 16.2389 26.0846 16.2519 26.1209C16.4304 26.6223 16.444 28.8348 16.3703 29.3022C16.31 28.9569 16.3211 28.4312 16.2563 27.9984C15.8574 27.5474 15.8236 27.038 15.7115 26.4566Z"></path>
        <path d="M17.3555 37.8203L17.5175 37.9702L17.5866 37.9567L17.6134 37.8836C17.9822 37.9464 17.9034 38.852 17.9036 39.1704C17.9026 39.3656 17.911 39.6712 17.887 39.8565C17.8401 39.3146 17.4777 38.5509 17.3555 37.8203Z"></path>
        <path d="M0.26272 38.2312C0.327222 38.4168 0.356568 38.6253 0.479322 38.7668L0.57063 38.7574L0.653955 38.5455C0.660108 39.3741 0.3146 39.2886 0.268555 39.7498L0.163941 39.6389C0.166431 39.4055 0.0979252 39.3078 0.111206 38.9529C0.125122 39.0773 0.135181 39.1068 0.177955 39.2249L0.2219 39.2123C0.299292 39.013 0.266968 38.4735 0.26272 38.2312Z"></path>
    </symbol>
    <symbol id="cadenas" xmlns="http://www.w3.org/2000/svg" viewBox="0 0 39 50">
        <path d="M14.7608 0H18.7208C19.0815 0.331282 21.2946 0.723511 21.9446 1.06669C22.9454 1.59514 23.6875 2.02993 24.5218 2.82192C27.1101 4.72249 28.1909 7.53296 28.9559 10.5441C29.1954 11.4871 29.6225 12.2752 29.7446 13.342C29.5913 13.6738 29.4991 13.8313 29.283 14.1315C28.6484 14.2539 28.6507 14.2176 28.0482 14.0206C27.3285 13.204 27.3571 12.153 27.0006 11.1893C26.6122 10.1393 26.3364 8.77153 25.8333 7.7895C25.4356 7.01333 24.4561 5.62788 23.8419 4.99937C22.1789 3.29745 19.5926 2.2598 17.2484 2.03732C15.5236 1.89188 12.9393 2.77893 11.4581 3.69139C11.15 3.88124 10.5252 4.45789 10.2174 4.71995C8.08965 6.53149 7.01733 8.90078 6.89189 11.6773C6.79292 13.8683 7.34653 15.4142 8.02637 17.4567C8.35298 18.4379 8.42671 18.952 8.88052 19.9773L27.5395 19.9957L32.8127 19.9929C34.2595 19.992 36.0494 19.7245 37.1479 20.7697C38.4346 21.9939 38.1642 23.4841 38.1639 25.1013L38.1634 30.084C38.1628 35.5633 38.1637 41.0426 38.1625 46.5219C38.1624 47.1551 38.1772 47.6548 37.9184 48.2507C37.5324 49.1396 36.825 49.4253 36.1161 50H1.99536C1.91792 49.9028 1.58833 49.6455 1.47368 49.5552C0.931543 49.1279 0.0705083 48.3115 0.0408696 47.5667C-0.0222652 45.9814 0.00649434 44.3217 0.00678731 42.729L0.0055669 26.3678C0.00551807 25.0769 -0.0231442 23.7656 0.059473 22.4828C0.0927737 21.7512 0.998926 20.6231 1.66172 20.3353C3.05532 19.73 5.09063 20.0678 6.62065 19.9529C6.23809 18.9667 6.03565 17.9141 5.70664 16.9535C4.89009 14.5696 4.49258 12.5429 4.95303 10.0079C5.3874 7.61631 6.40303 5.34189 8.17573 3.62033C8.80503 3.0092 9.59604 2.45113 10.2423 1.84333C10.6433 1.47703 11.6372 1.13453 12.1402 0.85314C12.8605 0.450209 14.1062 0.502002 14.7608 0ZM34.1143 48.0323C34.8968 48.0381 35.9338 48.05 36.0348 46.9599C36.118 46.0615 36.0727 45.0632 36.0721 44.1551L36.0689 39.0207C36.0688 33.9084 36.0722 28.7921 36.0659 23.6796C36.0652 23.1328 36.0604 22.8741 35.7806 22.4037C35.4031 22.1541 35.1513 22.0222 34.6779 22.008C33.1556 21.9622 31.5896 21.9832 30.0662 21.9839L9.85601 21.9833C8.12568 21.9833 5.72041 21.9116 4.03301 21.9949C2.95601 22.031 2.14995 21.9873 2.12666 23.3438C2.10386 24.675 2.11357 26.0071 2.11362 27.3386L2.11318 42.836C2.11196 44.1021 2.10571 45.386 2.11138 46.6552C2.11328 47.0819 2.41196 47.6107 2.70239 47.9249C2.7749 48.0034 3.38467 48.0317 3.52632 48.0319C6.89063 48.0375 10.2625 48.0317 13.6263 48.0315L34.1143 48.0323Z"></path>
        <path d="M18.589 29.9919C19.3786 29.9353 20.0318 29.9753 20.7546 30.404C22.0397 31.1663 22.523 33.161 21.8017 34.46C21.542 34.8532 21.1489 35.11 21.0834 35.6052C20.8749 37.1813 21.7043 39.4573 19.5592 39.9809L19.517 39.9859C18.4183 40.1081 18.2014 39.8532 17.4049 39.2065C16.8915 38.0327 17.2782 36.6261 17.0457 35.4388C16.7596 34.7202 16.2288 34.588 16.0913 33.7417C15.7791 31.8198 16.6529 30.4025 18.589 29.9919Z"></path>
    </symbol>
    <symbol id="map" xmlns="http://www.w3.org/2000/svg" viewBox="0 0 40 38">
        <path d="M25.0927 0.0234017C27.4671 -0.157067 29.7424 0.708558 31.3515 2.54078C31.6098 2.83492 31.7504 2.96344 32.1168 3.11217L35.5769 2.44088C36.5262 2.2506 37.4758 1.98947 38.443 1.91705C38.6267 1.90328 38.827 1.86671 39.0094 1.83507L39.0133 30.285C39.0148 31.5714 39.096 33.2493 38.8375 34.4603C37.7604 34.6154 36.6007 34.8966 35.5354 35.1032L29.1668 36.3003C28.0533 36.5038 26.923 36.8429 25.7827 36.8644C24.6555 36.8857 23.6168 36.4884 22.5569 36.29L13.9577 34.6593C12.7556 34.4757 11.6401 34.8981 10.4949 35.1159L4.02974 36.3268C3.16196 36.4974 0.814795 37.0463 0 37.0607C0.0605469 34.3784 0.01958 31.552 0.0197265 28.8584L0.0184573 8.32184C0.0182132 7.13937 -0.026904 5.59899 0.103907 4.4545C3.5023 3.72838 6.91558 3.07369 10.3414 2.49088C11.2747 2.32594 12.4117 1.97345 13.3231 1.96388C13.8585 1.95827 14.9303 2.23195 15.4877 2.3483L18.1038 2.86837C18.341 2.91701 19.223 3.11539 19.4062 3.07433C19.9444 2.95363 20.5982 2.00177 21.0483 1.64479C22.2107 0.723597 23.6159 0.160267 25.0927 0.0234017ZM1.45981 35.4797C2.3896 35.3896 3.34458 35.1079 4.26948 34.9608C6.36733 34.6274 8.36567 34.0023 10.459 33.6575C11.3358 33.5131 12.2059 33.2369 13.0902 33.1431C14.2539 33.2111 15.4243 33.5741 16.5781 33.7776C16.9937 33.8508 17.6787 33.9214 18.0483 34.037C19.6319 34.5321 21.244 34.729 22.869 35.0389C23.7701 35.2108 24.6928 35.5309 25.6104 35.5848C26.832 35.5865 28.1107 35.1346 29.3112 34.9507C30.7735 34.7266 32.1005 34.3813 33.5156 34.0093C34.7237 33.6917 36.2635 33.6817 37.4251 33.1646C37.6062 33.0942 37.5175 30.1502 37.5193 29.8133L37.5207 13.9344C37.5546 10.4142 37.5388 6.89376 37.4735 3.37404C36.9123 3.46368 32.8968 4.22355 32.6921 4.43234C32.564 4.78034 32.856 5.2089 32.9462 5.52662C33.3266 6.86588 33.2971 8.92423 32.7247 10.2411C32.0577 11.7756 31.0957 13.9368 30.1662 15.3214C28.7106 17.4895 27.436 19.7431 25.761 21.735C24.4011 20.4679 23.1261 18.0213 22.0878 16.4354C21.7542 15.9257 21.2243 15.3022 20.9671 14.8049C19.2848 11.5535 17.3612 8.47736 18.7574 4.68453C18.7768 4.6317 18.7711 4.37223 18.698 4.33229C17.0524 4.07379 14.2568 3.15934 12.6861 3.28595C10.1406 3.91334 7.52529 4.27218 4.98833 4.93126C4.20625 5.13444 2.17251 5.3755 1.54844 5.6986C1.43008 6.1153 1.50083 7.57516 1.5063 8.10758L1.51108 10.7453L1.5103 33.2237C1.50908 33.6866 1.53335 35.0879 1.45981 35.4797ZM25.9832 19.1589C26.7435 18.2175 27.1702 17.3531 27.8231 16.3284C29.5035 13.6938 31.5771 10.5825 31.963 7.42838C32.0958 6.34371 30.8746 3.64674 29.9256 3.00548C28.4167 1.98595 27.202 1.35841 25.3685 1.43942C23.811 1.53629 22.1052 2.41329 21.0418 3.52062C20.2647 4.33961 19.3584 6.6151 19.5353 7.72057C20.0502 10.939 22.1736 13.9683 23.8599 16.6933C24.162 17.1815 25.2826 19.1874 25.7474 19.3215C25.9093 19.2869 25.8579 19.3034 25.9832 19.1589Z"></path>
        <path d="M13.068 21.2999C13.388 21.2805 13.6126 21.3761 13.9054 21.4836C13.9603 22.1531 14.0903 22.3328 13.4022 22.5976C13.0414 22.6514 12.8892 22.5187 12.5734 22.3407L12.5641 21.4979C12.7263 21.4257 12.9012 21.3629 13.068 21.2999Z"></path>
        <path d="M13.0676 8.80001C13.3888 8.78043 13.6115 8.87579 13.9052 8.98409C13.9603 9.65338 14.09 9.83317 13.402 10.0977C13.0415 10.1514 12.8889 10.0185 12.5734 9.84078L12.5641 8.9983C12.726 8.92584 12.9011 8.86295 13.0676 8.80001Z"></path>
        <path d="M13.0376 28.807C13.9385 28.7477 13.9497 29.1351 13.9192 29.8541C13.7781 29.9281 13.6048 30.0045 13.4584 30.0736C13.1747 30.1322 12.8837 30.0078 12.5938 29.9228C12.5446 29.2862 12.3934 29.0602 13.0376 28.807Z"></path>
        <path d="M13.0371 16.3068C13.9374 16.2478 13.95 16.6345 13.9173 17.3533C13.7774 17.4279 13.6034 17.5047 13.4576 17.5734C13.1619 17.6297 12.8899 17.5095 12.5927 17.4203C12.544 16.7798 12.3955 16.5605 13.0371 16.3068Z"></path>
        <path d="M25.6763 32.9891C25.7879 33.0508 26.4195 33.4607 26.4573 33.5673C26.5072 33.9521 26.2546 34.3648 25.8612 34.447L25.3091 34.4709C25.0017 33.4482 24.8109 33.7649 25.6763 32.9891Z"></path>
        <path d="M12.9574 3.87358C13.4986 3.84678 14.1846 3.88599 13.8957 4.75308C13.8341 4.93794 13.7025 4.97759 13.5228 5.04732C13.1554 5.14693 12.9905 5.03506 12.6229 4.90601C12.5868 4.6479 12.4988 4.26978 12.5865 4.04458C12.7298 3.88477 12.7082 3.93047 12.9574 3.87358Z"></path>
        <path d="M25.627 25.5158L25.7657 25.5456C26.1291 25.9732 27.0654 26.3683 25.9373 26.9582C25.5341 26.9722 25.0903 26.8218 24.9817 26.3887C25.0073 25.9938 25.3226 25.9897 25.627 25.5158Z"></path>
        <path d="M25.6786 23.0428C25.8486 23.1533 26.0323 23.2538 26.1967 23.3693C26.7564 23.7628 26.3514 24.2275 25.8974 24.4291C25.561 24.4253 25.3017 24.3425 25.0879 24.0692C24.7299 23.6116 25.3811 23.273 25.6786 23.0428Z"></path>
        <path d="M13.0231 18.8577C13.8564 18.8047 13.9401 19.0656 13.944 19.7893C13.7822 19.8876 13.6013 19.9567 13.4261 20.0295C13.0519 20.0865 12.9155 19.97 12.57 19.8047C12.54 19.212 12.4321 19.0866 13.0231 18.8577Z"></path>
        <path d="M13.0241 6.35724C14.0183 6.31402 14.4094 7.16778 13.427 7.52945C13.0599 7.58902 12.9042 7.46651 12.5712 7.30309C12.5416 6.71124 12.4341 6.58634 13.0241 6.35724Z"></path>
        <path d="M25.6714 28.061C26.5236 28.3687 26.8061 29.2549 25.7852 29.3973C25.1628 29.3885 25.1419 29.0666 24.971 28.546C25.2508 28.3821 25.4151 28.2569 25.6714 28.061Z"></path>
        <path d="M13.0225 26.3815C13.4216 26.3549 13.5428 26.4188 13.9017 26.5752C13.9544 27.1599 14.0362 27.296 13.4566 27.5351C13.1403 27.5855 12.911 27.4653 12.5943 27.3638C12.5717 27.1221 12.5696 26.8224 12.561 26.5755L13.0225 26.3815Z"></path>
        <path d="M13.0218 13.8815C13.4215 13.855 13.5421 13.9186 13.9015 14.0751C13.9543 14.6599 14.036 14.7961 13.4563 15.0351C13.1402 15.0854 12.9107 14.9652 12.5942 14.8639C12.5717 14.6232 12.5695 14.3255 12.561 14.0797L13.0218 13.8815Z"></path>
        <path d="M13.0685 23.8407C13.4054 23.8195 13.5969 23.9082 13.9005 24.03C13.9609 24.6565 14.031 24.779 13.3965 25.0062C13.1587 25.0369 12.8374 24.8947 12.5953 24.8123C12.5711 24.5774 12.5676 24.2744 12.558 24.0335C12.724 23.9663 12.9 23.9035 13.0685 23.8407Z"></path>
        <path d="M13.0685 11.3407C13.4056 11.3195 13.5969 11.4081 13.9007 11.5301C13.9607 12.1567 14.0313 12.2792 13.3965 12.506C13.1588 12.5371 12.8375 12.3947 12.5953 12.3123C12.5711 12.0771 12.5677 11.7747 12.558 11.5335C12.7242 11.4663 12.8999 11.4036 13.0685 11.3407Z"></path>
        <path d="M25.6239 30.665C26.26 30.5716 26.926 31.7311 25.8375 31.9385C25.1771 31.9454 25.1508 31.6329 24.9695 31.0848C25.1948 30.959 25.4095 30.8091 25.6239 30.665Z"></path>
        <path d="M13.0248 31.3565C14.0739 31.2828 14.1258 32.2797 13.5234 32.4549C13.1162 32.4587 12.7097 32.4492 12.5269 32.0148C12.3765 31.6575 12.7746 31.4538 13.0248 31.3565Z"></path>
        <path d="M25.3684 5.08111C26.7592 4.87457 28.0538 5.83556 28.2587 7.22657C28.4637 8.61759 27.5012 9.91109 26.11 10.1144C24.7209 10.3174 23.43 9.35689 23.2254 7.96812C23.0208 6.57935 23.9799 5.28731 25.3684 5.08111ZM25.941 8.70426C26.6227 8.52994 27.0509 7.92135 26.8566 7.22462C26.7857 6.96231 26.6106 6.74049 26.372 6.6106C26.102 6.467 25.8893 6.44434 25.594 6.46065C25.175 6.61275 24.8867 6.70841 24.6782 7.14806C24.5556 7.41192 24.5419 7.71353 24.6403 7.98736C24.8536 8.5691 25.3791 8.70958 25.941 8.70426Z"></path>
    </symbol>

    <symbol id="list-button" xmlns="http://www.w3.org/2000/svg" viewBox="0 0 20 20">
        <path d="M18 10C18 8.94943 17.7927 7.90908 17.3906 6.93848C16.9886 5.96795 16.4 5.08559 15.6572 4.34277C14.9144 3.59995 14.0321 3.01141 13.0615 2.60938C12.0909 2.20734 11.0506 2 10 2C8.94943 2 7.90908 2.20734 6.93848 2.60938C5.96795 3.01141 5.08559 3.59995 4.34277 4.34277C3.59995 5.08559 3.01141 5.96795 2.60938 6.93848C2.20734 7.90908 2 8.94943 2 10C2 11.0506 2.20734 12.0909 2.60938 13.0615C3.01141 14.0321 3.59995 14.9144 4.34277 15.6572C5.08559 16.4 5.96795 16.9886 6.93848 17.3906C7.90908 17.7927 8.94943 18 10 18C11.0506 18 12.0909 17.7927 13.0615 17.3906C14.0321 16.9886 14.9144 16.4 15.6572 15.6572C16.4 14.9144 16.9886 14.0321 17.3906 13.0615C17.7927 12.0909 18 11.0506 18 10ZM12.293 6.29297C12.6835 5.90244 13.3165 5.90244 13.707 6.29297C14.0976 6.68349 14.0976 7.31651 13.707 7.70703L11.4141 10L13.707 12.293C14.0976 12.6835 14.0976 13.3165 13.707 13.707C13.3165 14.0976 12.6835 14.0976 12.293 13.707L10 11.4141L7.70703 13.707C7.31651 14.0976 6.68349 14.0976 6.29297 13.707C5.90244 13.3165 5.90244 12.6835 6.29297 12.293L8.58594 10L6.29297 7.70703C5.90244 7.31651 5.90244 6.68349 6.29297 6.29297C6.68349 5.90244 7.31651 5.90244 7.70703 6.29297L10 8.58594L12.293 6.29297ZM20 10C20 11.3132 19.7418 12.6139 19.2393 13.8271C18.7367 15.0404 17.9998 16.1427 17.0713 17.0713C16.1427 17.9998 15.0404 18.7367 13.8271 19.2393C12.6139 19.7418 11.3132 20 10 20C8.68678 20 7.38611 19.7418 6.17285 19.2393C4.95964 18.7367 3.85727 17.9998 2.92871 17.0713C2.00015 16.1427 1.26329 15.0404 0.760742 13.8271C0.258195 12.6139 6.01744e-09 11.3132 0 10C1.78814e-07 8.68678 0.258195 7.38611 0.760742 6.17285C1.26329 4.95964 2.00015 3.85727 2.92871 2.92871C3.85727 2.00015 4.95964 1.26329 6.17285 0.760742C7.38611 0.258196 8.68678 1.2035e-08 10 0C11.3132 2.38419e-07 12.6139 0.258195 13.8271 0.760742C15.0404 1.26329 16.1427 2.00015 17.0713 2.92871C17.9998 3.85727 18.7367 4.95964 19.2393 6.17285C19.7418 7.38611 20 8.68678 20 10Z"></path>
    </symbol>

    <symbol id="heart" xmlns="http://www.w3.org/2000/svg" viewBox="0 0 33 29">
        <path d="M2.54598 3.17005C6.24043 -1.59144 13.613 -0.854635 16.3165 4.47962C19.0198 -0.855006 26.3934 -1.59153 30.088 3.17005L30.6036 3.83509C33.6617 7.77678 33.2201 13.3978 29.5841 16.8136L17.6866 27.9904C17.5443 28.124 17.3677 28.2928 17.1964 28.4161C17.0017 28.5563 16.7077 28.7188 16.3175 28.7189C15.927 28.7189 15.6323 28.5563 15.4376 28.4161C15.2662 28.2928 15.0896 28.124 14.9474 27.9904L3.04989 16.8136C-0.586119 13.3978 -1.0277 7.77676 2.03036 3.83509L2.54598 3.17005ZM28.5079 4.39662C25.6838 0.756713 20.0147 1.36685 18.0304 5.52455C17.3425 6.96576 15.2915 6.96575 14.6036 5.52455C12.6192 1.36688 6.95012 0.75672 4.12606 4.39662L3.61044 5.06068C1.18468 8.1872 1.5351 12.646 4.41903 15.3556L16.3175 26.5324L28.2149 15.3556C31.0989 12.646 31.4493 8.18722 29.0235 5.06068L28.5079 4.39662Z"></path>
    </symbol>

    <symbol id="responsabilite" xmlns="http://www.w3.org/2000/svg" viewBox="0 0 35 36">
        <path d="M30.5596 8.40656C31.2268 8.42188 32.161 8.78176 32.7403 9.19918C33.4653 9.72152 33.9782 10.9425 34.1932 11.7777C34.254 12.0137 34.23 13.4142 34.2296 13.7385L34.2274 20.7448C34.2272 21.8259 34.2891 22.57 34.0002 23.6262C33.7425 24.5684 33.6166 25.6027 33.198 26.5087C32.9841 26.9718 32.5625 27.4476 32.3314 27.9181C32.1682 28.1659 32.0702 28.4621 31.9197 28.712C31.393 29.587 30.867 30.493 30.3502 31.3697C30.0055 31.9545 29.6744 32.4221 29.3784 33.0425C29.1948 33.4275 28.8428 33.8203 28.6571 34.2167C28.2512 34.9221 28.1186 35.6558 27.1232 35.6598C26.6726 35.6616 26.3614 35.5217 26.0399 35.2165C25.6669 34.1145 26.2244 33.7705 26.7577 32.9139C26.9523 32.6013 27.1017 32.1782 27.3065 31.8557C27.7478 31.1603 28.1808 30.4712 28.5513 29.7342C28.6919 29.4536 28.9611 29.1679 29.0957 28.8952C29.642 27.7879 30.4393 26.7564 30.9105 25.6262C31.2539 24.8022 31.6997 24.0496 31.7083 23.1444C31.7385 19.9852 31.7015 16.8246 31.7227 13.6652C31.7269 13.001 31.7555 12.2969 31.6459 11.6429C31.5705 11.1938 31.2042 11.0169 30.854 10.803C30.7517 10.8035 30.6493 10.8061 30.5471 10.8107C29.9419 10.842 29.7289 11.1221 29.6023 11.7059C29.4612 12.3569 29.3959 13.0352 29.2422 13.6885C29.0944 14.3166 28.9494 14.9454 28.8267 15.5786C28.7618 15.9249 28.7479 16.3167 28.6791 16.6364C28.4894 17.517 28.2923 18.402 28.274 19.3091C28.2615 19.9288 28.7104 20.3931 28.7532 21.0521C28.8283 22.2088 28.7543 23.0311 28.1101 24.0228C27.9717 24.236 27.651 24.5947 27.4748 24.8289C26.9239 25.5614 26.2834 26.2625 25.7055 26.9809C25.479 27.2624 25.0696 27.4895 24.7112 27.5271C24.2257 27.578 23.7163 27.1452 23.3619 26.8348C23.3338 26.3764 23.3527 25.9524 23.4568 25.5059C24.1573 24.8997 24.5525 24.2583 25.1585 23.5456C25.6707 22.9432 26.3789 22.2173 26.1191 21.3078C26.049 21.0623 25.9513 20.9207 25.8903 20.6479C25.5554 20.3018 25.2525 20.1994 24.7731 20.1622C23.7094 20.0798 23.1223 21.0441 22.401 21.6659C20.9814 22.8898 19.2866 24.0334 18.6666 25.8953C18.2616 27.1115 18.3624 28.5819 18.3649 29.8658L18.3664 33.1909C18.3661 33.6883 18.3801 34.2021 18.3713 34.6855C18.3474 35.9906 16.6149 36.0819 15.9275 35.2371C15.8146 35.0984 15.8466 33.9926 15.8467 33.7814L15.8523 29.8454C15.8537 28.994 15.874 28.0098 15.8319 27.1642C15.8112 26.7482 15.4024 25.542 15.2057 25.1352C15.0951 24.9067 14.4354 24.0599 14.236 23.8205C14.0544 23.6024 13.5387 23.2032 13.2987 22.9816L11.3731 21.2323C11.1503 21.0313 10.923 20.8132 10.7014 20.6153C9.69855 19.7164 7.9928 20.1657 8.00175 21.6632C8.00624 22.41 8.23226 22.6094 8.6998 23.1119C8.8171 23.2433 8.89984 23.3697 9.01054 23.5065C9.55187 24.1738 10.1286 24.85 10.6574 25.5219C10.876 25.7998 10.9975 26.6682 10.7496 26.9375C10.5807 27.1211 10.0353 27.5224 9.76542 27.5373C9.36784 27.5592 9.01487 27.3693 8.71909 27.1165C7.98312 26.431 7.28835 25.5826 6.70362 24.7641C6.55206 24.552 6.22816 24.3004 6.08394 24.0451C5.89491 23.7106 5.60964 23.0719 5.49757 22.7142C5.38249 22.3468 5.46089 21.3921 5.45429 20.9812C5.4414 20.4951 5.91214 19.9234 5.90569 19.463C5.89234 18.5085 5.87027 17.5689 5.48245 16.686C5.41499 16.5324 5.43909 15.8099 5.3946 15.5985C5.34058 15.3417 5.33929 14.9788 5.2403 14.7179C5.20202 14.5716 5.01976 14.2879 5.00503 14.1523C4.93878 13.5426 4.83007 12.995 4.67737 12.4001C4.58421 11.9418 4.60835 11.3353 4.23292 10.9957C3.68585 10.5009 2.58542 11.0342 2.49745 11.7105C2.44874 12.085 2.49515 12.6469 2.50019 13.0514C2.50691 13.876 2.50944 14.7006 2.50776 15.5252L2.50694 21.1222C2.50542 21.7221 2.44987 23.3588 2.5471 23.8518C2.63663 24.3057 3.35366 25.9152 3.61343 26.3773C3.75753 26.6336 4.1046 27.1153 4.2789 27.4301C4.49566 27.8215 4.72925 28.2588 4.95175 28.6512C5.09644 28.9064 5.36851 29.238 5.5137 29.506C5.72679 29.8992 5.89515 30.2643 6.12335 30.6557C6.35425 31.0518 6.6346 31.4038 6.86183 31.7916C7.02003 32.0616 7.13655 32.3908 7.31155 32.6959C7.63331 33.2569 8.15206 33.88 8.28819 34.5156C8.32507 34.7573 8.27277 35.0529 8.11202 35.2383C7.64812 35.7735 6.71257 35.7961 6.18296 35.348C5.87945 35.0912 5.83995 34.68 5.64171 34.3522C5.31284 33.8084 4.94093 33.298 4.61249 32.7551C4.4939 32.5577 4.40026 32.1457 4.26827 31.9331C4.01398 31.5236 3.7112 31.148 3.44206 30.7439C3.2339 30.4314 3.21276 30.1315 3.04593 29.8429C2.86015 29.5216 2.50351 29.1063 2.32335 28.7874C2.04855 28.3009 1.83448 27.8445 1.53726 27.3677C1.40984 27.1633 0.932226 26.3984 0.881421 26.2392C0.771815 25.8957 0.494776 25.1706 0.433659 24.8327C0.367456 24.4667 0.349202 23.9415 0.27353 23.5361C0.215933 23.2275 0.0464013 22.649 0.0288896 22.379C-0.0133956 21.7271 0.00304201 20.9957 0.00362795 20.3374L0.00530761 16.8217L0.0027607 13.8339C0.00234664 12.3912 -0.00323153 10.7601 1.03687 9.58254C1.61683 8.92586 2.74999 8.48867 3.61402 8.42617C4.19519 8.38414 5.29777 8.78895 5.75804 9.17367C6.90472 10.2634 7.06851 11.3412 7.15952 12.8223C7.40292 13.617 7.4148 14.5481 7.60441 15.3228C7.83105 16.2489 7.97804 16.7234 8.04702 17.7027C9.56488 17.4891 10.3343 17.3981 11.7405 18.1126C11.9099 18.1986 12.2724 18.6051 12.4481 18.7436C13.6375 19.6806 14.6881 20.7893 15.8657 21.7363C16.0591 21.895 16.8744 23.2101 17.174 23.0064C17.7006 22.6482 18.204 21.8244 18.7816 21.3832C19.8055 20.6008 20.6442 19.5409 21.7021 18.7935C22.0109 18.5753 22.2617 18.2117 22.6242 18.049C23.719 17.4864 24.7214 17.495 25.9036 17.6193C26.3014 17.6611 26.1569 16.896 26.2463 16.6309C26.6626 15.3959 26.7164 14.0902 27.0318 12.8291C27.1686 12.186 27.1041 11.5154 27.3107 10.8839C27.8193 9.32945 29.021 8.59477 30.5596 8.40656Z"></path>
        <path d="M16.4426 0.0120225C17.1974 -0.00825879 19.0712 -0.0785908 19.4823 0.615925C19.9072 1.3338 19.775 1.943 20.6312 2.53167C21.4612 2.56238 22.1884 2.44953 23.0988 2.5275C23.8487 3.30527 24.6645 4.58839 24.9998 5.64589C25.3687 6.80957 23.759 7.3996 23.9111 8.64078C24.2215 9.09289 25.0037 9.87808 25.0171 10.4294C25.0457 11.6125 24.1107 12.9163 23.385 13.78C22.795 14.4821 21.6784 14.0294 20.8467 14.1166C19.7322 14.2334 20.0304 15.3881 19.432 16.0604C18.9989 16.5471 18.3402 16.572 17.7417 16.6213C16.6345 16.6927 15.7474 16.672 14.7715 16.1406C14.4816 15.752 14.3326 14.8803 14.0248 14.4651C13.9682 14.3887 13.7205 14.1789 13.6369 14.1074C12.842 14.0616 11.8068 14.3479 11.0894 14.0077C10.7718 13.857 9.93758 12.5839 9.69765 12.2031C9.55988 11.9844 9.31762 11.2553 9.22406 10.985C9.05402 10.4936 9.37883 9.76765 9.69043 9.37753C10.1668 8.77828 10.4249 8.66761 10.2055 7.86609C9.71859 7.40519 9.07832 6.47539 9.19637 5.79433C9.36992 4.79324 10.374 3.12269 11.1675 2.52152C13.3942 2.26808 13.8056 3.39554 14.6854 0.548905C15.1493 0.226261 15.8858 0.0405928 16.4426 0.0120225ZM12.9464 7.16968C13.08 8.63296 13.1171 9.34386 12.1423 10.5116C12.127 10.5302 12.1113 10.5484 12.0954 10.5664C12.0914 10.8271 12.0508 11.1824 12.2817 11.3664C12.7332 11.7262 13.4918 11.3635 14.053 11.4974C14.4399 11.539 14.6685 11.7741 14.9945 11.9543C15.2814 12.1128 15.5518 12.2324 15.8086 12.4531C16.4532 13.0068 16.2728 14.2802 17.3952 14.0392C17.6346 13.8591 17.6481 13.7851 17.7654 13.5386C18.0932 12.8493 18.3174 12.2511 19.103 12.0045C19.2845 11.9476 19.6228 11.6436 19.8427 11.5932C20.4814 11.3441 20.9223 11.5712 21.5363 11.4699C21.7327 11.4375 21.9598 11.2949 22.1479 11.2229C22.1585 10.9921 22.1705 10.7613 22.1841 10.5306C21.5115 9.91105 21.6359 9.70285 21.2409 9.14054C21.2322 8.84519 21.1853 7.61851 21.2736 7.37902C21.5412 6.65343 23.2695 5.12597 21.2024 5.1441C20.9628 5.14621 20.6487 5.19878 20.4033 5.17124C19.648 5.06222 18.9579 4.44289 18.2432 4.1421C17.8602 3.35773 17.8976 2.58265 16.8596 2.70199C16.3982 2.98722 16.3254 3.65042 16.0076 3.98386C15.5002 4.42035 14.8124 4.7521 14.2303 5.1107C13.7682 5.39535 12.2364 4.76148 12.0363 5.53464C11.9051 6.04167 12.5609 6.84656 12.9464 7.16968Z"></path>
        <path d="M16.5429 6.25486C17.5858 5.97294 18.6741 6.51884 19.0716 7.52333C19.4692 8.52779 19.0492 9.67064 18.0959 10.1787C17.9618 10.2502 17.8204 10.307 17.6742 10.3483C17.1229 10.504 16.5321 10.4304 16.0359 10.144C15.5397 9.85775 15.1802 9.3831 15.0391 8.8279C14.7532 7.70341 15.4229 6.55767 16.5429 6.25486Z"></path>
    </symbol>

    <symbol id="confiance" xmlns="http://www.w3.org/2000/svg" viewBox="0 0 40 40">
        <path d="M25.6109 2.16573C25.9755 1.96209 26.4317 1.51367 26.7715 1.22861C27.9804 0.176343 29.8428 -0.150742 31.4273 0.061113C34.4886 0.436422 37.3621 4.06399 36.8143 7.12977C36.2427 10.3284 32.5761 13.9693 30.1389 15.9365C29.2544 16.6907 26.6167 18.9859 25.6953 19.3476C24.5928 19.1176 23.252 17.6234 22.3431 16.993C20.6666 15.83 19.4369 14.4034 17.9787 13.0175C17.1262 12.2072 16.6894 11.6631 16.07 10.6991L15.1543 9.24778C14.6727 8.47727 14.4857 8.19458 14.3929 7.27282C14.1972 5.37173 14.5309 4.02036 15.7748 2.52771C16.7522 1.35491 18.2046 0.219488 19.7812 0.0580309C21.5623 -0.00332066 22.7017 -0.0760159 24.2113 1.09409C24.6695 1.44918 25.111 1.88718 25.6109 2.16573ZM34.2053 3.7152C34.2033 3.41391 33.619 2.98938 33.3876 2.79632C30.9769 0.979195 28.0649 1.5659 26.3755 3.96106C26.1918 4.22145 26.1343 4.66262 25.8281 4.81458C25.2819 4.88352 24.8916 4.05919 24.5809 3.65516C23.4659 2.20545 22.0112 1.59146 20.1826 1.77293C17.8829 2.00113 15.7317 4.49872 16.0891 6.81032C16.4672 9.25524 18.813 11.4319 20.467 13.1261C21.3582 14.0401 22.2456 14.772 23.2429 15.5317C24.03 16.1312 24.694 16.889 25.6505 17.2943C26.1951 17.0045 26.4292 16.7048 26.9061 16.3791C28.9245 15.0003 30.597 13.2394 32.3478 11.5519C32.5708 11.337 32.7972 10.9027 33.0103 10.6638C33.208 10.3808 33.6426 9.88942 33.8001 9.62665C34.2425 8.88805 34.7914 7.93134 35.0706 7.13427C35.4493 6.05286 34.9842 5.09505 34.4768 4.16743C34.4001 4.02723 34.3045 3.84544 34.2053 3.7152Z"></path>
        <path d="M26.8021 28.8243C27.4667 28.2453 28.5966 27.0361 29.2466 26.3781L32.8727 22.7709C33.4907 22.1512 34.1942 21.4249 34.8272 20.8205C35.0845 20.575 36.0463 20.119 36.3937 20.0732C37.0818 19.9825 37.9761 19.972 38.5601 20.4168C38.7841 20.5781 38.9607 20.7333 39.1836 20.8917C39.2711 21.1203 39.8148 22.0405 40 22.199V24.0693L39.9758 24.1002C39.7609 24.3776 39.6145 24.7142 39.4059 25.0081C39.0384 25.5259 38.5374 25.9377 38.0663 26.3604C36.9459 27.3657 36.0594 28.5941 34.889 29.5579C34.5891 29.8048 34.2571 30.1245 33.9815 30.3995L30.7053 33.6814C30.1897 34.2043 29.5278 35.1016 28.8803 35.4786C27.5284 36.2657 25.7145 36.0772 24.1979 36.0736L16.5751 36.0738C15.1649 36.0745 13.7319 36.0496 12.3225 36.114C12.1344 36.1303 11.4976 36.2234 11.3585 36.322C10.6891 36.7966 10.1586 37.5213 9.58277 38.1086C9.28918 38.4082 8.71883 38.9008 8.57402 39.2637H7.5034C7.33742 38.9965 6.83348 38.5656 6.5832 38.3167L4.30777 36.0596C3.2144 34.9655 2.17698 33.8377 1.03988 32.7884C0.654332 32.4327 0.448457 32.0938 0 31.7505V30.7365C0.317712 30.5568 1.0176 29.7511 1.33527 29.4449L5.38797 25.4753C6.66039 24.2185 7.30734 23.2288 8.97074 22.4148C10.5237 21.6548 11.6774 21.6539 13.3432 21.6557L21.0324 21.6574C21.8083 21.6561 22.7737 21.6233 23.5366 21.6591C23.7578 21.6678 23.9773 21.7027 24.1904 21.7627C26.0328 22.2886 26.7338 23.9048 26.3238 25.6866C26.2571 25.9768 25.6259 26.8305 25.3973 26.9964C24.6368 27.5483 23.6057 27.7633 22.7015 27.9458C21.6202 28.2032 20.5538 28.3828 19.4667 28.5828C19.4183 28.5917 19.4132 28.6684 19.4082 28.7038C19.4836 28.7967 19.7031 28.8298 19.8152 28.8286C22.1365 28.8055 24.4832 28.8884 26.8021 28.8243ZM24.4861 25.3878C24.5374 25.0934 24.6265 24.742 24.6678 24.4709C24.4993 24.1 24.4488 23.9961 24.3556 23.5972C23.3192 23.1797 22.5574 23.2682 21.468 23.2637L18.2493 23.2599L14.4829 23.2611C13.0217 23.2638 11.4722 23.1829 10.1071 23.729C9.60441 23.9301 9.19621 24.3112 8.78656 24.6491C8.05184 25.1785 7.45348 25.7711 6.82984 26.424C6.67465 26.5865 6.44297 26.762 6.31711 26.9437C6.00313 27.2725 5.70359 27.6181 5.38477 27.9413C5.1193 28.2104 4.82277 28.4455 4.55086 28.7076C4.12797 29.1153 3.72593 29.545 3.31263 29.9622C3.02902 30.2486 2.6768 30.494 2.42744 30.8099C2.31848 30.948 2.25688 31.102 2.26011 31.2798C2.26284 31.4303 2.3047 31.5438 2.39955 31.6602C2.76751 32.1116 3.27781 32.4942 3.68635 32.9149C4.42152 33.6719 5.17375 34.4093 5.9134 35.1611C6.4668 35.7235 7.00566 36.3107 7.58465 36.8464C7.68168 36.9361 7.82488 37.0684 7.96488 37.0598C8.71781 37.014 9.92703 34.6406 11.5612 34.488C12.0791 34.4396 12.6113 34.4636 13.1313 34.4645L15.6662 34.4698L25.5848 34.4704C26.2592 34.4698 26.9514 34.5456 27.5723 34.2231C28.1235 33.9369 28.4876 33.5574 28.9362 33.1407C29.7633 32.3725 30.5351 31.4246 31.3343 30.6491C32.2121 29.7973 33.1144 29.0002 33.955 28.1055C34.2102 27.8574 34.4405 27.5486 34.6892 27.3075L36.7709 25.2895C37.6113 24.4664 39.198 23.201 37.7662 22.1208C37.4656 21.8941 37.1809 21.7953 36.8069 21.812C36.5107 21.8602 36.2496 21.9433 36.0022 22.12C35.7143 22.3257 35.4696 22.5934 35.2142 22.8372C34.8586 23.1766 34.4904 23.4977 34.1495 23.8532C33.8035 24.2141 33.493 24.6036 33.1401 24.9593C32.4534 25.6514 31.6845 26.2765 31.0188 26.9822C30.4046 27.6333 28.1955 30.1589 27.4543 30.392C26.9455 30.552 23.0353 30.4472 22.188 30.4473C21.4592 30.4474 19.6713 30.5534 19.055 30.4064C18.8374 30.3546 18.6341 30.2384 18.4541 30.108C18.0692 29.8289 16.2644 28.1447 16.2176 27.7509C16.2073 27.6645 16.2355 27.6051 16.2931 27.542C16.4082 27.4157 16.6488 27.3317 16.8102 27.292C17.228 27.1891 17.6787 27.2111 18.1035 27.1273C19.0404 26.9424 19.968 26.6664 20.9044 26.4893C21.9553 26.2905 23.7506 26.2206 24.4861 25.3878Z"></path>
    </symbol>

    <symbol id="accessibilite" xmlns="http://www.w3.org/2000/svg" viewBox="0 0 37 37">
        <path d="M0.0663035 21.1201C0.0108503 20.0279 -0.00982937 18.9343 0.00430344 17.8408C0.0196238 16.4223 0.0475222 16.0309 0.437686 14.6848C0.721245 13.7065 0.85078 12.5467 1.28348 11.5721C1.4039 11.2262 1.67065 10.8498 1.80077 10.4978C2.22846 9.48235 2.77828 8.4836 3.51953 7.66239C3.595 7.57875 3.75106 7.41516 3.80235 7.33453C4.71852 5.89407 5.90223 4.74625 7.33086 3.82293C7.67828 3.58168 7.99965 3.20274 8.35149 2.98051C10.4866 1.6319 12.8613 0.705195 15.365 0.343609C15.8485 0.273781 16.035 0.0272926 16.6689 0.0243824C18.0098 0.0182301 19.3668 -0.0490864 20.7048 0.070687C21.0542 0.100179 21.508 0.342449 21.8704 0.397175C24.2466 0.755984 26.5747 1.74735 28.6022 3.02293C28.9081 3.21543 29.2001 3.55887 29.4924 3.75395C30.9356 4.71524 32.1508 5.97305 33.1337 7.39731C33.3771 7.73844 33.6993 8.05864 33.9194 8.41356C35.1366 10.3756 36.1106 12.6271 36.4543 14.9204C36.5029 15.2444 36.5834 15.4337 36.7966 15.6792C36.9397 16.6626 36.8744 17.9245 36.8903 18.9415C36.8994 19.5247 36.9011 20.326 36.8341 20.8941C36.8086 21.1105 36.5399 21.7555 36.4591 22.0562C36.3491 22.4649 36.2997 23.1371 36.1887 23.4909C35.6248 25.2883 34.8459 27.1358 33.7912 28.7019C33.6475 28.9154 33.3483 29.1743 33.2023 29.3817C32.7776 29.985 32.3664 30.556 31.8577 31.0932C31.1418 31.8492 30.3934 32.5015 29.5407 33.098C29.2089 33.3302 28.8526 33.6922 28.4994 33.9195C26.9494 34.9168 25.1788 35.6975 23.4054 36.2005C22.8328 36.363 22.1595 36.4441 21.5759 36.549C21.2571 36.6063 20.9821 36.768 20.6735 36.7948C19.1682 36.9255 17.2953 36.9602 15.8207 36.7029C15.6409 36.6143 14.7723 36.442 14.5616 36.4034C12.3866 36.0135 10.1546 35.0577 8.28637 33.8641C7.98137 33.6693 7.6241 33.2864 7.31535 33.0841C6.07996 32.2743 5.00703 31.2007 4.07567 30.0603C3.99016 29.9556 3.89426 29.6582 3.80535 29.547C3.58676 29.2734 3.31356 29.002 3.10149 28.7254C2.73051 28.2415 2.43305 27.6397 2.11739 27.1134C1.96609 26.8611 1.85273 26.4218 1.71755 26.142C1.61313 25.9259 1.35696 25.5664 1.28984 25.3571C1.07665 24.6923 0.854038 23.9965 0.657682 23.3304C0.43269 22.5672 0.523729 21.7651 0.0663035 21.1201ZM19.5933 35.1524C28.8182 34.5112 35.7774 26.5143 35.1385 17.2893C34.4996 8.06426 26.5045 1.10306 17.2793 1.73966C8.05079 2.37649 1.08659 10.375 1.72572 19.6034C2.36485 28.8317 10.3652 35.7939 19.5933 35.1524Z"></path>
        <path d="M9.72901 10.0137C9.75053 10.0334 9.77264 10.0524 9.79534 10.0707L9.82639 10.0959C10.4056 10.5721 14.1988 11.4758 15.3201 11.9966C15.6257 12.1386 20.7916 12.0072 21.5413 11.9868C21.9139 11.9766 24.033 11.0634 24.6664 10.9816C24.9299 10.9476 26.2171 10.3848 26.6194 10.3352C27.5974 9.84663 27.7629 9.97796 28.8451 10.0154C29.4239 10.7412 30.0387 10.696 30.0401 11.9387C30.0415 13.1721 29.5649 13.7773 28.4371 14.2072C27.3526 14.6205 26.278 14.9122 25.2178 15.3666C24.722 15.5764 22.7371 16.0785 22.4835 16.351C22.4274 16.8712 22.474 17.8147 22.4685 18.3824C22.4585 19.3891 22.451 20.444 22.5021 21.4495C22.5259 21.9178 22.686 22.2847 22.7597 22.7069C22.9083 23.5585 23.148 24.3311 23.3389 25.1721C23.3873 25.3851 23.5844 25.7251 23.6389 25.9533C23.8255 26.7341 24.0001 27.4944 24.1494 28.2824C24.2117 28.6111 24.4234 29.0291 24.464 29.4021C24.6083 30.7274 24.4648 30.8367 23.765 31.8105C23.4992 31.885 23.2542 31.9404 22.9844 31.9998C21.986 32.1312 21.2052 31.876 20.6992 30.9584C20.5117 30.6184 20.4412 30.2603 20.3131 29.8986L19.7617 28.2969C19.6062 27.8496 19.3372 27.4068 19.1928 26.9332C19.0498 26.4639 18.8818 24.8106 18.3799 24.6895C18.1508 24.8376 17.8944 25.989 17.7931 26.3266C17.3237 27.8914 16.7641 29.4296 16.1689 30.9503C16.0836 31.1681 15.5918 31.6562 15.4115 31.8463C15.0571 31.9476 14.8446 32.003 14.4756 32.0189C13.6072 32.0788 12.6376 31.6389 12.4442 30.7214C12.378 30.4067 12.362 29.4607 12.4642 29.1381C12.792 28.1042 12.9406 27.0434 13.2329 26.0005C13.3567 25.5585 13.575 25.1503 13.6368 24.6888C13.6586 24.5262 13.7113 24.3421 13.7471 24.1822C13.9149 23.7654 13.9186 23.1827 14.047 22.7799C14.4284 21.5837 14.4214 20.5854 14.4229 19.3308C14.4271 18.31 14.4164 17.2893 14.3908 16.2688C13.2414 15.8327 12.0473 15.4644 10.8896 15.0318C9.89811 14.6612 8.8192 14.3935 7.85291 13.9379C7.63647 13.8358 7.34854 13.4921 7.18905 13.3096C6.79377 12.8477 6.79334 12.2628 6.83612 11.6975C6.89674 10.8964 7.54147 10.4788 8.11135 10.0294L8.64819 9.98964L9.72901 10.0137ZM8.55041 12.3246C9.38846 12.803 9.72182 12.7585 10.5965 13.0734C11.2726 13.3169 11.8602 13.6423 12.5646 13.8862L15.0817 14.754C15.4601 14.886 15.6353 14.875 16.0165 15.0574C16.1081 15.5667 16.0557 17.181 16.0574 17.8013L16.066 20.3629C16.067 20.6843 16.0881 21.6794 16.0352 21.9432C15.9287 22.4744 15.7251 23.175 15.5928 23.7355L14.2164 29.3387C14.1569 29.5875 13.9901 30.1051 14.1372 30.3057C14.5128 30.459 14.7111 30.1235 14.817 29.8109C15.1163 28.928 15.4083 28.041 15.6753 27.1477C15.9257 26.3989 16.2174 25.6309 16.4621 24.8718C16.5437 24.6188 16.7526 24.1289 16.8399 23.8751C16.9998 23.4105 17.6576 21.0893 17.9056 20.8726C18.2192 20.8076 18.6923 20.7588 18.9745 20.908C19.1463 20.9988 19.2991 21.6901 19.3634 21.8888L20.0896 24.1053C20.4584 25.199 20.9694 26.2696 21.2579 27.4015C21.4153 28.0193 21.7329 28.6642 21.8785 29.278C22.0028 29.634 22.1487 30.3907 22.596 30.3852C22.9031 30.2068 22.808 29.9563 22.7453 29.6435C22.6433 29.1353 22.3848 28.6647 22.2702 28.1604C22.0684 27.4158 21.9682 26.7405 21.8303 25.9977C21.7259 25.4361 21.4819 24.6939 21.3522 24.1189C21.2468 23.6514 21.1582 23.1893 21.0614 22.7205C21.0304 22.5704 20.8535 22.2612 20.8495 22.15C20.8174 21.2496 20.7997 20.196 20.8244 19.2993C20.8605 17.9878 20.7748 16.5355 20.8265 15.2476L21.1141 14.9116C21.9017 14.7794 22.5153 14.5214 23.2652 14.2466C23.6756 14.0962 24.0806 13.996 24.4768 13.8431C25.2315 13.5477 25.9735 13.2214 26.7214 12.9103C27.0405 12.7776 27.4714 12.7885 27.7938 12.6394C28.0742 12.5096 28.3738 12.3689 28.4533 12.0464C28.2602 11.1769 25.7455 12.4961 25.2102 12.5585C24.4399 12.6482 22.4305 13.6191 21.8306 13.6559C19.6903 13.7869 17.418 13.6492 15.2654 13.6878C14.8642 13.6844 12.5822 12.788 11.9391 12.6408C10.8169 12.3839 9.76037 11.7024 8.48909 11.7159C8.49565 11.9704 8.50455 12.0736 8.55041 12.3246Z"></path>
        <path d="M17.8127 4.08264C19.5629 3.73616 21.2616 4.87729 21.6026 6.62854C21.9436 8.37979 20.7971 10.0749 19.0448 10.4103C17.3002 10.7443 15.6143 9.60401 15.2749 7.86053C14.9354 6.11709 16.0704 4.42756 17.8127 4.08264ZM18.7328 8.75073C19.4461 8.60846 19.9604 7.98327 19.9624 7.25592C19.9636 6.80045 19.7617 6.36819 19.4116 6.07686C19.0615 5.78549 18.5998 5.66545 18.1521 5.7494C17.319 5.90561 16.7722 6.70987 16.9331 7.54205C17.0942 8.3742 17.9015 8.91651 18.7328 8.75073Z"></path>
    </symbol>
</svg>
